<svg width="74" height="97" viewBox="0 0 74 97" fill="none" xmlns="http://www.w3.org/2000/svg">
<path d="M30.3048 0.000488281V29.4632H0V42.2991H30.3048V71.8282H43.4597V42.2991H73.6957V29.4632H43.4597V0.000488281H30.3048ZM54.8931 3.92441C54.1679 4.34997 52.9126 5.00979 50.8981 6.85073C48.7085 8.85388 47.1626 12.4959 44.9751 14.7651V21.2828C47.7544 19.3887 50.5483 16.7124 52.2756 13.967C53.9456 11.4104 56.0777 9.0242 58.75 7.58231C59.1791 7.34818 59.4718 7.13804 59.714 6.98374C58.1937 5.83712 56.5846 4.83421 54.8931 3.92441ZM18.114 4.25695C16.5188 5.15606 15.0036 6.20428 13.5683 7.31628C15.4747 9.82763 18.26 12.6368 21.0756 14.0335C23.9793 15.6696 26.5106 18.1436 28.7208 20.4182V12.9029C28.3703 12.4879 27.7755 11.8388 27.3433 11.4397C24.6952 8.97636 20.6568 7.11408 18.114 4.25695ZM61.2295 8.18087C60.0581 9.00822 58.8959 9.73714 57.8545 10.7081C55.3751 12.7087 53.9945 15.4807 52.1381 18.0239C50.3606 20.4581 47.6003 22.4799 44.9751 24.0096V27.9335H49.5896C51.7275 26.5236 54.0472 24.4885 55.6506 22.6794C58.2733 19.1439 60.2571 14.8502 64.122 12.5703C64.5137 12.3388 64.8165 12.142 65.0865 11.9718C63.882 10.6231 62.6207 9.3461 61.2295 8.18087ZM12.053 8.51341C10.6893 9.68657 9.44129 11.0141 8.26493 12.3708C8.50731 12.7779 8.94539 13.411 9.64242 14.4325C11.5296 17.2046 14.3369 18.6997 17.1497 20.4182C17.9597 20.8386 18.7284 21.4557 19.4915 22.0144C21.6762 23.6983 23.4779 25.9436 25.0703 27.9335H28.7208V23.677C27.7616 22.4613 26.6902 21.2109 25.6213 20.0857C23.2824 17.5743 20.2161 15.9622 17.3564 14.1C15.3507 12.6368 13.4774 10.4049 12.053 8.51341ZM66.5327 13.6345C66.2433 13.7888 65.9019 13.9856 65.4995 14.233C62.1609 16.2787 60.1383 19.7691 57.9923 22.7459C56.747 24.5683 54.813 26.3959 53.0333 27.9335H60.816C62.6431 26.348 64.2439 24.0681 65.224 22.5464C66.2742 20.9183 68.0616 19.4179 69.4944 18.0239C68.604 16.4863 67.6319 15.0232 66.5327 13.6345ZM7.02519 13.834C5.88468 15.2945 4.90108 16.8028 3.99472 18.423C5.70281 21.2216 7.88201 23.7595 10.951 25.2732C13.2901 26.4278 14.5325 27.4653 15.0146 27.9335H22.0398C21.2325 26.5183 19.8248 24.8875 18.7339 23.7436C15.3948 20.8146 10.816 19.8489 8.33381 15.8957C7.63953 14.7863 7.25661 14.1745 7.02519 13.834ZM12.5352 43.8952C10.659 45.6643 9.53771 47.3749 8.26493 49.4153C7.32275 50.9955 5.71934 52.5358 4.06359 53.6053C4.9838 55.22 6.08297 56.7418 7.23182 58.1943L9.1603 56.8641C9.97031 56.3054 10.8601 55.6138 11.4332 54.8689C12.9595 53.2887 14.0256 51.2004 15.359 49.4818C16.8385 47.4813 18.5959 45.917 20.4558 44.4273C20.5737 44.3342 20.9103 44.0921 21.1443 43.8952H12.5352ZM24.1061 43.8952C21.0674 45.9889 18.384 48.5507 16.3232 51.5436C14.3203 54.9381 12.1081 57.7128 8.81593 59.99L8.74706 60.0565C9.93992 61.376 11.232 62.5758 12.604 63.7144C12.9043 63.5229 13.2322 63.2834 13.6371 62.9828C16.7586 60.679 19.216 57.9389 21.0756 54.8689C22.9571 52.0064 25.8719 49.4951 28.7208 47.4866V43.8952H24.1061ZM44.9751 43.8952V47.5531C46.8397 50.2188 49.5956 53.3845 52.2756 54.9354C55.7859 57.0184 59.2265 59.7958 61.987 62.9828C63.2957 61.8255 64.5079 60.5832 65.6375 59.2584C65.4523 58.9684 65.2901 58.6199 65.0175 58.1943C62.6676 54.5364 58.3504 52.3869 54.9618 50.0139C52.5264 48.3113 50.8183 46.1751 49.2451 43.8952H44.9751ZM51.9313 43.8952L52.5511 44.8928C54.8878 48.008 58.3366 49.7345 61.436 51.8761C63.6565 53.302 65.6264 55.4648 67.015 57.5957C68.1522 56.0952 69.1528 54.4726 70.0454 52.8072C68.3755 50.6683 66.7117 48.6625 64.3287 47.2206C62.6427 46.271 60.7638 45.0365 59.0943 43.8952H51.9313ZM28.7208 50.1469C26.07 51.9852 23.4587 54.4539 21.9021 57.1302C20.3289 59.9686 17.9239 62.3869 15.0146 64.2464C14.6041 64.5098 14.2956 64.7519 14.0504 64.9115C15.5904 66.0634 17.2269 67.061 18.9405 67.9708C19.3124 67.6995 19.8304 67.3244 20.5246 66.8402C24.1832 64.3023 26.1723 60.53 28.7208 57.0637V50.1469ZM44.9751 50.8785V58.5933C45.1977 58.8461 45.5508 59.2371 46.1459 59.9235C48.5703 62.7247 52.3225 63.7437 54.7551 66.4412C55.1522 66.8802 55.4879 67.1914 55.7195 67.4388C57.2976 66.5396 58.7747 65.5526 60.1963 64.4459C58.3394 61.6792 55.7854 59.5217 52.8956 57.9948C49.9863 56.4651 46.9664 53.4909 44.9751 50.8785ZM36.2967 77.7474V80.0751H38.1564V77.7474H36.2967ZM41.2557 79.144V82.8684H39.3272V84.1986H41.2557V93.9751C41.2559 95.9677 42.1432 96.6354 43.7352 96.6354C44.5152 96.6354 45.2176 96.3801 45.5949 96.3029V95.0393C45.1622 95.1403 44.7188 95.2388 44.2862 95.2388C42.9393 95.2388 42.9087 94.696 42.9087 93.3766V84.1986H45.5261V82.8684H42.9087V79.144H41.2557ZM8.05831 82.5359C3.87901 82.5359 1.65297 85.8613 1.65299 89.5857C1.65299 93.5415 3.60902 96.6354 8.05831 96.6354C11.5626 96.6354 13.5546 94.6189 14.1193 91.6474H12.3974C12.0199 93.8687 10.4579 95.2388 8.05831 95.2388C4.71375 95.2388 3.37483 92.403 3.37485 89.5857C3.37485 86.7924 4.74132 83.9325 8.05831 83.9326C10.2127 83.9326 11.6921 85.0658 12.2597 87.0584H13.9126C13.4277 83.9565 11.2652 82.5359 8.05831 82.5359ZM21.0068 82.5359C17.9596 82.5359 15.5326 83.7702 15.2901 86.9254H16.9431C17.2407 84.5976 18.7696 83.9325 21.0068 83.9326C23.5163 83.9326 24.4505 85.0152 24.4503 86.5928C24.4505 87.0584 24.4367 87.7553 23.8993 87.9895C23.3596 88.2209 22.3594 88.4045 21.7643 88.455L19.4915 88.7211C16.2296 89.1361 14.6702 90.5301 14.6703 92.778C14.6703 95.3638 16.8302 96.6354 19.2848 96.6354C21.307 96.6354 23.1694 95.8879 24.5193 94.4407C24.5442 95.3691 24.7509 96.2151 25.8278 96.3694C26.0707 96.4226 26.2468 96.5024 26.5168 96.5024C26.9737 96.5024 27.5828 96.3135 27.8253 96.2364V94.9727C26.4478 95.4383 26.1035 95.1908 26.1033 93.9751V86.6593C26.1035 83.5575 23.8385 82.5359 21.0068 82.5359ZM35.0572 82.5359C32.7124 82.5359 31.4012 83.2515 30.5113 85.3957H30.4425V82.8684H28.8583V96.2364H30.4425V89.7187C30.4425 86.7179 31.4178 84.1214 35.0572 84.1986V82.5359ZM52.0001 82.5359C48.9533 82.5359 46.5261 83.7702 46.2836 86.9254H47.8676C48.1628 84.5976 49.7633 83.9325 52.0001 83.9326C54.5074 83.9326 55.444 85.0152 55.444 86.5928C55.4438 87.0584 55.364 87.7553 54.8241 87.9895C54.2867 88.2209 53.2839 88.4045 52.6891 88.455L50.4851 88.7211C47.223 89.1361 45.5949 90.5301 45.5949 92.778C45.5949 95.3638 47.8236 96.6354 50.2784 96.6354C52.3005 96.6354 54.0941 95.8879 55.444 94.4407C55.4714 95.3691 55.6755 96.2151 56.7526 96.3694C56.9976 96.4226 57.2401 96.5024 57.5101 96.5024C57.9676 96.5024 58.5045 96.3135 58.75 96.2364V94.9727C57.3723 95.4383 57.097 95.1908 57.097 93.9751V86.6593C57.0968 83.5575 54.8322 82.5359 52.0001 82.5359ZM63.9155 82.5359C60.816 82.5359 59.0253 84.1029 59.0255 86.3268C59.0253 91.6022 67.9792 88.8994 67.979 92.778C67.9792 94.0709 66.8827 95.2388 64.5355 95.2388C62.108 95.2388 60.8465 94.4141 60.334 92.1129H58.681C58.8159 94.6455 60.6975 96.6354 63.9845 96.6354C67.2737 96.6354 69.701 95.2707 69.701 92.7115C69.701 87.5665 60.7473 89.841 60.7473 86.1938C60.7473 84.8237 61.8658 83.9325 63.9155 83.9326C65.9377 83.9326 67.409 84.6562 67.7035 86.7259H69.3565C68.9518 83.6984 66.935 82.5359 63.9155 82.5359ZM36.2967 82.8684V96.2364H37.9497V82.8684H36.2967ZM24.4503 89.2531V91.3148C24.4505 94.031 21.916 95.2388 19.3537 95.2388C17.8164 95.2388 16.3921 94.4726 16.3921 92.8445C16.3921 91.0329 17.8634 90.1656 20.3179 89.9847C21.7205 89.881 23.0759 89.7958 24.4503 89.2531ZM55.444 89.2531V91.3148C55.4438 94.031 52.9095 95.2388 50.3471 95.2388C48.8103 95.2388 47.3169 94.4726 47.3166 92.8445C47.3169 91.0329 48.788 90.1656 51.2426 89.9847C52.6448 89.881 54.0692 89.7958 55.444 89.2531Z" fill="white"/>
</svg>
