<svg width="953" height="900" viewBox="0 0 953 900" fill="none" xmlns="http://www.w3.org/2000/svg">
<g clip-path="url(#clip0_1168_3478)">
<path fill-rule="evenodd" clip-rule="evenodd" d="M494.803 160.058C506.217 141.859 517.381 126.292 529.183 111.173C531.697 107.955 534.173 104.695 536.929 101.705C545.041 92.9486 554.812 90.7764 565.874 95.1539C569.634 96.6381 573.358 98.4894 576.723 100.744C620.146 129.797 664.92 156.808 707.131 187.706C756.876 224.1 806.998 260.009 854.592 299.249C860.573 304.178 866.564 309.169 871.924 314.733C884.826 328.086 886.5 342.18 877.53 358.288C875.542 361.846 873.297 365.273 870.869 368.54C866.737 374.109 862.576 379.683 858.045 384.924C799.15 453.319 744.065 524.778 688.274 595.658C638.272 659.163 588.236 722.657 536.824 785.021C525.664 798.56 513.886 811.585 502.104 824.579C497.739 829.384 492.886 833.891 487.66 837.735C477.434 845.277 467.696 845.212 457.041 838.097C453.996 836.074 451.147 833.704 448.397 831.271C413.835 800.633 377.289 772.516 339.83 745.551C326.922 736.253 313.569 727.515 302.014 716.475C299.342 713.935 296.639 713.349 293.132 714.119C276.397 717.838 259.603 721.283 242.878 725.064C216.601 731.012 190.374 737.173 164.13 743.226C156.933 744.889 149.625 745.469 142.239 745.277C133.369 745.041 126.674 741.044 122.036 733.525C118.141 727.207 115.735 720.271 114.074 713.089C105.44 675.711 96.8655 638.307 88.2164 600.93C82.1454 574.674 75.8956 548.478 69.8859 522.211C65.6137 503.507 61.4182 484.79 57.5393 465.991C39.9088 380.401 24.8926 294.358 15.4674 207.414C14.2323 196.046 13.0916 184.679 12.1677 173.293C11.2849 162.356 14.2451 157.321 24.2474 153.367C31.824 150.354 39.5018 147.482 47.3792 145.458C70.3061 139.594 93.3334 134.059 116.365 128.65C146.951 121.457 177.603 114.473 208.234 107.461C220.176 104.719 232.141 102.115 244.1 99.4798C296.327 87.997 348.408 75.7048 401.731 70.143C410.263 69.2549 418.801 68.5072 427.369 68.6192C430.629 68.6596 433.879 68.9371 437.12 69.2477C451.129 70.6514 461.489 77.4049 468.428 89.8335C474.635 100.95 479.026 112.783 483.181 124.717C486.525 134.346 489.408 144.144 492.53 153.856C492.997 155.289 493.571 156.705 494.82 160.071L494.803 160.058ZM75.5756 445.969C77.9289 457.156 80.1903 468.359 82.6636 479.511C89.6249 510.999 96.7523 542.444 103.698 573.934C113.551 618.582 123.281 663.249 133.115 707.883C133.895 711.45 134.939 715.007 136.258 718.409C139.179 725.906 141.159 727.362 149.204 726.286C158.894 724.975 168.568 723.275 178.119 721.106C223.499 710.822 268.965 700.978 314.686 692.226C336.732 688.012 358.676 683.265 380.573 678.321C410.034 671.655 439.455 664.838 468.751 657.539C492.896 651.526 516.891 644.876 540.863 638.184C547.104 636.439 553.004 633.461 559.08 631.082C564.859 628.815 566.959 624.391 566.481 618.496C566.155 614.431 565.95 610.331 565.273 606.322C563.797 597.461 562.199 588.619 560.404 579.825C553.962 548.238 547.547 516.63 540.843 485.085C533.981 452.749 526.996 420.432 519.661 388.187C510.512 347.999 500.967 307.892 491.588 267.741C482.498 228.802 473.646 189.776 462.608 151.324C458.212 136.049 453.128 120.981 446.568 106.417C443.059 98.59 437.46 95.3436 429.244 95.7564C428.012 95.8136 426.797 95.8836 425.57 95.8771C410.374 95.7807 395.513 98.6475 380.606 101.035C296.361 114.535 212.334 129.289 128.461 144.899C119.259 146.602 110.285 149.526 101.232 151.959C96.5012 153.225 91.8356 154.7 87.13 156.024C71.8051 160.301 56.4378 164.413 41.1578 168.872C32.8422 171.296 32.6563 171.703 33.579 179.963C35.7427 199.431 37.7073 218.932 40.4273 238.342C50.2056 307.879 60.6273 377.313 75.5449 445.974L75.5756 445.969ZM325.022 707.894C328.557 710.326 329.841 711.172 331.086 712.071C368.548 738.957 406.427 765.304 441.141 795.808C449.417 803.086 457.748 810.308 466.248 817.314C471.286 821.468 473.156 821.466 477.747 816.797C484.608 809.829 491.273 802.626 497.595 795.147C552.131 730.614 604.223 664.085 656.971 598.111C710.738 530.857 763.349 462.673 817.962 396.084C827.536 384.404 836.948 372.593 846.163 360.641C849.88 355.815 853.015 350.5 856.13 345.252C858.49 341.273 857.932 337.324 854.496 334.137C849.414 329.425 844.381 324.625 839.025 320.255C807.367 294.477 774.228 270.619 741.43 246.345C726.348 235.166 711.12 224.152 696.601 212.27C656.113 179.098 612.886 149.794 569.312 120.97C566.603 119.176 563.709 117.599 560.765 116.203C556.765 114.302 555.315 114.567 552.329 118.27C535.405 139.244 519.105 160.683 503.541 182.679C501.482 185.604 500.967 188.453 501.941 191.863C503.629 197.752 505.224 203.655 506.626 209.621C513.15 237.423 519.767 265.211 526.005 293.091C534.476 330.92 542.808 368.772 550.84 406.703C557.015 435.85 562.764 465.082 568.437 494.326C574.494 525.566 580.341 556.872 586.033 588.188C587.708 597.41 589.12 606.753 589.606 616.104C590.436 632.079 585.3 643.31 569.07 649.965C562.303 652.738 555.351 655.335 548.259 657.06C516.154 664.875 484.019 672.601 451.779 679.872C416.748 687.766 381.595 695.098 346.507 702.734C340.161 704.118 333.859 705.778 325.027 707.925L325.022 707.894Z" fill="white"/>
<path fill-rule="evenodd" clip-rule="evenodd" d="M231.172 285.342C218.885 287.7 200.429 291.178 181.999 294.808C172.387 296.703 162.836 298.872 153.237 300.843C150.058 301.497 146.823 302.097 143.587 302.304C140.523 302.5 137.748 300.008 137.632 297.339C137.514 294.655 138.681 292.44 141.265 291.599C144.354 290.583 147.561 289.908 150.758 289.267C177.58 283.875 204.444 278.744 231.217 273.14C275.167 263.934 319.058 254.455 362.973 245.035C370.553 243.404 378.045 241.332 385.622 239.687C387.961 239.184 390.593 238.838 392.812 239.439C394.457 239.897 396.436 241.841 396.79 243.45C397.141 245.043 396.074 247.494 394.813 248.735C393.482 250.034 391.254 250.644 389.326 251.065C361.449 257.319 333.576 263.603 305.651 269.66C282.921 274.597 260.117 279.278 231.205 285.353L231.172 285.342Z" fill="white"/>
<path fill-rule="evenodd" clip-rule="evenodd" d="M306.073 441.05C335.598 434.782 365.101 428.471 394.634 422.249C403.01 420.49 411.451 418.941 419.859 417.381C421.843 417.015 423.903 416.73 425.912 416.814C428.603 416.931 430.474 418.499 431.062 421.17C431.669 423.964 430.197 426.04 427.893 427.15C425.734 428.19 423.318 428.799 420.943 429.276C395.372 434.53 369.771 439.599 344.234 444.972C305.516 453.099 266.846 461.422 228.145 469.656C214.59 472.533 201.02 475.412 187.425 478.137C185.096 478.607 182.429 478.832 180.27 478.112C178.776 477.614 177.354 475.423 176.891 473.722C176.556 472.519 177.543 470.552 178.554 469.509C179.605 468.428 181.315 467.823 182.845 467.372C186.373 466.347 189.934 465.427 193.519 464.661C231.015 456.653 268.5 448.678 306.001 440.7C306.018 440.807 306.038 440.93 306.055 441.037L306.073 441.05Z" fill="white"/>
<path fill-rule="evenodd" clip-rule="evenodd" d="M173.784 385.131C170.592 385.802 167.42 386.597 164.218 387.113C158.995 387.954 155.858 386.527 155.301 383.269C154.727 379.999 156.739 377.663 161.904 375.872C164.211 375.076 166.599 374.486 168.962 373.933C216.525 362.667 264.098 351.463 311.648 340.121C336.604 334.166 361.499 327.937 386.445 321.92C391.18 320.78 395.991 319.816 400.831 319.13C403.858 318.705 406.767 320.955 407.317 323.491C407.845 325.889 405.92 329.059 403.118 330.202C401.999 330.666 400.79 330.97 399.61 331.255C377.421 336.529 355.214 341.79 333.025 347.064C304.497 353.862 275.968 360.661 247.445 367.49C222.885 373.366 198.328 379.257 173.771 385.148L173.784 385.131Z" fill="white"/>
<path fill-rule="evenodd" clip-rule="evenodd" d="M215.979 581.658C215.453 581.711 213.808 582.134 212.214 581.997C209.57 581.779 207.538 580.284 206.899 577.684C206.25 575.023 207.687 572.921 209.87 571.547C211.211 570.703 212.808 570.178 214.364 569.786C231.728 565.29 249.072 560.765 266.473 556.405C291.775 550.063 317.069 543.676 342.438 537.654C370.591 530.963 398.831 524.619 427.041 518.186C430.211 517.471 433.456 516.932 436.688 516.804C439.313 516.711 441.312 518.291 441.979 520.965C442.661 523.731 441.284 525.917 439.011 527.022C436.489 528.246 433.682 528.966 430.926 529.614C420.202 532.113 409.454 534.458 398.743 536.939C370.936 543.338 343.089 549.587 315.359 556.273C293.969 561.433 272.719 567.169 251.393 572.634C239.937 575.564 228.494 578.478 215.963 581.66L215.979 581.658Z" fill="white"/>
</g>
<defs>
<clipPath id="clip0_1168_3478">
<rect width="839" height="776" fill="white" transform="translate(0.601562 133.7) rotate(-9.15655)"/>
</clipPath>
</defs>
</svg>
