<svg width="136" height="26" viewBox="0 0 136 26" fill="none" xmlns="http://www.w3.org/2000/svg">
<path d="M7.71004 25.7458C6.4206 25.7458 5.2578 25.4464 4.22164 24.8478C3.2085 24.2261 2.4026 23.3856 1.80393 22.3264C1.22829 21.2442 0.940463 20.0354 0.940463 18.6999V17.1111C0.940463 17.019 0.986515 16.973 1.07862 16.973H4.98149C5.07359 16.973 5.11964 17.0305 5.11964 17.1457V18.6999C5.11964 19.5518 5.36141 20.2426 5.84495 20.7722C6.32849 21.3018 6.95019 21.5666 7.71004 21.5666C8.40081 21.5666 8.99948 21.2788 9.50605 20.7031C10.0126 20.1275 10.2659 19.4597 10.2659 18.6999V1.53417C10.2659 1.44207 10.312 1.39602 10.4041 1.39602H14.2724C14.3645 1.39602 14.4105 1.45358 14.4105 1.56871L14.4451 18.6999C14.4451 19.9663 14.1342 21.1406 13.5125 22.2228C12.9139 23.282 12.108 24.134 11.0948 24.7787C10.0817 25.4234 8.95343 25.7458 7.71004 25.7458ZM22.8922 25.7458C21.6718 25.7458 20.5436 25.4349 19.5074 24.8132C18.4713 24.1685 17.6423 23.3166 17.0206 22.2574C16.422 21.1982 16.1226 20.0354 16.1226 18.769L16.1917 1.49964C16.1917 1.40753 16.2378 1.36148 16.3299 1.36148H20.1982C20.2903 1.36148 20.3364 1.40753 20.3364 1.49964V18.769C20.3364 19.5518 20.5781 20.2196 21.0617 20.7722C21.5682 21.3018 22.1784 21.5666 22.8922 21.5666C23.629 21.5666 24.2392 21.3018 24.7228 20.7722C25.2293 20.2196 25.4826 19.5518 25.4826 18.769V1.49964C25.4826 1.40753 25.5287 1.36148 25.6208 1.36148H29.4891C29.5812 1.36148 29.6273 1.40753 29.6273 1.49964L29.6963 18.769C29.6963 20.0584 29.3855 21.2327 28.7638 22.2919C28.1651 23.3511 27.3477 24.1915 26.3115 24.8132C25.2984 25.4349 24.1586 25.7458 22.8922 25.7458ZM38.226 25.7458C36.9826 25.7458 35.8544 25.4349 34.8412 24.8132C33.8281 24.1915 33.0107 23.3626 32.389 22.3264C31.7903 21.2673 31.491 20.0929 31.491 18.8035V7.85475C31.491 6.61136 31.7903 5.47158 32.389 4.43542C33.0107 3.37624 33.8281 2.5358 34.8412 1.9141C35.8774 1.2924 37.0057 0.981556 38.226 0.981556C39.4924 0.981556 40.6322 1.2924 41.6454 1.9141C42.6815 2.51277 43.4989 3.33018 44.0976 4.36634C44.6963 5.4025 44.9956 6.56531 44.9956 7.85475V9.44353C44.9956 9.53563 44.938 9.58168 44.8229 9.58168H40.9546C40.8625 9.58168 40.8164 9.53563 40.8164 9.44353V8.13106C40.8164 7.25608 40.5631 6.53077 40.0566 5.95512C39.573 5.37948 38.9629 5.09166 38.226 5.09166C37.5583 5.09166 36.9596 5.36797 36.43 5.92058C35.9235 6.4732 35.6702 7.11792 35.6702 7.85475V18.8035C35.6702 19.5634 35.9235 20.2196 36.43 20.7722C36.9366 21.3018 37.5353 21.5666 38.226 21.5666C38.9629 21.5666 39.573 21.3018 40.0566 20.7722C40.5631 20.2426 40.8164 19.5864 40.8164 18.8035V17.1111H38.3987C38.2836 17.1111 38.226 17.0535 38.226 16.9384V13.0701C38.226 12.955 38.2836 12.8974 38.3987 12.8974H44.8575C44.9496 12.8974 44.9956 12.955 44.9956 13.0701V18.8035C44.9956 20.0929 44.6848 21.2673 44.0631 22.3264C43.4644 23.3626 42.6585 24.1915 41.6454 24.8132C40.6322 25.4349 39.4924 25.7458 38.226 25.7458ZM47.0747 25.4004C46.9826 25.4004 46.9365 25.3428 46.9365 25.2277L46.9711 1.49964C46.9711 1.40753 47.0171 1.36148 47.1092 1.36148H58.1961C58.2882 1.36148 58.3343 1.41904 58.3343 1.53417V5.4025C58.3343 5.49461 58.2882 5.54066 58.1961 5.54066H51.1157V10.9287H58.1961C58.2882 10.9287 58.3343 10.9747 58.3343 11.0668L58.3688 14.9697C58.3688 15.0618 58.3228 15.1079 58.2307 15.1079H51.1157V21.1521H58.2307C58.3228 21.1521 58.3688 21.2097 58.3688 21.3248V25.2622C58.3688 25.3543 58.3228 25.4004 58.2307 25.4004H47.0747ZM61.2328 25.4004C61.0486 25.4004 60.9565 25.3198 60.9565 25.1586L60.922 1.63779C60.922 1.45358 61.0141 1.36148 61.1983 1.36148H64.3068L70.1438 14.9697L69.9711 1.63779C69.9711 1.45358 70.0747 1.36148 70.282 1.36148H73.7013C73.8394 1.36148 73.9085 1.45358 73.9085 1.63779L73.9431 25.1932C73.9431 25.3313 73.8855 25.4004 73.7704 25.4004H70.731L64.7558 12.6902L64.9975 25.1241C64.9975 25.3083 64.8939 25.4004 64.6867 25.4004H61.2328ZM76.5979 25.4004C76.4828 25.4004 76.4252 25.3428 76.4252 25.2277L76.4943 1.49964C76.4943 1.40753 76.5404 1.36148 76.6325 1.36148L83.0912 1.32694C84.3576 1.30392 85.5089 1.60325 86.5451 2.22495C87.6043 2.84664 88.4447 3.68708 89.0664 4.74627C89.6881 5.78243 89.9989 6.93372 89.9989 8.20014V18.1127C89.9989 19.4482 89.6766 20.6686 89.0319 21.7738C88.3871 22.856 87.5237 23.7195 86.4415 24.3642C85.3592 25.009 84.1389 25.3428 82.7804 25.3659L76.5979 25.4004ZM80.639 21.1521H82.7804C83.6323 21.1521 84.3461 20.8528 84.9218 20.2541C85.5204 19.6555 85.8198 18.9417 85.8198 18.1127V8.1656C85.8198 7.42877 85.5435 6.79556 84.9908 6.26597C84.4612 5.71335 83.828 5.44856 83.0912 5.47158L80.6735 5.50612L80.639 21.1521ZM89.9784 25.2277L94.2612 1.49964C94.2843 1.40753 94.3418 1.36148 94.4339 1.36148H99.442C99.5341 1.36148 99.5917 1.40753 99.6147 1.49964L103.725 25.2277C103.748 25.3428 103.702 25.4004 103.587 25.4004H99.7529C99.6608 25.4004 99.6032 25.3428 99.5802 25.2277L99.2003 22.7064H94.503L94.1231 25.2277C94.1 25.3428 94.0425 25.4004 93.9504 25.4004H90.1166C90.0245 25.4004 89.9784 25.3428 89.9784 25.2277ZM95.1938 19.0107H98.5095L97.0934 9.30537L96.8862 8.02744L96.748 9.30537L95.1938 19.0107ZM105.512 25.4004C105.42 25.4004 105.374 25.3428 105.374 25.2277L105.443 1.49964C105.443 1.40753 105.489 1.36148 105.582 1.36148H109.795C109.887 1.36148 109.968 1.40753 110.037 1.49964L113.18 6.05874L116.323 1.49964C116.392 1.40753 116.473 1.36148 116.565 1.36148H120.813C120.905 1.36148 120.951 1.40753 120.951 1.49964L121.02 25.2277C121.02 25.3428 120.974 25.4004 120.882 25.4004H116.979C116.887 25.4004 116.841 25.3428 116.841 25.2277L116.807 7.61298L113.18 12.8629L109.588 7.61298L109.553 25.2277C109.553 25.3428 109.507 25.4004 109.415 25.4004H105.512ZM126.861 25.4004C126.769 25.4004 126.723 25.3428 126.723 25.2277V5.54066H122.233C122.118 5.54066 122.06 5.48309 122.06 5.36797L122.095 1.49964C122.095 1.40753 122.141 1.36148 122.233 1.36148H135.358C135.473 1.36148 135.53 1.40753 135.53 1.49964V5.36797C135.53 5.48309 135.484 5.54066 135.392 5.54066H130.868L130.902 25.2277C130.902 25.3428 130.856 25.4004 130.764 25.4004H126.861Z" fill="black"/>
<path d="M7.71004 25.7458C6.4206 25.7458 5.2578 25.4464 4.22164 24.8478C3.2085 24.2261 2.4026 23.3856 1.80393 22.3264C1.22829 21.2442 0.940463 20.0354 0.940463 18.6999V17.1111C0.940463 17.019 0.986515 16.973 1.07862 16.973H4.98149C5.07359 16.973 5.11964 17.0305 5.11964 17.1457V18.6999C5.11964 19.5518 5.36141 20.2426 5.84495 20.7722C6.32849 21.3018 6.95019 21.5666 7.71004 21.5666C8.40081 21.5666 8.99948 21.2788 9.50605 20.7031C10.0126 20.1275 10.2659 19.4597 10.2659 18.6999V1.53417C10.2659 1.44207 10.312 1.39602 10.4041 1.39602H14.2724C14.3645 1.39602 14.4105 1.45358 14.4105 1.56871L14.4451 18.6999C14.4451 19.9663 14.1342 21.1406 13.5125 22.2228C12.9139 23.282 12.108 24.134 11.0948 24.7787C10.0817 25.4234 8.95343 25.7458 7.71004 25.7458ZM22.8922 25.7458C21.6718 25.7458 20.5436 25.4349 19.5074 24.8132C18.4713 24.1685 17.6423 23.3166 17.0206 22.2574C16.422 21.1982 16.1226 20.0354 16.1226 18.769L16.1917 1.49964C16.1917 1.40753 16.2378 1.36148 16.3299 1.36148H20.1982C20.2903 1.36148 20.3364 1.40753 20.3364 1.49964V18.769C20.3364 19.5518 20.5781 20.2196 21.0617 20.7722C21.5682 21.3018 22.1784 21.5666 22.8922 21.5666C23.629 21.5666 24.2392 21.3018 24.7228 20.7722C25.2293 20.2196 25.4826 19.5518 25.4826 18.769V1.49964C25.4826 1.40753 25.5287 1.36148 25.6208 1.36148H29.4891C29.5812 1.36148 29.6273 1.40753 29.6273 1.49964L29.6963 18.769C29.6963 20.0584 29.3855 21.2327 28.7638 22.2919C28.1651 23.3511 27.3477 24.1915 26.3115 24.8132C25.2984 25.4349 24.1586 25.7458 22.8922 25.7458ZM38.226 25.7458C36.9826 25.7458 35.8544 25.4349 34.8412 24.8132C33.8281 24.1915 33.0107 23.3626 32.389 22.3264C31.7903 21.2673 31.491 20.0929 31.491 18.8035V7.85475C31.491 6.61136 31.7903 5.47158 32.389 4.43542C33.0107 3.37624 33.8281 2.5358 34.8412 1.9141C35.8774 1.2924 37.0057 0.981556 38.226 0.981556C39.4924 0.981556 40.6322 1.2924 41.6454 1.9141C42.6815 2.51277 43.4989 3.33018 44.0976 4.36634C44.6963 5.4025 44.9956 6.56531 44.9956 7.85475V9.44353C44.9956 9.53563 44.938 9.58168 44.8229 9.58168H40.9546C40.8625 9.58168 40.8164 9.53563 40.8164 9.44353V8.13106C40.8164 7.25608 40.5631 6.53077 40.0566 5.95512C39.573 5.37948 38.9629 5.09166 38.226 5.09166C37.5583 5.09166 36.9596 5.36797 36.43 5.92058C35.9235 6.4732 35.6702 7.11792 35.6702 7.85475V18.8035C35.6702 19.5634 35.9235 20.2196 36.43 20.7722C36.9366 21.3018 37.5353 21.5666 38.226 21.5666C38.9629 21.5666 39.573 21.3018 40.0566 20.7722C40.5631 20.2426 40.8164 19.5864 40.8164 18.8035V17.1111H38.3987C38.2836 17.1111 38.226 17.0535 38.226 16.9384V13.0701C38.226 12.955 38.2836 12.8974 38.3987 12.8974H44.8575C44.9496 12.8974 44.9956 12.955 44.9956 13.0701V18.8035C44.9956 20.0929 44.6848 21.2673 44.0631 22.3264C43.4644 23.3626 42.6585 24.1915 41.6454 24.8132C40.6322 25.4349 39.4924 25.7458 38.226 25.7458ZM47.0747 25.4004C46.9826 25.4004 46.9365 25.3428 46.9365 25.2277L46.9711 1.49964C46.9711 1.40753 47.0171 1.36148 47.1092 1.36148H58.1961C58.2882 1.36148 58.3343 1.41904 58.3343 1.53417V5.4025C58.3343 5.49461 58.2882 5.54066 58.1961 5.54066H51.1157V10.9287H58.1961C58.2882 10.9287 58.3343 10.9747 58.3343 11.0668L58.3688 14.9697C58.3688 15.0618 58.3228 15.1079 58.2307 15.1079H51.1157V21.1521H58.2307C58.3228 21.1521 58.3688 21.2097 58.3688 21.3248V25.2622C58.3688 25.3543 58.3228 25.4004 58.2307 25.4004H47.0747ZM61.2328 25.4004C61.0486 25.4004 60.9565 25.3198 60.9565 25.1586L60.922 1.63779C60.922 1.45358 61.0141 1.36148 61.1983 1.36148H64.3068L70.1438 14.9697L69.9711 1.63779C69.9711 1.45358 70.0747 1.36148 70.282 1.36148H73.7013C73.8394 1.36148 73.9085 1.45358 73.9085 1.63779L73.9431 25.1932C73.9431 25.3313 73.8855 25.4004 73.7704 25.4004H70.731L64.7558 12.6902L64.9975 25.1241C64.9975 25.3083 64.8939 25.4004 64.6867 25.4004H61.2328ZM76.5979 25.4004C76.4828 25.4004 76.4252 25.3428 76.4252 25.2277L76.4943 1.49964C76.4943 1.40753 76.5404 1.36148 76.6325 1.36148L83.0912 1.32694C84.3576 1.30392 85.5089 1.60325 86.5451 2.22495C87.6043 2.84664 88.4447 3.68708 89.0664 4.74627C89.6881 5.78243 89.9989 6.93372 89.9989 8.20014V18.1127C89.9989 19.4482 89.6766 20.6686 89.0319 21.7738C88.3871 22.856 87.5237 23.7195 86.4415 24.3642C85.3592 25.009 84.1389 25.3428 82.7804 25.3659L76.5979 25.4004ZM80.639 21.1521H82.7804C83.6323 21.1521 84.3461 20.8528 84.9218 20.2541C85.5204 19.6555 85.8198 18.9417 85.8198 18.1127V8.1656C85.8198 7.42877 85.5435 6.79556 84.9908 6.26597C84.4612 5.71335 83.828 5.44856 83.0912 5.47158L80.6735 5.50612L80.639 21.1521ZM89.9784 25.2277L94.2612 1.49964C94.2843 1.40753 94.3418 1.36148 94.4339 1.36148H99.442C99.5341 1.36148 99.5917 1.40753 99.6147 1.49964L103.725 25.2277C103.748 25.3428 103.702 25.4004 103.587 25.4004H99.7529C99.6608 25.4004 99.6032 25.3428 99.5802 25.2277L99.2003 22.7064H94.503L94.1231 25.2277C94.1 25.3428 94.0425 25.4004 93.9504 25.4004H90.1166C90.0245 25.4004 89.9784 25.3428 89.9784 25.2277ZM95.1938 19.0107H98.5095L97.0934 9.30537L96.8862 8.02744L96.748 9.30537L95.1938 19.0107ZM105.512 25.4004C105.42 25.4004 105.374 25.3428 105.374 25.2277L105.443 1.49964C105.443 1.40753 105.489 1.36148 105.582 1.36148H109.795C109.887 1.36148 109.968 1.40753 110.037 1.49964L113.18 6.05874L116.323 1.49964C116.392 1.40753 116.473 1.36148 116.565 1.36148H120.813C120.905 1.36148 120.951 1.40753 120.951 1.49964L121.02 25.2277C121.02 25.3428 120.974 25.4004 120.882 25.4004H116.979C116.887 25.4004 116.841 25.3428 116.841 25.2277L116.807 7.61298L113.18 12.8629L109.588 7.61298L109.553 25.2277C109.553 25.3428 109.507 25.4004 109.415 25.4004H105.512ZM126.861 25.4004C126.769 25.4004 126.723 25.3428 126.723 25.2277V5.54066H122.233C122.118 5.54066 122.06 5.48309 122.06 5.36797L122.095 1.49964C122.095 1.40753 122.141 1.36148 122.233 1.36148H135.358C135.473 1.36148 135.53 1.40753 135.53 1.49964V5.36797C135.53 5.48309 135.484 5.54066 135.392 5.54066H130.868L130.902 25.2277C130.902 25.3428 130.856 25.4004 130.764 25.4004H126.861Z" fill="white"/>
</svg>
