<svg width="804" height="623" viewBox="0 0 804 623" fill="none" xmlns="http://www.w3.org/2000/svg">
<g clip-path="url(#clip0_1168_3486)">
<path fill-rule="evenodd" clip-rule="evenodd" d="M256.269 347.585C252.996 345.632 250.484 346.206 248.095 346.221C211.368 346.562 174.641 347.027 137.898 347.229C132.78 347.26 129.647 348.809 127.212 353.428C117.983 370.908 103.435 383.306 86.9635 393.55C66.1337 406.505 43.2412 413.293 18.8287 414.998C15.1839 415.246 11.477 415.246 7.8322 414.936C4.43554 414.641 1.47316 413.076 0.387465 409.527C-0.667205 406.102 0.387465 403.065 3.08618 400.725C4.93185 399.129 6.93263 397.703 8.9334 396.293C17.6654 390.187 25.622 383.151 32.9582 375.495C52.9349 354.636 63.9158 329.872 64.8154 300.83C64.893 298.273 64.3811 296.135 63.2489 293.857C51.3994 269.898 44.9783 244.25 39.798 218.231C35.083 194.597 32.4153 170.716 30.9884 146.68C30.1199 131.927 31.3451 117.329 34.9744 103.009C39.7825 83.9945 50.3602 69.0863 67.2039 58.6877C84.0011 48.3201 102.194 41.2844 121.008 35.69C150.368 26.9651 180.364 21.0452 210.546 16.1016C250.453 9.5773 290.685 6.05946 331.011 3.53342C346.893 2.54161 362.791 1.70476 378.673 0.80593C410.546 -0.991737 442.325 0.170548 473.981 4.06033C490.995 6.15244 507.668 9.80976 523.907 15.6212C548.366 24.3771 565.474 40.649 576.144 64.1117C584.163 81.7319 588.196 100.39 590.894 119.421C594.787 146.913 596.214 174.606 597.036 202.331C597.129 205.585 597.191 208.87 597.61 212.094C597.719 212.962 599.037 214.279 599.921 214.372C614.097 215.937 628.257 217.983 642.496 218.618C663.294 219.548 684.093 220.059 704.628 223.949C705.838 224.181 707.063 224.274 708.257 224.522C736.733 230.52 754.368 247.226 760.169 276.159C763.224 291.377 765.225 306.735 766.761 322.139C770.979 364.399 772.67 406.753 769.599 449.184C767.924 472.352 765.814 495.505 760.851 518.27C759.983 522.253 759.641 526.344 758.804 530.327C756.493 541.284 758.882 551.248 764.31 560.857C771.832 574.169 781.929 585.265 793.034 595.601C795.717 598.096 798.68 600.405 800.913 603.257C806.931 610.897 803.783 619.746 794.384 622.21C790.366 623.263 786.21 623.186 782.224 622.411C748.335 615.732 715.888 605.287 687.707 584.505C681.487 579.918 675.485 574.881 670.165 569.302C664.442 563.305 658.191 561.817 650.281 563.212C636.23 565.707 622.1 567.753 607.971 569.721C571.507 574.773 534.857 576.571 498.083 575.904C443.489 574.897 390.15 566.033 338.022 549.885C327.118 546.506 316.323 542.787 305.994 537.89C300.844 535.457 295.773 532.822 290.763 530.079C266.102 516.519 253.57 495.753 252.81 467.502C251.787 429.147 251.554 390.853 255.835 352.653C256.021 351.041 256.098 349.429 256.238 347.601L256.269 347.585ZM35.3312 394.96C36.3858 395.254 37.1768 395.704 37.9058 395.626C39.5188 395.425 41.1319 395.099 42.6673 394.588C55.8972 390.218 68.4137 384.344 80.0461 376.642C93.4001 367.809 105.777 357.844 114.711 344.315C119.627 336.877 126.203 333.002 135.184 333.281C136.812 333.328 138.441 333.173 140.085 333.126C178.425 331.902 216.75 330.724 255.09 329.422C286.079 328.369 317.083 327.563 348.056 325.936C380.643 324.215 413.167 321.55 445.551 317.257C466.583 314.468 487.599 311.632 508.32 307.045C521.053 304.224 533.632 300.784 545.652 295.53C558.835 289.765 567.474 280.126 571.305 266.272C572.391 262.351 573.244 258.353 573.895 254.339C575.26 245.877 576.144 237.354 575.881 228.769C575.353 210.838 574.671 192.924 574.128 174.994C573.508 155.002 571.569 135.135 568.56 115.361C566.109 99.1972 562.387 83.3901 555.16 68.5439C547.668 53.1707 536.191 42.2452 520.355 35.8294C512.399 32.606 504.225 30.08 495.834 28.2668C473.004 23.3697 449.848 21.4791 426.567 21.0452C405.35 20.6423 384.163 21.4946 362.977 22.9668C319.425 25.9888 275.92 29.4911 232.694 35.7984C197.161 40.99 161.938 47.8707 127.413 57.8818C111.345 62.531 95.6335 68.2339 80.5734 75.626C65.3272 83.0957 55.8662 95.075 51.539 111.44C47.8476 125.387 46.6999 139.536 47.3203 153.856C49.3056 198.875 56.8278 242.949 70.0733 286.031C70.9108 288.743 71.6863 291.718 73.3924 293.857C78.7433 300.567 78.6657 308.083 77.7351 315.94C76.5253 326.122 74.3695 336.024 70.1508 345.415C63.404 360.401 54.8271 374.163 43.1792 385.909C40.4029 388.714 36.8822 390.946 35.3312 394.944V394.96ZM770.979 599.072C764.667 590.72 759.781 584.226 754.88 577.764C741.2 559.787 737.354 539.935 741.65 517.744C747.156 489.275 749.234 460.373 750.118 431.409C751.344 390.946 748.009 350.747 742.441 310.717C740.704 298.227 738.951 285.674 734.795 273.648C730.948 262.552 723.736 254.68 712.554 250.883C706.784 248.915 700.859 247.226 694.872 246.141C664.69 240.701 634.136 238.919 603.55 237.726C597.439 237.494 596.462 238.33 596.028 244.514C595.377 253.951 593.283 263.064 590.522 272.021C584.38 291.95 571.709 306.068 552.228 313.77C546.179 316.157 539.944 318.141 533.694 320C512.523 326.308 490.732 329.469 468.925 332.599C428.087 338.457 387.048 341.913 345.854 343.587C322.201 344.548 298.533 344.858 274.865 345.555C268.646 345.741 267.762 346.578 267.777 352.715C267.824 378.812 267.529 404.924 268.367 431.006C268.817 445.217 269.856 459.474 271.686 473.67C273.857 490.5 282.543 502.262 296.889 510.475C305.777 515.558 315.129 519.541 324.792 522.858C342.194 528.84 360.201 532.419 378.037 536.681C427.11 548.412 476.804 553.774 527.288 552.752C564.093 552.008 600.619 549.265 636.896 543.066C642.511 542.105 648.234 541.656 653.942 541.315C664.644 540.664 674.151 543.407 681.565 551.682C683.193 553.495 685.086 555.092 686.854 556.781C709.948 578.756 737.959 591.045 770.979 599.088V599.072Z" fill="white"/>
<path fill-rule="evenodd" clip-rule="evenodd" d="M590.567 511.11C582.875 510.088 573.584 508.972 564.34 507.577C561.704 507.174 560.075 505.082 559.904 502.416C559.718 499.674 561.424 497.364 563.891 496.961C577.105 494.807 590.226 491.011 603.813 493.599C606.961 494.203 610.079 495.412 612.948 496.868C616.748 498.806 616.81 503.393 613.258 505.764C608.745 508.77 603.689 510.212 598.322 510.614C596.291 510.769 594.259 510.878 590.583 511.11H590.567Z" fill="white"/>
<path fill-rule="evenodd" clip-rule="evenodd" d="M211.074 263.157C215.541 262.955 220.349 263.451 224.552 266.442C226.987 268.178 227.577 271.773 225.529 273.958C223.885 275.709 222.04 277.414 219.961 278.561C208.375 284.915 196.541 284.326 184.8 279.01C180.52 277.073 180.504 271.633 184.754 269.309C192.772 264.939 201.473 263.11 211.074 263.157Z" fill="white"/>
<path fill-rule="evenodd" clip-rule="evenodd" d="M300.939 275.415C297.558 274.795 291.168 273.757 284.871 272.316C283.63 272.037 282.234 270.332 281.815 268.999C281.133 266.923 282.203 264.908 284.219 263.994C297.883 257.888 312.059 255.656 326.887 258.57C327.274 258.647 327.678 258.74 328.05 258.88C330.407 259.778 332.811 261.127 332.548 263.823C332.393 265.528 330.919 267.558 329.446 268.581C323.769 272.548 312.013 275.508 300.923 275.384L300.939 275.415Z" fill="white"/>
<path fill-rule="evenodd" clip-rule="evenodd" d="M388.957 497.644C383.746 496.017 376.766 493.971 369.926 491.554C368.779 491.151 367.445 488.966 367.584 487.757C367.77 486.006 368.856 483.356 370.19 482.875C382.722 478.443 395.456 476.599 408.081 482.534C409.678 483.294 411.276 485.215 411.772 486.935C412.532 489.554 410.609 491.461 408.437 492.809C403.086 496.125 397.069 497.009 388.988 497.659L388.957 497.644Z" fill="white"/>
<path fill-rule="evenodd" clip-rule="evenodd" d="M402.824 270.037C398.806 269.697 394.758 269.604 390.803 268.891C389.594 268.674 388.089 266.876 387.81 265.574C387.531 264.288 388.198 261.979 389.206 261.375C400.559 254.633 412.409 249.674 425.995 253.812C427.841 254.37 429.64 255.563 431.082 256.865C432.773 258.384 432.897 260.569 431.284 262.242C429.919 263.653 428.244 264.923 426.476 265.745C418.985 269.201 411.059 270.471 402.824 270.037Z" fill="white"/>
<path fill-rule="evenodd" clip-rule="evenodd" d="M488.422 487.446C493.959 488.438 499.558 489.321 505.11 490.468C507.607 490.98 509.98 492.467 509.484 495.319C509.189 497.008 507.669 499.162 506.134 499.828C493.23 505.376 479.984 504.958 466.739 501.13C464.242 500.402 462.83 498.248 463.094 495.458C463.358 492.684 465.141 490.98 467.716 490.546C474.525 489.399 481.365 488.5 488.422 487.462V487.446Z" fill="white"/>
</g>
<defs>
<clipPath id="clip0_1168_3486">
<rect width="804" height="623" fill="white"/>
</clipPath>
</defs>
</svg>
