<svg width="595" height="522" viewBox="0 0 595 522" fill="none" xmlns="http://www.w3.org/2000/svg">
<g clip-path="url(#clip0_1168_3506)">
<path fill-rule="evenodd" clip-rule="evenodd" d="M354.595 521.907C329.12 522.729 309.912 517.765 291.31 509.915C278.51 504.516 266.331 497.923 254.57 490.554C229.607 474.947 206.195 457.246 183.806 438.196C130.357 392.741 83.1451 341.686 44.3732 283.029C34.4746 268.043 24.9174 252.871 17.0513 236.706C8.61111 219.377 2.31202 201.397 0.34162 182.036C-0.946124 169.439 1.36561 157.695 7.27682 146.588C12.4899 136.783 19.3165 128.142 26.9964 120.199C42.9148 103.724 60.4933 89.1564 79.0802 75.7992C86.3878 70.5401 94.4711 66.5997 102.787 63.1867C114.33 58.4396 125.811 58.7188 137.215 63.8693C143.204 66.5686 148.898 69.7955 153.769 74.1703C159.231 79.0726 164.676 84.0369 169.579 89.4667C181.665 102.793 192.2 117.345 201.385 132.812C204.907 138.738 207.793 145.083 210.57 151.428C215.985 163.792 213.766 175.303 206.101 186.054C202.037 191.748 196.932 196.433 191.812 201.133C179.276 212.66 178.361 216.43 184.303 232.191C188.352 242.942 193.907 252.933 200.826 262.07C220.701 288.319 243.943 310.985 272.242 328.189C280.992 333.51 290.162 337.885 299.641 341.624C312.224 346.588 324.186 345.999 335.714 338.18C342.447 333.619 349.646 329.694 356.814 325.847C372.22 317.578 387.968 317.097 403.825 324.59C408.603 326.855 413.397 329.182 417.85 332.021C443.652 348.481 464.938 369.657 482.424 394.68C485.682 399.334 488.583 404.33 490.941 409.496C492.974 413.902 494.448 418.664 495.394 423.411C497.256 432.766 495.053 441.299 488.381 448.311C464.845 473.024 438.407 493.889 407.346 508.488C389.023 517.098 369.8 522 354.549 521.938L354.595 521.907ZM348.234 503.927C353.913 503.446 359.622 503.135 365.27 502.422C383.764 500.079 400.489 492.803 416.997 484.504C440.145 472.869 457.258 454.206 475.225 436.443C479.181 432.533 479.507 427.802 478.203 422.822C476.435 416.042 473.316 409.853 469.391 404.081C452.899 379.849 432.915 358.906 408.014 343.377C389.442 331.804 384.943 330.439 362.896 342.787C356.162 346.573 349.879 351.196 343.564 355.679C334.566 362.055 324.605 364.755 313.651 364.77C304.451 364.77 295.918 362.257 287.648 358.642C242.251 338.769 206.784 306.998 178.609 266.756C170.619 255.353 164.847 242.663 161.76 228.949C158.672 215.251 161.418 203.026 171.348 192.756C175.04 188.94 178.919 185.309 182.55 181.447C194.015 169.253 194.962 164.816 187.623 149.861C177.321 128.856 164.149 109.743 147.874 92.8486C143.018 87.8067 137.541 83.618 131.319 80.3757C123.624 76.3732 115.773 75.9388 107.705 79.2277C99.3738 82.6407 91.3991 86.7052 83.9674 91.8247C68.7783 102.281 54.8613 114.195 41.9839 127.382C32.1784 137.419 24.6226 148.961 19.0527 161.822C15.3601 170.323 14.2741 179.011 16.0428 188.133C17.9201 197.798 20.9455 207.059 24.8088 216.088C33.373 236.085 44.9783 254.314 57.5454 271.953C88.4358 315.297 123.546 354.981 161.93 391.826C193.814 422.434 227.729 450.467 265.105 474.172C275.795 480.967 286.873 487.079 298.54 492.028C314.412 498.745 330.64 504.082 348.234 503.911V503.927Z" fill="white"/>
<path fill-rule="evenodd" clip-rule="evenodd" d="M296.599 -0.000111448C349.164 0.31016 397.555 8.28413 443.48 28.4517C488.551 48.247 526.314 77.2264 554.101 118.275C580.167 156.811 593.029 199.644 594.766 245.967C595.62 268.896 594.022 291.639 589.724 314.196C589.181 317.019 588.7 319.796 587.195 322.309C584.511 326.777 579.732 328.81 574.628 327.6C570.237 326.545 566.808 322.837 566.684 317.919C566.591 313.886 567.15 309.774 567.879 305.788C571.09 288.474 572.813 271.037 572.378 253.429C570.485 175.815 538.183 114.397 474.215 70.0746C443.324 48.6659 408.928 35.076 372.576 26.2798C329.056 15.7461 284.823 12.3332 240.14 14.2103C235.253 14.412 230.397 15.1721 225.525 15.6375C223.492 15.8392 221.444 15.9478 219.614 14.7533C218.186 13.8225 217.007 12.5814 217.395 10.7973C217.628 9.69586 218.295 8.28413 219.195 7.81872C220.948 6.91893 222.949 6.37596 224.904 6.06569C249.542 2.1873 274.382 0.713512 296.599 -0.015625V-0.000111448Z" fill="white"/>
<path fill-rule="evenodd" clip-rule="evenodd" d="M272.458 55.6777C312.875 56.0966 352.019 62.7984 388.929 79.9564C428.43 98.3245 460.531 125.209 482.841 162.985C504.702 200 512.77 240.227 509.977 282.858C509.605 288.552 509.046 294.261 508.302 299.923C507.883 303.134 507.247 306.408 506.098 309.417C504.206 314.382 499.52 316.678 494.229 315.747C489.544 314.925 486.115 311.543 485.96 306.532C485.82 302.079 486.379 297.581 486.984 293.144C489.218 276.87 489.218 260.643 487.201 244.323C481.492 198.154 460.981 159.851 426.305 129.057C402.148 107.602 374.066 92.9568 343.641 82.6558C314.892 72.9133 285.289 67.437 254.988 65.6685C252.149 65.4978 249.294 65.3737 246.502 64.8617C244.81 64.5515 243.848 62.9536 243.709 61.2626C243.569 59.5716 244.267 57.8806 245.834 57.2136C247.665 56.4379 249.698 55.8018 251.653 55.7553C258.588 55.5846 265.523 55.6932 272.474 55.6932L272.458 55.6777Z" fill="white"/>
<path fill-rule="evenodd" clip-rule="evenodd" d="M420.969 242.275C421 249.318 420.302 255.369 417.416 260.953C416.392 262.924 414.686 263.994 412.436 263.73C410.76 263.529 409.318 262.613 408.65 261.015C407.719 258.766 406.82 256.47 406.215 254.112C405.315 250.559 404.446 246.96 403.965 243.33C400.846 220.075 389.303 201.226 373.416 184.658C365.472 176.374 356.768 168.927 347.025 162.892C324.373 148.852 300.557 137.466 274.353 131.648C272.367 131.214 270.319 130.95 268.395 130.345C265.788 129.538 263.927 126.684 264.78 124.806C265.664 122.867 267.185 121.549 269.558 121.704C269.962 121.735 270.381 121.657 270.784 121.704C315.591 126.792 355 143.593 387.193 175.737C400.334 188.846 410.683 203.926 416.811 221.627C419.216 228.592 421.233 235.651 420.969 242.275Z" fill="white"/>
<path fill-rule="evenodd" clip-rule="evenodd" d="M456.682 431.866C456.434 432.921 456.155 434.519 455.674 436.07C455.022 438.087 453.859 439.763 451.578 440.104C449.359 440.43 447.513 439.452 446.365 437.653C444.829 435.264 443.355 432.797 442.269 430.191C431.083 403.492 411.146 384.752 387.408 369.393C384.351 367.407 381.202 365.53 378.332 363.281C376.997 362.241 376.951 360.271 378.207 358.921C378.968 358.115 380.162 357.572 381.264 357.262C381.947 357.06 382.878 357.355 383.607 357.665C412.17 369.812 435.566 388.071 451.407 415.189C454.309 420.153 456.481 425.413 456.698 431.866H456.682Z" fill="white"/>
<path fill-rule="evenodd" clip-rule="evenodd" d="M162.223 154.64C162.145 156.92 161.478 158.363 160.004 159.278C157.786 160.659 155.877 159.356 154.745 157.789C152.123 154.19 149.671 150.435 147.53 146.526C138.361 129.833 126.15 115.995 110.139 105.57C107.796 104.05 105.733 102.049 103.731 100.063C102.94 99.2717 102.552 97.9375 103.297 96.6809C104.212 95.1296 105.578 94.4625 107.331 94.6797C108.122 94.7883 108.96 94.9744 109.627 95.3623C122.939 103.181 136.406 110.736 146.537 122.868C153.659 131.385 159.802 140.336 161.664 151.583C161.866 152.778 162.099 153.957 162.223 154.624V154.64Z" fill="white"/>
</g>
<defs>
<clipPath id="clip0_1168_3506">
<rect width="595" height="522" fill="white"/>
</clipPath>
</defs>
</svg>
