<svg width="101" height="159" viewBox="0 0 101 159" fill="none" xmlns="http://www.w3.org/2000/svg">
<g clip-path="url(#clip0_1218_664)">
<path d="M45.8604 98.0481C46.7827 106.993 46.9167 119.255 36.3401 120.871C28.5362 122.063 17.1665 117.02 11.8685 111.216C4.01396 102.605 11.4651 88.7865 16.6786 81.1466C22.8007 72.1718 26.4109 63.9643 29.3502 53.3443C31.0302 47.2722 34.601 48.8995 39.486 50.4387C43.8571 51.8138 48.1216 53.575 52.4464 55.0962C56.5568 56.5408 61.4109 55.7771 59.5657 61.4533C58.2134 65.6145 55.6349 69.1674 54.5488 73.4473C52.4086 81.8696 64.5424 114.191 47.3985 110.637C45.2684 110.197 44.8866 113.745 47.0003 114.183C58.5578 116.576 60.443 105.476 59.8348 96.252C59.3716 89.2042 57.5958 82.1103 57.7009 75.0391C57.8022 68.0912 65.2057 62.9963 63.4051 55.5313C63.2069 54.7175 62.7418 54.1774 61.9435 54.0267C53.3389 52.4223 45.5115 48.0446 37.0232 46.027C30.4634 44.4663 28.3124 45.1908 26.2411 51.9914C24.7243 56.9948 23.4731 61.9151 21.5408 66.7667C19.1826 72.6855 14.7557 77.5567 11.4603 82.8721C7.64065 89.0335 5.11954 96.0175 5.33392 103.444C5.7402 117.608 24.0521 124.539 35.1698 124.507C49.0367 124.469 50.3555 108.84 49.1875 97.5187C48.9521 95.2288 45.6275 95.7656 45.8633 98.0521L45.8604 98.0481Z" fill="white"/>
<path d="M47.0887 49.2539C49.9834 36.0675 54.6677 20.6641 63.0813 10.3071C64.5024 8.55615 61.8076 6.41755 60.4016 8.15269C51.5437 19.0582 46.7959 34.9983 43.755 48.8346C43.2606 51.0744 46.6032 51.4737 47.0916 49.2578L47.0887 49.2539Z" fill="white"/>
<path d="M61.3158 7.14476C57.1459 5.60778 52.2646 5.4873 48.0316 6.82492C44.7444 7.85809 40.2696 10.548 40.5279 14.8569C40.7807 19.0661 45.2463 20.0146 48.444 19.1858C52.6185 18.1025 56.4935 15.0642 59.8286 12.3004C61.5416 10.8837 59.4638 8.08056 57.7512 9.49384C55.6709 11.2177 53.5063 12.8036 51.1925 14.1477C50.1424 14.7572 42.9554 17.8352 43.9718 14.0877C45.537 8.32648 56.0936 8.99356 60.0463 10.4499C62.0883 11.2006 63.3644 7.89625 61.3162 7.14127L61.3158 7.14476Z" fill="white"/>
<path d="M60.8085 9.3737C57.3308 15.5714 47.815 34.3233 61.1842 35.5169C65.8658 35.9339 69.3106 30.2661 69.7856 25.976C70.4083 20.3711 68.4153 12.4855 63.1983 10.0199C61.2135 9.08553 59.9535 12.3954 61.9284 13.3286C65.8791 15.1879 66.5631 21.5138 66.4461 25.5488C66.3196 29.9363 60.5983 34.9262 57.9446 29.4575C55.4534 24.3206 61.1259 15.7345 63.4882 11.5281C64.5865 9.56998 61.9153 7.39901 60.8085 9.3737Z" fill="white"/>
<path d="M60.755 10.2785C58.1477 32.0785 63.6089 54.5376 62.6988 76.4255C62.6051 78.7126 65.9401 79.1498 66.0354 76.8487C66.9455 54.9608 61.4863 32.4843 64.0916 10.7018C64.3649 8.41621 61.0283 7.99296 60.755 10.2785Z" fill="white"/>
<path d="M56.2687 79.101C60.3227 79.0033 63.4177 79.7107 67.2884 78.5782C70.8255 77.5414 75.0647 74.7863 75.9149 80.6982C77.055 88.564 76.2963 96.3587 78.0341 104.265C80.0532 113.459 86.8963 123.491 82.7546 133.025C81.1126 136.803 68.2431 140.79 68.7775 133.837C69.0498 130.285 70.8365 126.731 71.5678 123.241C72.0396 120.995 68.6973 120.592 68.2312 122.818C66.3322 131.907 61.8312 140.847 74.3802 140.929C85.2866 141 88.4867 131.732 86.7629 121.419C85.4715 113.686 81.77 106.674 80.4015 98.9167C79.2153 92.1734 79.9843 85.3244 79.0092 78.5972C78.634 75.9818 76.9745 72.4465 73.9781 72.9648C71.9115 73.3217 69.9418 74.002 67.951 74.662C63.8042 76.0318 60.0111 75.4658 55.7637 75.5672C53.605 75.6187 54.1268 79.1511 56.2654 79.1006L56.2687 79.101Z" fill="white"/>
<path d="M62.6882 130.856C55.2999 129.088 41.5945 124.665 36.1557 133.185C32.8607 138.349 32.6534 144.462 37.0575 148.774C46.1682 157.697 75.7674 158.728 77.5081 141.565C77.742 139.274 74.4054 138.851 74.1715 141.141C72.7737 154.924 49.9679 151.802 42.0602 147.962C36.5351 145.277 36.3218 140.864 38.6999 135.598C42.109 128.055 56.9756 133.131 62.29 134.403C64.4028 134.908 64.7813 131.359 62.6882 130.856Z" fill="white"/>
<path d="M62.8398 95.1296C68.3141 95.7179 74.178 94.9408 79.0129 92.0066C80.4665 91.1228 79.4378 88.5483 77.963 89.4435C73.51 92.1468 68.2018 92.8953 63.1518 92.3502C61.4649 92.1716 61.1536 94.944 62.8402 95.1261L62.8398 95.1296Z" fill="white"/>
<path d="M24.6359 63.7294C28.3851 66.5535 32.6752 68.1163 36.9419 69.8283C38.528 70.461 39.5238 67.8745 37.9381 67.2383C33.894 65.6182 29.7828 64.1806 26.2237 61.5009C24.84 60.4588 23.2517 62.6908 24.6359 63.7294Z" fill="white"/>
<path d="M46.6002 72.863C49.9599 73.6146 53.2883 74.1995 56.7336 74.0989C58.4231 74.048 58.0147 71.2833 56.3388 71.3325C53.1533 71.4306 50.0118 70.781 46.9119 70.0872C45.253 69.7176 44.9545 72.4951 46.6002 72.863Z" fill="white"/>
<path d="M43.8999 116.318C42.6082 120.622 40.485 124.95 40.2053 129.517C40.0648 131.805 43.3999 132.242 43.5419 129.94C43.8049 125.7 45.8145 121.672 47.016 117.669C47.6705 115.485 44.5618 114.128 43.9032 116.319L43.8999 116.318Z" fill="white"/>
<path d="M33.1176 51.5001C32.1746 54.6239 31.3613 57.7181 30.9067 60.9675C30.8305 61.5273 31.1701 62.2671 31.7143 62.4281C37.4699 64.1274 43.1197 66.2057 48.9013 67.7915C54.1505 69.2285 55.0482 62.9228 56.3235 59.0029C56.5888 58.1806 56.1548 57.1564 55.261 57.0855C48.2447 56.5386 41.2544 53.6853 34.8341 50.7346C33.2709 50.0164 32.2841 52.6111 33.8378 53.3246C40.4615 56.3613 47.7022 59.2958 54.9493 59.8614C54.5951 59.2223 54.241 58.5831 53.8868 57.944C53.3327 59.6492 52.9004 61.3947 52.3167 63.0962C51.1668 66.4625 48.0149 64.6904 45.7001 63.9688C41.3631 62.6158 37.0615 61.1257 32.7073 59.8377C32.975 60.328 33.2468 60.8116 33.5149 61.2984C33.9345 58.3027 34.6792 55.4332 35.551 52.5587C36.0658 50.8484 33.6328 49.7864 33.1143 51.4997L33.1176 51.5001Z" fill="white"/>
<path d="M43.3559 124.299C44.6235 126.02 46.0964 127.809 46.9749 129.795C47.5783 131.148 49.5882 130.229 48.986 128.865C48.0217 126.695 46.4676 124.74 45.0779 122.863C44.2057 121.68 42.4834 123.121 43.3555 124.303L43.3559 124.299Z" fill="white"/>
<path d="M44.8522 118.335C47.275 121.978 49.1652 125.889 50.8116 129.985C51.3656 131.364 53.3763 130.438 52.8194 129.055C51.0999 124.78 49.1027 120.696 46.5713 116.894C45.7542 115.666 44.0347 117.11 44.8489 118.335L44.8522 118.335Z" fill="white"/>
<path d="M47.2316 113.845C51.8745 118.045 53.2302 125.086 55.3937 130.86C55.9158 132.256 57.9269 131.327 57.4015 129.93C55.0635 123.695 53.5664 116.52 48.5517 111.986C47.4704 111.007 46.156 112.874 47.2287 113.841L47.2316 113.845Z" fill="white"/>
<path d="M17.3876 87.663C17.3876 87.663 17.2235 87.9392 16.9102 88.3876C16.7372 88.5956 16.574 88.8932 16.4214 89.1851C16.2524 89.4749 16.0927 89.8013 15.9259 90.1904C15.239 91.6843 14.7645 93.7179 14.5414 95.8826C14.3282 98.0484 14.3048 100.302 14.3055 102.074C14.3106 102.977 14.3223 103.732 14.326 104.263C14.3382 104.805 14.3236 105.143 14.3236 105.143C14.3236 105.143 14.113 104.915 13.773 104.475C13.4502 104.031 13.0134 103.357 12.649 102.483C12.251 101.612 11.9294 100.535 11.7297 99.3493C11.6405 98.7509 11.554 98.128 11.5458 97.4903C11.501 96.8515 11.5685 96.1916 11.6052 95.5384C11.7623 94.2284 12.0915 92.9262 12.6191 91.7834C12.9051 91.222 13.1818 90.6841 13.5388 90.2307C13.8766 89.7713 14.231 89.3706 14.6158 89.0551C14.9538 88.7124 15.3447 88.4614 15.7023 88.2698C16.0364 88.0504 16.3357 87.9327 16.5887 87.8729C17.0916 87.7209 17.3945 87.6603 17.3945 87.6603L17.3876 87.663Z" fill="white"/>
<path d="M18.622 84.0114C18.622 84.0114 18.4357 83.4183 18.4635 82.7852C18.4334 82.1341 18.7395 81.4231 19.1981 80.8658C19.5754 80.3796 20.1948 80.0797 20.7096 79.9399C21.23 79.7796 21.8573 79.7353 21.8573 79.7353C21.8573 79.7353 22.124 80.2643 22.1092 80.9592C22.1209 81.3286 22.0578 81.7132 21.9287 82.0328C21.8014 82.3668 21.6113 82.6964 21.391 82.9691C20.9919 83.4419 20.3983 83.7203 19.7898 83.8942C19.2112 84.0684 18.6187 84.011 18.6187 84.011L18.622 84.0114Z" fill="white"/>
<path d="M41.897 141.736C41.897 141.736 42.1521 141.775 42.5695 141.881C42.9815 141.976 43.561 142.209 44.2034 142.414C44.5245 142.518 44.8681 142.629 45.2057 142.764C45.5376 142.919 45.9266 143.011 46.2926 143.16C46.6637 143.292 47.0323 143.477 47.4194 143.586C47.8052 143.706 48.1831 143.867 48.5666 144.007C48.9537 144.117 49.3378 144.222 49.7111 144.365C50.0861 144.522 50.4719 144.553 50.8377 144.674C51.2095 144.771 51.5656 144.918 51.9204 144.96C52.2723 145.026 52.6142 145.122 52.9368 145.212C53.5811 145.372 54.1425 145.44 54.5543 145.566C54.9643 145.678 55.2176 145.764 55.2176 145.764C55.2176 145.764 55.0258 145.93 54.6616 146.181C54.4786 146.299 54.2552 146.451 53.9863 146.594C53.7174 146.737 53.4123 146.935 53.0545 147.01C52.3515 147.225 51.4898 147.491 50.5535 147.443C50.0899 147.423 49.5877 147.479 49.1137 147.345C48.6316 147.252 48.1473 147.12 47.659 146.994C47.1973 146.808 46.7413 146.602 46.3 146.383C45.8494 146.188 45.4635 145.891 45.0842 145.624C44.7134 145.34 44.3486 145.092 44.0453 144.771C43.7331 144.469 43.4622 144.156 43.218 143.87C42.7176 143.318 42.4413 142.756 42.2114 142.374C41.9995 141.979 41.8945 141.729 41.8945 141.729L41.897 141.736Z" fill="white"/>
<path d="M63.9202 146.871C63.9202 146.871 63.607 147.407 63.1165 147.805C62.6475 148.248 61.8284 148.43 61.0627 148.404C60.3405 148.316 59.6636 148.032 59.1662 147.512C58.6695 147.046 58.4477 146.473 58.4477 146.473C58.4477 146.473 58.908 146.019 59.4261 145.731C59.9384 145.407 60.6405 145.199 61.2811 145.273C61.8906 145.297 62.4427 145.626 63.0013 146.015C63.538 146.362 63.9165 146.874 63.9165 146.874L63.9202 146.871Z" fill="white"/>
<path d="M79.7991 120.768C79.7991 120.768 79.9659 120.913 80.212 121.181C80.4588 121.442 80.7736 121.839 81.0638 122.396C81.669 123.467 82.1373 125.075 82.0257 126.78C81.9436 128.46 81.2194 130.257 80.0829 131.103C79.566 131.558 78.9709 131.702 78.6108 131.737C78.2186 131.734 78.0253 131.677 78.0253 131.677C78.0253 131.677 78.135 131.5 78.3227 131.191C78.4747 130.875 78.6346 130.488 78.7313 130.012C78.9194 129.078 79.0008 127.878 79.0768 126.579C79.1749 125.29 79.2279 123.9 79.4109 122.774C79.4785 122.23 79.5828 121.717 79.6502 121.354C79.7278 120.989 79.7988 120.771 79.7988 120.771L79.7991 120.768Z" fill="white"/>
<path d="M32.0578 37.9745C32.0578 37.9745 31.6314 38.0973 30.9015 38.2558C30.5659 38.429 30.2264 38.5486 29.8301 38.7884C29.4277 39.0238 29.0108 39.3282 28.5644 39.6889C28.1237 40.0574 27.676 40.4887 27.1772 40.9596C26.6786 41.4587 26.1543 41.9793 25.6104 42.5257C25.1273 43.0056 24.4967 43.6436 23.9032 44.1873C23.3659 44.7346 22.8246 45.2884 22.2767 45.8414C21.7559 46.4191 21.2381 47.0007 20.7284 47.5691C20.2935 48.1824 19.7467 48.725 19.3524 49.3328C18.9806 49.9471 18.453 50.4673 18.1554 51.0732C17.852 51.6714 17.4269 52.1975 17.1786 52.7496C16.9269 53.3013 16.6538 53.8078 16.4054 54.2715C16.2047 54.7553 16.0278 55.175 15.8825 55.5209C15.5767 56.2284 15.3597 56.6501 15.3597 56.6501C15.3597 56.6501 15.2488 56.2151 15.136 55.4121C15.0909 55.0137 14.9936 54.5168 14.9939 53.951C15.0102 53.3907 15.0396 52.7436 15.1183 52.0426C15.1621 51.3267 15.3931 50.6026 15.6017 49.812C15.7827 49.0003 16.1726 48.2539 16.524 47.4355C16.8849 46.6218 17.4061 45.8921 17.893 45.112C18.4219 44.3727 19.024 43.6922 19.6212 42.9969C20.2831 42.377 20.9536 41.6804 21.6103 41.1659C22.281 40.6462 22.8634 40.2001 23.6018 39.6996C24.9088 38.8467 26.2925 38.0213 27.6278 37.6283C27.9638 37.5401 28.2784 37.435 28.5875 37.3787C28.9099 37.3524 29.2122 37.3271 29.4973 37.3066C30.0553 37.2572 30.6073 37.4085 30.9736 37.4656C31.6665 37.7551 32.0574 37.978 32.0574 37.978L32.0578 37.9745Z" fill="white"/>
<path d="M21.4569 36.6322C21.4569 36.6322 21.2615 36.8019 20.9209 37.0205C20.7348 37.1065 20.5822 37.31 20.4552 37.4636C20.3337 37.5968 20.198 37.8272 20.0561 38.0249C19.9139 38.1943 19.8011 38.4877 19.6632 38.6789C19.5454 38.9575 19.4067 39.1557 19.2771 39.4505C18.9882 40.0081 18.6888 40.5997 18.3858 41.1944C17.7444 42.4323 16.9405 43.7239 16.1493 44.6952C15.7523 45.1789 15.3741 45.5837 15.0792 45.8681C14.7943 46.1538 14.5836 46.311 14.5836 46.311C14.5836 46.311 14.4742 46.0708 14.3536 45.6629C14.233 45.255 14.1148 44.6776 14.0653 43.9923C13.959 42.6276 14.2521 40.8468 15.0997 39.2248C15.5525 38.4227 16.0915 37.6529 16.8137 37.0583C17.1346 36.7489 17.5703 36.5141 17.9266 36.3046C18.3577 36.14 18.7133 35.9658 19.1258 35.9368C19.5112 35.8831 19.8575 35.8811 20.205 35.957C20.5389 36.0064 20.7845 36.1012 20.9331 36.2297C21.2667 36.4595 21.4565 36.6357 21.4565 36.6357L21.4569 36.6322Z" fill="white"/>
<path d="M78.6367 67.316C78.6589 67.3259 78.6213 67.1867 78.8699 67.0768C79.1215 66.9991 79.4763 67.129 79.7906 67.3527C80.4568 67.7909 81.1966 68.5816 81.9617 69.5912C82.3373 70.0986 82.7128 70.6662 83.0829 71.2826C83.4588 71.9351 83.7962 72.4872 84.1735 73.3945C84.4559 74.1094 84.7468 74.8077 84.9896 75.6096C85.2278 76.4215 85.4831 77.2603 85.6493 78.0913C85.7906 78.9369 85.9978 79.759 86.0486 80.6108C86.126 81.4624 86.2237 82.2812 86.1842 83.1074C86.148 83.934 86.175 84.7014 86.0302 85.4576C85.9026 86.2089 85.8107 86.9082 85.6198 87.5418C85.415 88.1808 85.1983 88.7475 85.0041 89.2322C84.8387 89.7276 84.5161 90.1111 84.3301 90.4342C83.9195 91.0682 83.6486 91.377 83.6486 91.377C83.6486 91.377 83.617 90.9167 83.612 90.191C83.5937 89.8208 83.6457 89.4171 83.5885 88.9182C83.5343 88.4233 83.4753 87.8817 83.4461 87.3121C83.3943 86.7361 83.2594 86.1 83.1888 85.4544C83.1448 84.8086 82.9404 84.1107 82.8498 83.4059C82.7625 82.7016 82.5517 81.971 82.4359 81.2242C82.316 80.4839 82.1178 79.7302 81.9667 78.9718C81.8364 78.2054 81.6241 77.4888 81.4948 76.7438C81.3355 75.9985 81.1351 75.2055 80.9955 74.4628C80.8853 73.9324 80.6631 73.1261 80.5033 72.5045C80.3346 71.8429 80.1756 71.2144 80.0246 70.6329C79.739 69.4719 79.4892 68.4959 79.2458 67.8779C79.1168 67.575 79.0086 67.3526 78.8854 67.2945C78.7703 67.2233 78.6294 67.3222 78.6412 67.306L78.6367 67.316Z" fill="white"/>
<path d="M86.3359 72.3926C86.3359 72.3926 86.5787 72.4234 86.9563 72.5279C87.3283 72.6529 87.8903 73.0708 88.3582 73.5864C88.8142 74.1182 89.2499 74.8313 89.5348 75.6138C89.8422 76.4026 90.0155 77.2593 90.0954 78.1183C90.2319 79.8369 89.8945 81.5378 89.3172 82.7379C89.0302 83.3381 88.7102 83.8174 88.4483 84.1344C88.1865 84.4513 87.9955 84.611 87.9955 84.611C87.9955 84.611 87.8648 84.3822 87.7063 84.0155C87.5384 83.644 87.3325 83.1369 87.1384 82.5534C86.7409 81.3818 86.4446 79.9012 86.3374 78.4551C86.2241 77.0047 86.277 75.6143 86.3568 74.4891C86.3554 74.2343 86.3899 73.9274 86.4003 73.7165C86.3934 73.5105 86.4401 73.2723 86.4067 73.0665C86.339 72.6618 86.3359 72.3926 86.3359 72.3926Z" fill="white"/>
</g>
<defs>
<clipPath id="clip0_1218_664">
<rect width="84.3976" height="148.165" fill="white" transform="matrix(0.992051 0.125841 -0.111573 0.993756 16.5312 0.957031)"/>
</clipPath>
</defs>
</svg>
