<svg width="157" height="142" viewBox="0 0 157 142" fill="none" xmlns="http://www.w3.org/2000/svg">
<g clip-path="url(#clip0_1054_16481)">
<path d="M75.8692 13.0493C48.195 17.5236 25.1973 43.3854 24.5913 73.4274C23.9761 104.083 45.2307 130.23 73.7187 132.951C97.5455 135.227 123.42 122.194 134.715 99.4259C148.584 71.4663 134.716 33.7294 109.699 19.2825C99.4557 13.3697 87.3406 11.6136 75.8728 13.0489C73.5438 13.341 73.9588 17.1802 76.2878 16.8881C109.597 12.7123 134.602 39.2014 135.888 73.7629C136.978 102.944 115.052 123.175 89.5347 128.265C60.055 134.146 35.4214 115.253 29.1904 84.413C22.7589 52.5837 47.1636 21.5968 76.2843 16.8885C78.5972 16.5142 78.1892 12.6741 75.8692 13.0493Z" fill="white"/>
<path d="M32.3089 53.9038C36.1309 53.7085 39.953 53.5132 43.7754 53.3217C46.5096 53.1828 46.7065 52.4741 48.1017 50.0355C52.424 42.485 56.7459 34.9308 61.0717 27.3799C61.4202 26.775 61.4965 26.1499 61.0952 25.5334C60.3799 24.4427 59.6678 23.3478 58.9521 22.2533C57.9046 20.6524 55.6288 22.468 56.6727 24.0694C57.1379 24.7775 57.5996 25.4861 58.0612 26.1947C59.2381 27.994 58.6309 25.8727 58.7031 25.7414C57.9557 27.0491 57.2078 28.3529 56.4604 29.6605C53.7389 34.4107 51.021 39.1604 48.3031 43.9102C47.2591 45.736 46.2114 47.5622 45.1674 49.388C44.0201 51.3908 45.6448 50.2094 44.2171 50.2843C40.1373 50.492 36.0575 50.6996 31.9813 50.9068C30.1455 51.001 30.481 54.0047 32.3062 53.9118L32.3089 53.9038Z" fill="white"/>
<path d="M34.7583 105.707C38.9839 103.753 43.4146 102.297 47.8222 100.895C48.2918 100.745 48.6152 100.209 48.696 99.7245C49.2204 96.6197 49.8068 93.5225 50.4157 90.4341C51.4543 85.1628 53.7009 79.7821 54.4669 74.5517C54.8654 71.8142 50.6327 65.2819 49.624 62.6091C48.2168 58.8796 46.9228 55.098 45.695 51.2969C45.0998 49.4533 42.4623 50.5864 43.0539 52.4304C44.4761 56.8312 46.0193 61.1867 47.6485 65.5049C48.2682 67.1428 51.9469 73.211 51.3344 74.8349C50.3626 77.4283 49.7578 80.2217 49.1135 82.9166C47.8694 88.1175 46.8967 93.3999 45.9813 98.6791C45.7906 99.7772 47.4554 97.868 45.9253 98.3609C44.7467 98.742 43.5732 99.1378 42.4001 99.5373C39.453 100.536 36.5239 101.601 33.6896 102.912C32.0101 103.687 33.0663 106.499 34.752 105.715L34.7583 105.707Z" fill="white"/>
<path d="M46.1512 100.398C49.7451 105.015 53.3351 109.63 56.9289 114.247C58.7929 116.643 60.6565 119.036 62.5205 121.432C63.3184 122.455 63.065 122.807 63.1398 121.735C62.9882 123.861 62.8264 125.992 62.5512 128.106C62.2994 130.038 65.1131 130.502 65.3653 128.574C65.5889 126.848 66.8605 122.267 65.6656 120.734C63.969 118.555 62.272 116.371 60.5754 114.192C56.5262 108.991 52.4806 103.79 48.4314 98.5894C47.2655 97.091 44.9813 98.8961 46.152 100.405L46.1512 100.398Z" fill="white"/>
<path d="M66.6347 123.353C75.0892 121.138 83.5672 119.009 92.0509 116.932C97.9893 115.476 104.463 121.566 110.395 123.55C112.131 124.129 113.29 121.364 111.543 120.782C108.477 119.756 105.512 118.458 102.6 117.016C98.0792 114.777 97.6535 112.503 93.0096 113.617C84.0867 115.759 75.1879 118.024 66.3103 120.352C64.5535 120.811 64.8575 123.822 66.6351 123.356L66.6347 123.353Z" fill="white"/>
<path d="M53.2105 77.7173C58.832 76.7247 64.4498 75.7325 70.0677 74.7403C72.4653 74.3174 74.863 73.8944 77.2566 73.4682C77.8145 73.3694 76.1375 72.6028 77.1369 73.6588C78.099 74.6696 79.0611 75.6804 80.0201 76.6954C85.1121 82.0556 90.2036 87.412 95.2921 92.7726C95.8849 93.3963 96.4781 94.0238 97.0744 94.6471C96.9607 94.5271 96.8474 92.8465 96.6982 95.0946C96.2743 101.492 95.5306 107.859 94.662 114.204C94.3995 116.137 97.2093 116.597 97.4761 114.671C98.3443 108.323 99.049 101.96 99.5123 95.5618C99.6339 93.8908 99.6724 93.1478 98.5513 91.9652C93.2319 86.3651 87.9129 80.7687 82.5935 75.1686C78.7073 71.0764 78.5391 70.1866 73.2424 71.1205C66.4591 72.3162 59.6726 73.5162 52.8896 74.7157C51.0854 75.0356 51.4032 78.0414 53.2145 77.7207L53.2105 77.7173Z" fill="white"/>
<path d="M100.179 94.1041C104.258 91.5326 108.348 88.983 112.513 86.5732C113.759 85.8511 123.97 79.6736 124.577 80.1005C127.937 82.4517 131.293 84.8033 134.649 87.1511C136.171 88.216 137.952 85.8564 136.418 84.7816C133.475 82.7199 128.989 77.8748 125.505 77.2983C122.302 76.7676 116.44 81.0562 113.653 82.5364C108.453 85.2982 103.462 88.5317 98.4696 91.6775C96.8963 92.669 98.6111 95.0834 100.178 94.0965L100.179 94.1041Z" fill="white"/>
<path d="M126.143 42.2912C124.157 46.1828 120.653 49.0281 118.328 52.6781C117.303 54.2835 119.526 56.173 120.556 54.5554C123.033 50.6728 126.63 47.6555 128.75 43.5066C129.626 41.7893 127.014 40.5899 126.146 42.287L126.143 42.2912Z" fill="white"/>
<path d="M78.6569 72.1934C81.757 66.5516 85.8096 61.5662 89.524 56.3811C90.8059 54.5913 92.0883 52.7402 93.1588 50.7926C93.5012 50.1656 92.0035 49.9584 93.91 50.3184C100.309 51.5295 106.705 52.741 113.101 53.9525C115.111 54.3343 117.117 54.7128 119.126 55.0946C117.851 54.8525 118.044 53.8765 118.511 55.8314C118.844 57.2136 119.174 58.6 119.504 59.9864C120.952 66.0556 122.396 72.1214 123.847 78.1902C124.295 80.0746 126.931 78.9227 126.488 77.0605C124.58 69.0586 122.671 61.0568 120.762 53.0549C120.644 52.5569 120.103 52.2099 119.662 52.1261C110.764 50.4399 101.867 48.7574 92.9688 47.0713C92.2893 46.9439 91.7705 47.3706 91.4488 47.9569C86.9684 56.108 80.5436 62.8176 76.0569 70.9772C75.1308 72.6623 77.7465 73.8575 78.6609 72.1967L78.6569 72.1934Z" fill="white"/>
<path d="M59.5881 26.5274C67.2481 27.4162 74.9117 28.3046 82.5718 29.1934C83.9055 29.348 86.5554 30.2597 87.7606 29.2251C91.6162 25.9123 95.471 22.5919 99.2307 19.1569C100.613 17.8941 98.9211 15.4616 97.5226 16.7378C93.9168 20.0316 90.2166 23.2184 86.5232 26.4005C85.8289 27.0017 87.556 26.7334 85.5662 26.5021C83.9738 26.318 82.3813 26.1338 80.7889 25.9497C73.8686 25.1464 66.9483 24.3432 60.028 23.54C58.2057 23.3266 57.7662 26.3178 59.5881 26.5274Z" fill="white"/>
<path d="M86.4693 28.1161C88.3271 34.9155 89.7788 41.8525 91.329 48.7354C91.7509 50.6078 94.5839 50.2847 94.156 48.3901C92.5417 41.2473 91.0358 34.0415 89.1068 26.9831C88.5952 25.114 85.9589 26.2584 86.4657 28.1166L86.4693 28.1161Z" fill="white"/>
<path d="M78.0491 71.8298L98.203 93.7211L125.287 78.7966L117.899 53.1276L94.51 48.3462L78.0491 71.8298Z" fill="white"/>
<path d="M64.6078 128.256L64.5668 121.686L96.0645 114.435L112.38 122.023C112.38 122.023 93.609 131.53 82.6772 131.167C71.7455 130.804 64.6113 128.256 64.6113 128.256L64.6078 128.256Z" fill="white"/>
<path d="M32.1428 52.4013C17.7034 75.944 34.2241 104.303 34.2241 104.303L47.288 99.4909L53.061 76.4024L44.373 51.8598L32.1393 52.4018L32.1428 52.4013Z" fill="white"/>
<path d="M60.9737 19.79C60.9737 19.79 90.5737 11.2939 98.3709 17.9453L89.3569 27.5988L59.8023 25.0317L60.9737 19.79Z" fill="white"/>
<path d="M108.962 113.812C108.962 113.812 109.237 113.587 109.729 113.244C109.993 113.097 110.226 112.816 110.522 112.593C110.805 112.378 111.115 112.019 111.465 111.728C112.134 111.057 112.882 110.289 113.665 109.413C114.451 108.533 115.293 107.592 116.134 106.652C117.833 104.758 119.627 102.852 121.188 101.575C122.708 100.261 123.964 99.6253 123.964 99.6253C123.964 99.6253 123.52 101.011 122.597 102.825C121.702 104.667 120.262 106.962 118.446 108.997C116.635 111.02 114.379 112.753 112.364 113.42C111.861 113.592 111.423 113.737 110.975 113.792C110.547 113.859 110.173 113.928 109.885 113.894C109.303 113.862 108.959 113.813 108.959 113.813L108.962 113.812Z" fill="white"/>
<path d="M126.648 95.4951C126.648 95.4951 126.219 95.0541 125.977 94.5213C125.833 94.252 125.731 93.97 125.787 93.5884C125.82 93.2286 125.926 92.8484 126.095 92.5104C126.412 91.982 126.943 91.5729 127.525 91.4904C128.072 91.3623 128.668 91.4464 128.668 91.4464C128.668 91.4464 128.959 92.0075 129.043 92.59C129.147 93.2124 129.115 93.7899 128.85 94.2278C128.764 94.4027 128.631 94.5375 128.428 94.6579C128.222 94.7481 127.985 94.9492 127.723 95.0921C127.24 95.3844 126.647 95.4913 126.647 95.4913L126.648 95.4951Z" fill="white"/>
<path d="M105.589 6.13473C105.589 6.13473 105.719 5.94286 106.081 5.69971C106.465 5.42332 107.087 5.21731 107.902 5.13307C109.531 4.95703 111.832 5.26886 114.443 5.99026C115.115 6.18354 115.725 6.32714 116.498 6.59219C117.182 6.82991 117.858 7.05716 118.597 7.36474C120.111 8.02506 121.654 8.78137 123.113 9.75831C124.572 10.7428 126.074 11.7909 127.427 13.0486C128.815 14.2713 130.118 15.6077 131.397 16.9508L131.866 17.4672L132.35 18.0506L133.217 19.1076C133.792 19.7985 134.364 20.4974 134.912 21.3064C136.081 22.8313 136.986 24.4533 137.872 25.9898C138.749 27.5427 139.47 29.1185 140.107 30.6203C140.725 32.1398 141.291 33.5778 141.667 34.9623C141.87 35.6451 142.067 36.2981 142.25 36.9222C142.39 37.559 142.524 38.1623 142.646 38.7288C142.906 39.8599 143.088 40.8474 143.174 41.6783C143.382 43.3321 143.454 44.2718 143.454 44.2718C143.454 44.2718 143.042 43.4157 142.395 41.9303C142.098 41.1787 141.644 40.3047 141.174 39.2911C140.715 38.2724 140.138 37.161 139.511 35.9524C138.918 34.732 138.143 33.4879 137.407 32.1359C136.626 30.8084 135.746 29.4548 134.847 28.0614C134.374 27.381 133.896 26.6897 133.41 25.9917C132.907 25.3303 132.396 24.6622 131.881 23.9907C131.408 23.3141 130.823 22.632 130.22 21.9483L129.332 20.9208L128.937 20.4641L128.478 19.9809C127.296 18.6642 126.098 17.3685 124.85 16.2128C123.615 15.0365 122.388 13.9088 121.127 12.9269C119.849 11.9547 118.602 11.0705 117.399 10.33C116.774 9.94351 116.074 9.62362 115.456 9.26311C114.921 8.94213 114.227 8.61759 113.667 8.3265C111.317 7.16764 109.327 6.29395 107.876 5.99299C107.164 5.8582 106.553 5.79896 106.187 5.90868C105.789 5.99545 105.595 6.15695 105.592 6.1343L105.589 6.13473Z" fill="white"/>
<path d="M146.333 52.234C146.333 52.234 146.531 52.4011 146.794 52.7017C147.064 53.0015 147.399 53.4387 147.719 53.9695C148.37 55.0298 148.877 56.4864 149.053 57.9796C149.211 59.5132 149.028 61.077 148.621 62.2473C148.418 62.8306 148.187 63.3178 147.986 63.6598C147.789 64.0013 147.63 64.1967 147.63 64.1967C147.63 64.1967 147.435 64.0179 147.174 63.7017C146.906 63.3863 146.577 62.9407 146.26 62.4019C145.625 61.3281 145.136 59.9 144.993 58.4411C144.824 56.947 144.993 55.4155 145.384 54.2357C145.576 53.6461 145.802 53.148 145.998 52.7951C146.187 52.4431 146.341 52.2369 146.341 52.2369L146.333 52.234Z" fill="white"/>
<path d="M21.9006 46.5255C21.9006 46.5255 21.6748 46.5339 21.4462 46.7493C21.1923 46.9639 20.9677 47.4159 20.7294 48.0072C20.2808 49.2172 19.8993 51.0806 19.4833 53.3231C19.2887 54.4522 19.0826 55.6746 18.8625 56.9675C18.6503 58.2327 18.4316 59.7052 18.1412 61.0794C17.829 62.5519 17.6946 63.8382 17.4771 65.322C17.2663 66.7668 17.131 68.2444 17.0533 69.7227C16.9282 71.1953 16.8691 72.6789 16.8786 74.1312C16.9094 75.5809 16.892 77.0173 17.0086 78.3954C17.1319 79.7687 17.2369 81.1061 17.4367 82.3554C17.5057 82.9934 17.6522 83.5836 17.7594 84.1749C17.8594 84.767 17.9644 85.3394 18.1155 85.8717C18.614 88.0522 19.3059 89.7922 19.7841 91.0533C20.3453 92.2508 20.6595 92.9927 20.6595 92.9927C20.6595 92.9927 20.0884 92.504 19.1135 91.5407C18.6896 91.0149 18.1122 90.4008 17.5756 89.5981C17.039 88.7954 16.4286 87.8755 15.932 86.7772C15.3842 85.7043 14.8812 84.4805 14.4818 83.1485C14.0507 81.8242 13.6801 80.3931 13.4422 78.8922C13.2079 77.3908 12.9742 75.8282 12.9386 74.2338C12.8812 72.6382 12.8897 71.0192 12.9855 69.4087C13.1176 67.8014 13.3148 66.1976 13.5888 64.638C13.8231 63.1101 14.2744 61.4599 14.67 60.1265C15.0727 58.6926 15.499 57.4434 15.9299 56.1362C16.3383 54.8547 16.7995 53.6624 17.2576 52.5737C18.1622 50.3901 19.1343 48.6305 20.0495 47.5433C20.4976 46.9952 20.9824 46.6529 21.344 46.5361C21.7277 46.4242 21.8947 46.5377 21.8998 46.5179L21.9006 46.5255Z" fill="white"/>
<path d="M12.0098 50.1137C12.0098 50.1137 12.0107 50.5879 11.9381 51.3808C11.8699 52.1809 11.7439 53.2788 11.5574 54.5829C11.1722 57.1773 10.5053 60.4946 9.87202 63.7237C9.73235 64.5287 9.55716 65.338 9.43717 66.1253C9.29982 66.9185 9.17068 67.6878 9.06832 68.4385C8.93755 69.1927 8.89586 69.9054 8.79174 70.6066C8.77123 71.2823 8.64732 71.9668 8.66523 72.5651C8.65868 73.1702 8.60038 73.7626 8.6507 74.2613C8.69433 74.7647 8.65737 75.255 8.73603 75.6164C8.83896 76.3688 8.87112 76.8659 8.87112 76.8659C8.87112 76.8659 8.5381 76.5815 7.99746 75.9743C7.70624 75.6771 7.45646 75.264 7.16532 74.7679C6.84619 74.279 6.59853 73.6858 6.33875 73.0138C6.05412 72.3447 5.92673 71.5991 5.72096 70.7943C5.61353 70.0003 5.45888 69.1357 5.44751 68.265C5.40965 67.3823 5.41591 66.475 5.50905 65.5724C5.55002 64.6533 5.73398 63.7587 5.87015 62.8547C6.57637 59.2687 7.97049 55.9543 9.35924 53.6886C10.0457 52.5491 10.7034 51.6426 11.1959 51.0393C11.6888 50.4398 12.0134 50.1133 12.0134 50.1133L12.0098 50.1137Z" fill="white"/>
<path d="M41.6847 110.728C42.0517 108.097 42.858 105.57 43.228 102.935C43.4501 101.329 41.1053 100.942 40.8832 102.549C40.5163 105.179 39.71 107.706 39.3395 110.337C39.1142 111.948 41.4587 112.331 41.6843 110.724L41.6847 110.728Z" fill="white"/>
<path d="M45.7823 101.001C45.215 106.471 43.7913 111.908 42.484 117.223C42.0963 118.797 44.4466 119.167 44.8288 117.61C46.1325 112.295 47.5563 106.858 48.1267 101.384C48.2943 99.7719 45.9526 99.3809 45.7819 100.997L45.7823 101.001Z" fill="white"/>
<path d="M49.6862 104.004C48.3743 109.577 47.5726 115.309 46.6992 120.977C46.4519 122.583 48.7963 122.966 49.0441 121.364C49.9143 115.7 50.7195 109.967 52.0314 104.395C52.404 102.816 50.0538 102.445 49.6866 104.008L49.6862 104.004Z" fill="white"/>
<path d="M122.478 35.8842C121.699 40.6266 120.92 45.3652 120.144 50.1072C119.882 51.7113 122.226 52.0905 122.489 50.494C123.268 45.7516 124.047 41.0129 124.823 36.2709C125.085 34.6669 122.741 34.2877 122.478 35.8842Z" fill="white"/>
<path d="M118.307 30.3748C117.329 37.4096 116.355 44.444 115.374 51.4793C115.153 53.0898 117.497 53.4728 117.719 51.866C118.697 44.8312 119.671 37.7968 120.652 30.7616C120.873 29.151 118.529 28.768 118.307 30.3748Z" fill="white"/>
<path d="M114.963 26.9846C113.336 35.1008 111.713 43.2167 110.086 51.3367C109.769 52.9322 112.112 53.3038 112.431 51.7235C114.058 43.6072 115.681 35.4914 117.308 27.3713C117.629 25.7754 115.282 25.4042 114.963 26.9846Z" fill="white"/>
</g>
<defs>
<clipPath id="clip0_1054_16481">
<rect width="143.934" height="124.087" fill="white" transform="matrix(0.992622 -0.121248 0.107488 0.994206 0 18.3154)"/>
</clipPath>
</defs>
</svg>
