<svg width="166" height="83" viewBox="0 0 166 83" fill="none" xmlns="http://www.w3.org/2000/svg">
<g clip-path="url(#clip0_1218_642)">
<path d="M159.522 13.8219C159.567 12.8493 159.123 11.7576 158.883 10.8854C157.345 6.87082 153.676 4.07218 149.755 3.23492C141.465 1.6557 132.798 5.75398 125.575 9.75211C113.841 16.5994 104.208 26.7122 94.457 36.4233C94.0639 36.6535 93.661 36.8854 93.3259 37.0687C92.871 37.3199 92.4089 37.5562 91.9432 37.7851C86.6081 39.2932 80.0741 40.0101 74.0726 39.3166C57.7397 37.8637 42.1787 30.4416 25.6522 30.9245C18.7947 31.1696 11.0651 32.4493 6.35616 38.2905C2.08084 43.6495 2.59527 51.7925 5.88198 57.5764C9.24934 63.4511 14.7903 66.9856 20.7762 69.2627C20.7393 69.5221 20.6934 69.7883 20.6503 70.0567C19.67 73.4742 19.6389 77.8866 23.5658 79.0028C25.2434 79.4322 27.0684 79.7093 28.7394 79.1212C31.0698 78.2803 32.477 75.8535 33.2062 73.4667C33.2683 73.1578 33.3879 72.8154 33.4967 72.4669C46.2109 74.2456 59.3975 72.0696 70.9682 66.1826C73.3467 64.9711 75.6161 63.5936 77.8159 62.1157C85.5008 60.462 93.1832 58.1263 100.258 54.5338C100.296 54.7301 100.323 54.9283 100.371 55.123C100.933 58.1443 103.067 60.434 105.263 60.1938C107.966 60.6672 111.071 60.7567 113.093 58.5268C115.068 56.0383 115.905 52.7671 116.064 49.4694C119.527 48.9159 122.937 48.0005 126.243 46.7638C126.334 47.402 126.617 48.0539 126.899 48.5351C127.856 50.1101 129.446 50.7433 131.018 50.6087C138.192 50.85 144.469 47.9544 143.645 39.3961C143.613 39.0921 143.578 38.7859 143.541 38.4827C143.609 38.4662 143.678 38.4441 143.743 38.4094C145.058 37.8668 146.333 37.2162 147.553 36.4627C153.272 32.8516 158.48 27.1414 160.018 20.0617C160.357 17.5527 160.145 15.492 159.522 13.8245L159.522 13.8219ZM26.3289 33.2816C43.9982 33.0872 60.5911 41.6266 78.2195 41.9376C82.2062 42.0121 86.2183 41.6798 90.1043 40.7072C87.2135 43.5018 84.2802 46.21 81.2548 48.7496C80.528 48.7976 79.7056 49.0615 79.0519 49.0122C62.3037 50.8461 44.8722 49.6628 27.886 45.1077C24.1593 44.1317 17.2636 41.9142 12.6519 40.0233C11.5175 39.5708 10.3956 39.0842 9.27337 38.5951C13.1731 34.9006 19.624 33.2909 26.3292 33.2842L26.3289 33.2816ZM26.6963 77.0965C25.7167 77.1224 24.9012 77.0411 24.231 76.8613C24.5946 76.7025 24.9305 76.4737 25.2039 76.1753C26.3387 75.0439 26.5892 73.3601 26.9142 71.8107C26.9499 71.6795 27.0161 71.4153 27.0659 71.2097C27.8976 71.4189 28.7275 71.6151 29.5498 71.7938C30.116 71.9109 30.6892 72.0082 31.258 72.1088C30.5362 74.1531 29.7066 77.1164 26.6959 77.0939L26.6963 77.0965ZM111.243 57.1022C110.455 57.7896 109.451 58.062 108.182 58.0691C108.217 58.0154 108.255 57.9717 108.292 57.915C110.343 54.7232 110.92 43.1871 107.178 40.294C109.524 39.5277 111.279 39.619 112.509 41.4741C114.703 44.9378 114.205 54.3172 111.242 57.0996L111.243 57.1022ZM129.211 42.9112C124.885 44.9698 121.768 45.9061 117.2 46.8395C116.852 46.953 116.453 46.9735 116.066 47.0215C116.024 46.1431 115.946 45.279 115.83 44.4395C115.828 44.4213 115.825 44.4057 115.823 44.39C119.612 43.5907 123.333 42.4293 126.925 40.916C127.717 40.5798 128.5 40.2107 129.277 39.8423C130.225 41.4774 130.096 42.4771 129.212 42.9138L129.211 42.9112ZM141.668 41.3251C141.447 44.6411 140.423 45.4075 138.264 46.8868C137.28 47.4306 136.25 47.7607 135.136 47.9742C137.361 44.5909 136.834 39.8575 135.834 36.058C135.355 34.4227 134.761 32.6279 133.479 31.5278C134.082 31.3002 134.543 31.1202 134.647 31.0977C137.395 30.1584 138.692 31.1625 138.955 31.5591C140.332 32.6326 141.634 38.4805 141.669 41.3303L141.668 41.3251ZM151.676 30.1984C149.348 32.5054 147.551 33.8208 145.127 35.1279C144.52 35.5161 143.808 35.7324 143.168 36.054C142.418 32.1173 140.896 28.7401 137.288 28.7309C134.663 28.6314 132.358 30.26 130.326 30.6863C130.29 30.6924 130.253 30.6984 130.22 30.7092C130.122 30.7253 130.022 30.7579 129.927 30.771C129.834 30.7863 129.763 30.8274 129.689 30.8663C128.697 31.2194 127.785 31.9088 127.158 32.7775C126.045 34.3345 125.701 36.3324 125.564 38.2454C125.55 38.4583 125.525 38.6944 125.512 38.9312C124.554 39.3267 123.588 39.6997 122.61 40.0452C120.442 40.886 118.019 41.385 115.283 42.1169C113.631 37.1455 109.557 36.5094 104.625 38.9667C104.616 38.9709 104.611 38.9769 104.602 38.9811C102.323 39.7816 101.58 42.7199 100.99 44.9824C100.394 47.2912 99.9332 49.7216 99.9954 52.1269C99.9323 52.156 99.8671 52.1881 99.8035 52.2306C94.4987 54.7654 88.154 57.0668 83.4563 58.4455C83.2154 58.5387 82.8668 58.6469 82.4553 58.7682C93.1245 50.4545 102.093 39.6436 111.951 30.2881C118.552 24.073 124.873 18.9761 132.463 15.2052C135.627 13.5812 138.721 12.6194 141.413 11.7427C142.417 11.1528 141.845 9.29031 140.652 9.54087C117.382 15.969 102.911 38.1033 85.0879 53.5767C73.2936 64.028 59.7046 70.1765 44.0134 70.6706C30.8394 70.8849 10.5097 67.2742 6.12741 52.2914C5.93354 51.5289 5.79413 50.7974 5.6902 50.0867C11.9018 60.3413 30.2717 66.4221 39.9306 66.4233C39.3184 66.4525 40.52 66.4086 40.8071 66.4092C41.5148 66.3162 41.8742 65.3263 41.4028 64.7483C40.8409 64.1319 39.9033 64.3588 39.1752 64.1592C31.2839 63.3086 24.6678 61.4502 17.4375 57.4056C13.0818 55.0298 6.8912 50.6535 5.61492 45.7318C5.88753 43.6364 6.63936 41.8485 7.74393 40.3222C29.9056 50.2479 54.5124 54.2291 78.3744 51.0865C73.1407 55.1827 67.5817 58.6927 61.4243 61.1658C57.1745 62.8758 53.5387 63.8871 48.6107 64.5093C47.2073 64.7945 45.5522 64.468 44.746 64.9452C44.1154 65.4626 44.4081 66.6967 45.2437 66.7613C78.9428 66.6301 98.6006 29.5663 123.943 13.5092C131.888 8.62919 141.677 3.75367 149.998 5.74904C151.739 6.11469 153.836 7.55454 155.293 9.26011C152.45 7.89279 148.703 7.76798 144.973 8.56024C143.527 8.80981 143.866 11.1588 145.32 10.9345C160.556 7.76676 161.11 20.7718 151.669 30.2022L151.676 30.1984Z" fill="white"/>
<path d="M154.037 15.0629C153.104 13.852 151.377 15.3532 152.294 16.5773C153.183 18.1823 153.463 20.8289 151.304 23.116C151.316 23.0793 150.464 23.908 150.547 24.2196C150.449 25.0009 151.256 25.6382 151.925 25.2957C155.341 23.5047 156.145 18.2795 154.037 15.0603L154.037 15.0629Z" fill="white"/>
<path d="M147.838 26.7844C147.103 27.5751 146.788 29.0909 148.124 29.3554C148.653 29.42 149.125 29.0327 149.396 28.58C149.665 28.2157 149.949 27.8008 149.857 27.3094C149.742 26.2833 148.382 25.9293 147.838 26.7844Z" fill="white"/>
<path d="M24.8625 35.4177C22.6005 35.4128 20.3522 36.2348 18.5605 37.704C18.3343 37.8987 18.1872 38.1896 18.1547 38.4963C18.0131 39.5248 19.2446 40.2492 19.9835 39.5672C21.7306 38.1854 23.7652 37.54 26.2064 37.9178C26.8134 37.9722 27.5792 38.1576 27.9938 37.5452C28.907 35.632 26.0482 35.3684 24.8645 35.4147L24.8625 35.4177Z" fill="white"/>
</g>
<defs>
<clipPath id="clip0_1218_642">
<rect width="159.952" height="56.5092" fill="white" transform="matrix(0.986625 -0.163008 0.144696 0.989476 0 26.6885)"/>
</clipPath>
</defs>
</svg>
