<svg width="139" height="102" viewBox="0 0 139 102" fill="none" xmlns="http://www.w3.org/2000/svg">
<g clip-path="url(#clip0_1054_16439)">
<path d="M84.5625 51.0826C84.1603 51.8809 85.0829 52.2805 85.7439 52.7604C86.0254 52.9758 91.6415 54.3213 98.2061 55.7513C98.2061 55.7513 109.61 58.6753 110.149 58.3631C110.149 58.3631 111.029 57.5207 110.487 56.8115C109.945 56.1023 108.857 55.648 108.857 55.648L98.2096 53.0803C85.2588 50.4142 85.3338 49.5928 84.56 51.0963L84.5625 51.0826Z" fill="white"/>
<path d="M66.4328 85.5586C65.9021 86.4724 66.1121 87.7973 66.8944 88.3453C68.2888 89.3486 70.379 88.6186 70.6732 87.0291C71.0893 84.7818 67.6045 83.569 66.4328 85.5586Z" fill="white"/>
<path d="M32.3227 36.9767C33.5483 38.339 35.216 38.0466 36.0177 36.3229C36.5972 35.0657 36.5593 32.99 35.9246 32.2642C35.252 31.4984 33.7772 31.238 33.0446 31.7741C31.672 32.7532 31.2456 35.7896 32.3227 36.9767Z" fill="white"/>
<path d="M63.8216 47.6099C63.5571 47.7746 62.9127 48.2903 62.4032 48.7576C61.2461 49.8069 60.9993 50.7023 61.6493 51.5174C62.5426 52.6225 62.9301 52.474 66.5808 49.6218C68.559 48.0747 68.9968 47.3628 68.68 46.206C68.4507 45.3546 67.8607 44.9442 65.3882 43.8627L63.422 43.0115L62.7597 40.9503C61.6238 37.4126 60.7339 36.2891 59.4121 36.7205C59.182 36.7967 57.9922 37.9253 56.77 39.2288L54.5396 41.6032L51.8559 41.7593C48.7256 41.9463 48.1358 42.1673 47.9295 43.2816C47.7709 44.138 48.1179 44.9375 49.8788 47.8215L50.8793 49.4656L49.8408 52.0128C48.7318 54.7461 48.6349 55.3668 49.2141 56.2244C49.7567 57.0362 50.8927 57.0251 53.8843 56.1777L56.4779 55.4384L58.2717 57.1719C60.2115 59.0412 60.9051 59.3775 61.8093 58.8684C62.2502 58.6258 62.3931 58.34 62.6788 57.1372C62.8704 56.345 62.9818 55.3544 62.9338 54.9331C62.7686 53.4924 61.245 53.0207 60.3634 54.1372C60.1995 54.342 60.046 54.5395 60.0218 54.5727C59.996 54.6151 59.385 54.1238 58.6662 53.4857C57.9561 52.8493 57.1163 52.2815 56.8131 52.2181C56.5099 52.1546 55.4904 52.3145 54.5422 52.5753L52.8257 53.0484L53.5118 51.3841C54.3767 49.2884 54.3185 48.9223 52.7877 46.5456L51.6761 44.8209L53.5475 44.6288C54.6018 44.5241 55.666 44.2684 55.984 44.0575C56.2917 43.8541 57.1845 43.0173 57.9562 42.203C58.7279 41.3888 59.4238 40.7404 59.5105 40.7585C59.5971 40.7767 59.8803 41.6776 60.164 42.77C60.7421 45.0432 61.22 45.6214 63.2052 46.4671C63.8554 46.7465 64.3775 47.0375 64.3621 47.1204C64.3468 47.2032 64.1102 47.412 63.8457 47.5767L63.8216 47.6099Z" fill="white"/>
<path d="M28.3792 56.6523C30.2831 58.7496 33.0192 56.6771 32.4153 53.5855C31.9792 51.2984 29.6592 50.7971 28.4577 52.7257C27.6259 54.0424 27.6048 55.7851 28.3764 56.6678L28.3792 56.6523Z" fill="white"/>
<path d="M103.172 64.7064C98.41 63.8101 98.0284 63.773 97.3342 64.2682C96.0665 65.1845 96.6318 65.8719 97.9615 66.7905C98.9452 67.4802 106.922 69.0205 108.122 68.7591C109.294 68.506 109.406 67.6329 109.406 67.6329C109.412 66.0827 108.697 65.7481 103.172 64.7064Z" fill="white"/>
<path d="M83.3074 74.5196C83.9908 74.9844 89.0405 75.5679 89.0405 75.5679C92.3507 76.1321 98.0201 77.1898 101.64 77.89C109.045 79.3391 109.194 78.7342 109.35 77.89C109.549 76.8182 109.038 76.1933 107.666 75.6501C107.077 75.4274 106.358 75.1203 106.048 74.9844C105.246 74.6173 86.8675 71.7555 84.7543 71.6693C82.0175 71.5524 81.219 71.6688 82.4305 73.5875C82.4305 73.5875 82.624 74.0548 83.3074 74.5196Z" fill="white"/>
<path d="M97.1694 47.8768C101.323 48.8025 104.851 49.6399 104.993 49.7408C105.135 49.8416 106.522 50.1602 108.064 50.44C110.355 50.8625 110.997 50.8686 111.573 50.5053C111.573 50.5053 112.001 50.4403 111.624 49.5716C111.247 48.703 110.426 48.5927 110.426 48.5927L100.064 46.3399L89.7013 44.0872L88.824 43.9792C88.824 43.9792 87.9375 44.0975 87.9476 44.9107C87.9586 46.8765 88.8851 46.0445 97.1694 47.8768Z" fill="white"/>
<path d="M87.7652 63.6828C91.9095 64.8768 92.0152 64.8847 92.8364 64.6438C94.5638 64.1372 94.2203 63.7053 92.849 62.6501C92.0148 62.0204 85.471 60.6232 84.6164 60.8998C84.6164 60.8998 84.065 60.8997 84.1848 61.4683C84.3046 62.0369 84.8279 62.8407 87.7781 63.6855L87.7652 63.6828Z" fill="white"/>
<path d="M34.2493 26.0804C34.9256 27.1515 36.4209 27.4643 37.3415 26.7272C38.3664 25.9157 38.6137 24.1722 37.8448 23.1939C37.0031 22.1203 36.1496 22.0059 35.0029 22.8239C33.8388 23.6544 33.5351 24.9693 34.2464 26.0958L34.2493 26.0804Z" fill="white"/>
<path d="M28.0077 75.5074C28.5989 75.2464 29.4196 74.0717 29.5624 73.3001C29.7738 72.1582 28.7738 70.5545 27.7286 70.3359C25.7396 69.9199 24.3506 72.21 25.3403 74.2763C25.8424 75.311 27.1064 75.896 27.9932 75.5044L28.0077 75.5074Z" fill="white"/>
<path d="M27.5919 62.0496C26.4973 62.8305 26.0005 65.5957 26.7063 66.8333C27.45 68.1108 28.8898 68.3158 29.9954 67.3128C30.7016 66.6751 30.8974 66.1872 30.9953 64.9253C31.1968 62.3708 29.3322 60.7947 27.5774 62.0466L27.5919 62.0496Z" fill="white"/>
<path d="M33.0963 41.3582C32.2685 41.105 31.758 41.1745 31.1935 41.6174C30.186 42.4165 29.7832 44.5923 30.4191 45.7191C31.3174 47.3015 33.4092 47.162 34.3472 45.4347C34.8033 44.6004 34.8542 44.1623 34.5782 43.0467C34.2905 41.9126 34.043 41.6204 33.0991 41.3428L33.0963 41.3582Z" fill="white"/>
<path d="M36.6789 14.7413C35.3411 15.6957 35.3279 18.1293 36.6654 19.0502C38.0959 20.0386 39.7041 19.253 40.0498 17.3858C40.4583 15.1791 38.3788 13.542 36.6935 14.7443L36.6789 14.7413Z" fill="white"/>
<path d="M18.418 5.54492C18.418 5.54492 126.798 25.7709 133.818 28.6393C134.082 28.7474 134.193 28.9864 134.23 29.2719C135.003 35.2002 134.127 50.3302 132.415 52.1491C130.662 54.0133 124.348 53.8269 123.646 60.5379C123.199 64.8189 124.393 67.3046 125.771 68.6241C126.854 69.6607 127.987 70.971 127.902 72.4746C127.553 78.6152 126.425 93.5481 123.646 95.025C120.139 96.8892 78.9243 88.5004 78.9243 88.5004" stroke="white" stroke-width="2.25" stroke-linecap="round"/>
<path d="M61.3841 85.704C61.3841 85.704 9.95326 75.4539 4.79134 73.7607C4.49139 73.6623 4.30771 73.4457 4.23016 73.1372C3.18438 68.9787 7.57419 53.4557 8.57199 50.0262C8.70322 49.5751 8.92968 49.166 9.28627 48.8635C11.9793 46.5783 16.2236 46.5566 17.539 40.9639C18.8286 35.4808 15.5249 33.7776 12.2585 29.919C11.6957 29.2542 11.5034 28.3553 11.6823 27.4999L14.9083 12.0693" stroke="white" stroke-width="2.25" stroke-linecap="round"/>
</g>
<defs>
<clipPath id="clip0_1054_16439">
<rect width="127.86" height="75.5454" fill="white" transform="matrix(0.978819 0.204728 -0.182034 0.983292 13.75 0.884766)"/>
</clipPath>
</defs>
</svg>
