<svg width="138" height="83" viewBox="0 0 138 83" fill="none" xmlns="http://www.w3.org/2000/svg">
<g clip-path="url(#clip0_792_19453)">
<path d="M128.235 23.3912C127.048 20.053 125.176 17.0307 122.499 14.3911C120.753 12.6705 118.798 11.1685 116.565 9.95466C113.986 8.55227 111.156 7.63223 108.197 7.07662C102.778 6.05912 97.3375 5.9994 91.8879 6.99278C89.376 7.45068 87.1013 8.28118 85.112 9.7088C84.27 10.313 83.3341 10.8182 82.4401 11.3692C81.9128 11.097 81.4458 10.8461 80.9692 10.6116C79.2151 9.74871 77.3793 9.14562 75.3166 9.14261C73.3953 9.13989 71.4838 9.23642 69.6098 9.58696C66.0867 10.246 62.7087 11.2989 59.4359 12.6001C56.5887 13.732 53.9615 15.1916 51.4613 16.8147C49.6159 18.0126 47.812 19.2608 46.2689 20.7659C45.4106 21.6033 44.6438 22.4892 44.065 23.4931C43.633 24.2427 43.3806 25.0161 43.6157 25.8618C43.644 25.9635 43.6264 26.0749 43.632 26.246C43.093 26.1939 42.6041 26.1536 42.1169 26.0981C40.4879 25.9126 38.9308 26.103 37.4561 26.7482C36.9415 26.9733 36.4306 27.206 35.9058 27.4114C33.2525 28.4498 30.6592 29.5806 28.1659 30.8925C24.3826 32.8838 20.864 35.1435 17.8657 37.9922C14.8904 40.8193 12.6913 44.0248 11.1964 47.6275C9.26248 52.288 8.95577 57.029 10.0251 61.8618C10.62 64.5494 11.8889 67.0136 13.4586 69.3678C14.7646 71.326 16.5231 72.9317 18.6372 74.2488C20.3318 75.3046 22.1861 76.0876 24.1443 76.7031C28.7756 78.1585 33.4916 78.5536 38.2796 77.4298C40.6792 76.8667 43.0743 76.2387 45.3838 75.4475C49.6232 73.9956 53.8214 72.448 57.9931 70.8546C63.5581 68.7289 69.1522 66.6718 74.845 64.8131C80.1678 63.0754 85.5113 61.3917 90.8983 59.8102C98.4381 57.597 105.715 54.8697 112.588 51.3681C115.813 49.7253 118.77 47.7723 121.44 45.5063C123.512 43.7478 125.248 41.758 126.588 39.5169C128.478 36.3571 129.22 32.9815 129.211 29.4457C129.207 27.3828 128.932 25.3537 128.235 23.3912ZM88.0739 11.7139C90.1624 14.3073 91.6246 17.0618 91.9907 20.2155C90.1702 17.6988 87.9654 15.4795 85.3659 13.434C86.2784 12.8546 87.1296 12.3139 88.0739 11.7139ZM55.2545 30.59C53.9194 29.866 52.6599 29.0724 51.2889 28.4692C49.8992 27.8579 48.3989 27.4352 46.8839 26.9078C46.7552 26.4914 46.6216 26.0612 46.4873 25.627C49.2384 25.4475 54.053 28.1718 55.2545 30.59ZM125.611 29.9602C125.596 35.1912 123.232 39.5355 119.03 43.1796C116.611 45.2774 113.898 47.0661 110.952 48.5763C104.108 52.0832 96.8494 54.7934 89.325 56.9793C83.856 58.5679 78.4463 60.2963 73.051 62.0614C67.629 63.8351 62.299 65.7957 56.9969 67.822C52.6091 69.4986 48.1833 71.1055 43.732 72.6512C41.7424 73.3418 39.6667 73.8633 37.5983 74.3626C33.4106 75.373 29.2937 75.0231 25.2479 73.7274C23.6151 73.2044 22.0668 72.5491 20.6575 71.6591C19.0494 70.6437 17.6897 69.4256 16.6737 67.9352C15.2108 65.7885 14.0354 63.5361 13.5152 61.0677C12.626 56.8485 12.9007 52.7109 14.6006 48.6455C16.055 45.1669 18.2558 42.139 21.2222 39.4765C23.836 37.13 26.8479 35.2736 30.0251 33.574C33.4969 31.7171 37.2103 30.2974 40.9476 28.9126C41.454 28.7252 41.922 28.7063 42.462 28.8503C44.5433 29.4043 46.6184 29.9621 48.5899 30.78C51.6891 32.0657 54.3701 33.8034 56.4901 36.1665C56.8114 36.5247 57.1248 36.8996 57.5102 37.2007C57.9337 37.5313 58.4029 37.8452 58.912 38.0605C59.9721 38.5083 61.0389 37.9173 61.0585 36.8944C61.0655 36.5351 60.9853 36.1695 60.8987 35.8152C60.3734 33.6671 59.5107 31.6242 58.2913 29.6982C57.3698 28.2426 56.1186 27.0276 54.6231 26.0007C52.7798 24.7347 50.6764 24.0505 48.3294 23.9278C48.0497 23.9133 47.7702 23.891 47.318 23.8606C47.6049 23.6101 47.7561 23.4535 47.9343 23.3258C50.3582 21.5885 52.7463 19.815 55.3398 18.2611C58.2931 16.4912 61.4589 15.106 64.8361 14.0622C67.436 13.2586 70.0602 12.5566 72.8272 12.346C74.2955 12.2342 75.7604 12.234 77.2136 12.4755C77.4669 12.5177 77.7344 12.569 77.955 12.6779C82.2522 14.7978 85.7288 17.669 88.3884 21.2832C88.445 21.3599 88.4926 21.4414 88.5537 21.5149C89.7485 22.9539 90.5147 24.5626 91.0895 26.2532C91.2131 26.6162 91.4027 26.9872 91.6674 27.2842C92.3831 28.0872 93.5529 28.0687 94.2897 27.283C94.861 26.6739 95.3209 26.0037 95.4332 25.2179C95.568 24.2744 95.7204 23.3198 95.6908 22.3738C95.5954 19.3231 94.7488 16.4395 92.8751 13.8228C92.1663 12.8331 91.3341 11.9297 90.2825 11.1905C90.1456 11.0945 90.027 10.979 89.806 10.7946C90.2166 10.6588 90.5383 10.5262 90.876 10.4447C94.8878 9.47815 98.9662 9.21402 103.109 9.55163C105.838 9.77415 108.482 10.2604 111.061 11.0932C114.415 12.176 117.175 13.9517 119.555 16.2249C121.956 18.5181 123.638 21.171 124.719 24.1065C125.418 26.0035 125.617 27.9666 125.611 29.9602Z" fill="white"/>
<path d="M117.86 30.9822C117.805 31.0576 117.777 31.1482 117.744 31.2342C117.261 32.521 116.494 33.6899 115.623 34.7933C113.876 37.0071 111.65 38.8457 109.223 40.481C106.575 42.265 103.822 43.9212 100.913 45.3893C98.301 46.7077 95.5495 47.7649 92.8458 48.9165C88.9127 50.5915 84.831 51.9634 80.7797 53.3942C76.5335 54.8937 72.2125 56.2352 67.981 57.7638C64.0389 59.1881 60.1699 60.7724 56.5613 62.7738C53.5845 64.4245 50.6602 66.1466 47.7126 67.8374C47.7086 67.8525 47.7051 67.8675 47.7012 67.8827C47.8416 67.835 47.9847 67.7926 48.1218 67.7387C49.7926 67.0852 51.4426 66.388 53.1382 65.7868C54.9799 65.1338 56.8793 64.6035 58.7254 63.9599C62.3228 62.7055 65.8768 61.3552 69.4929 60.1442C73.7697 58.7119 78.1163 57.4357 82.3906 55.9974C87.0796 54.4194 91.7088 52.7218 96.2182 50.7672C101.236 48.5926 105.989 46.0955 110.29 42.9686C112.65 41.253 114.769 39.3464 116.478 37.1058C117.618 35.6116 118.183 33.9456 118.571 32.2231C118.656 31.8416 118.553 31.4107 118.448 31.0206C118.376 30.7471 118.033 30.7426 117.86 30.9822Z" fill="white"/>
<path d="M33.9943 57.268C33.5607 57.6826 33.3121 58.1863 33.2113 58.7322C33.0628 59.5379 33.7539 60.1051 34.7754 59.9464C35.35 59.8028 35.9444 59.5236 36.3925 59.055C36.9939 58.4258 36.9508 57.5787 36.3161 57.0872C35.6537 56.5751 34.6434 56.6471 33.9943 57.268Z" fill="white"/>
<path d="M106.556 20.5912C107.132 20.5197 107.495 20.0747 107.398 19.5579C107.296 19.0101 106.722 18.6269 106.117 18.7027C105.539 18.7749 105.179 19.2153 105.273 19.7351C105.371 20.2782 105.953 20.666 106.556 20.5912Z" fill="white"/>
<path d="M35.4135 49.0847C34.7862 49.1514 34.3347 49.6182 34.4171 50.1148C34.4943 50.5804 34.989 50.8861 35.5659 50.8253C36.203 50.7579 36.6933 50.2545 36.6197 49.7429C36.5629 49.3448 35.9759 49.0245 35.4135 49.0847Z" fill="white"/>
<path d="M111.82 19.6927C112.352 19.6324 112.704 19.232 112.622 18.7781C112.54 18.3171 112.028 17.9881 111.487 18.0482C110.952 18.1073 110.6 18.5075 110.681 18.9625C110.764 19.4225 111.28 19.7537 111.82 19.6927Z" fill="white"/>
<path d="M117.617 27.476C117.176 27.5481 116.858 27.9511 116.94 28.3351C117.025 28.7288 117.466 28.9885 117.926 28.9149C118.394 28.8401 118.683 28.4741 118.595 28.067C118.509 27.6688 118.069 27.4025 117.617 27.476Z" fill="white"/>
<path d="M110.442 26.1308C110.768 26.0764 110.97 25.8192 110.908 25.5378C110.847 25.2607 110.543 25.0853 110.219 25.1403C109.904 25.1936 109.684 25.4694 109.744 25.7362C109.804 26.0052 110.121 26.1846 110.442 26.1308Z" fill="white"/>
<path d="M39.2557 45.5082C39.2434 45.7381 39.4731 45.8851 39.7308 45.8104C39.9087 45.7587 40.0412 45.59 40.3383 45.3633C39.9691 45.2463 39.7632 45.1178 39.5929 45.1467C39.4522 45.1705 39.2624 45.3763 39.2557 45.5082Z" fill="white"/>
</g>
<defs>
<clipPath id="clip0_792_19453">
<rect width="126.784" height="65.6598" fill="white" transform="matrix(0.989583 -0.143964 0.189989 0.981786 0 18.252)"/>
</clipPath>
</defs>
</svg>
