<svg width="103" height="83" viewBox="0 0 103 83" fill="none" xmlns="http://www.w3.org/2000/svg">
<g clip-path="url(#clip0_792_19471)">
<path d="M91.3066 46.042C93.3409 44.7545 95.0528 43.218 96.1498 41.2226C96.9988 39.6776 97.6028 38.0752 97.8348 36.3592C98.1626 33.9351 97.9303 31.5691 97.0012 29.2713C95.8599 26.4492 94.065 23.9556 91.7702 21.7299C91.464 21.4329 91.1344 21.1497 90.7839 20.8931C90.0662 20.368 89.3253 20.3184 88.5019 20.7064C88.4315 20.7395 88.3553 20.7688 88.2966 20.814C88.0214 21.0253 87.7598 20.9717 87.4802 20.8124C86.7726 20.4091 86.127 19.9448 85.594 19.3731C85.3483 19.1094 85.1361 18.822 84.904 18.5396C85.0158 18.4607 85.077 18.4172 85.1388 18.3741C85.9671 17.7956 85.9587 17.1616 85.1101 16.6378C82.7248 15.1648 80.2394 13.8298 77.6146 12.7048C74.9341 11.556 72.117 10.7007 69.2634 9.93651C68.2182 9.65674 67.4404 9.87672 66.7917 10.6406C66.5914 10.8762 66.4001 11.1176 66.1883 11.3765C65.2346 11.1498 64.518 10.7257 63.8867 10.1744C63.4355 9.78017 62.9761 9.39274 62.5101 9.01178C62.2306 8.78347 61.9201 8.60374 61.5128 8.57622C59.8163 8.46169 58.123 8.30697 56.4244 8.22455C51.7935 7.99988 47.1799 8.15176 42.5867 8.74881C41.6809 8.86642 41.1339 9.24987 40.8574 9.98765C40.7404 10.2996 40.5598 10.5934 40.4206 10.8997C40.3203 11.1207 40.1387 11.226 39.8736 11.2367C39.6743 11.2446 39.466 11.2889 39.2777 11.2531C38.4194 11.0899 37.5623 10.9189 36.7135 10.7222C35.8022 10.5113 34.8989 10.3226 33.9373 10.3697C32.9601 10.4176 32.063 10.7153 31.1353 10.9256C29.1104 11.3854 27.1945 12.0893 25.3147 12.8711C23.1976 13.7518 21.1974 14.8091 19.2541 15.9486C17.9613 16.7065 16.6586 17.4526 15.3767 18.2243C13.8414 19.1487 12.6182 20.3081 11.7146 21.7464C10.876 23.0803 10.3335 24.4811 10.1515 25.9808C10.0811 26.5604 10.063 27.174 10.2047 27.7372C10.4719 28.802 10.8682 29.8424 11.2205 30.8907C11.2814 31.0717 11.3784 31.2158 11.2358 31.4234C10.5084 32.4814 9.79395 33.5492 9.29429 34.7064C9.05712 35.2558 8.8202 35.8241 8.7349 36.4009C8.49161 38.0424 9.17703 39.357 10.7655 40.3003C10.8394 40.3443 10.906 40.3973 10.9646 40.4381C10.9381 40.494 10.9353 40.5136 10.9225 40.5248C10.867 40.5743 10.8099 40.6226 10.7515 40.6694C9.1435 41.9565 7.80364 43.4178 6.98593 45.1923C6.60775 46.0127 6.35537 46.8762 6.00257 47.7063C5.1868 49.6269 5.29689 51.5707 5.84877 53.5036C6.55991 55.9938 7.8635 58.2521 9.60226 60.3266C10.4889 61.3846 11.5405 62.3125 12.5705 63.2609C14.4408 64.9829 16.5869 66.4024 18.9452 67.5672C22.4047 69.2756 26.1142 70.4886 29.8873 71.5617C33.627 72.6255 37.4849 73.2693 41.3281 73.9598C42.5422 74.1779 43.7778 74.3102 45.0079 74.4528C47.7681 74.7726 50.5388 75.0062 53.323 75.0804C55.2027 75.1304 57.0887 75.2135 58.964 75.1387C62.3697 75.003 65.7303 74.5638 69.0455 73.8327C72.7786 73.0097 76.3305 71.8092 79.6787 70.1736C82.3539 68.8667 84.7151 67.2137 86.5871 65.0767C88.6243 62.751 89.8381 60.1359 90.1048 57.2234C90.1832 56.367 90.0754 55.4888 89.9604 54.6296C89.7709 53.2149 89.4926 51.8114 88.7949 50.4989C88.7373 50.3903 88.7586 50.2295 88.7987 50.1065C88.8639 49.9076 88.97 49.7175 89.0682 49.5276C89.4275 48.8339 89.6409 48.1176 89.4999 47.3519C89.4614 47.1427 89.566 47.0356 89.7535 46.9321C90.2776 46.6442 90.8059 46.359 91.3066 46.042ZM82.6495 19.6637C83.3086 21.1035 84.6324 21.9568 85.9745 22.847C85.8704 22.9693 85.7947 23.0862 85.6898 23.1775C81.904 26.4675 77.6202 29.1368 72.6851 30.9862C71.6541 31.3725 70.591 31.6863 69.4722 31.8198C69.1188 31.8621 68.7529 31.8677 68.3976 31.841C68.0745 31.8166 67.9739 31.6913 68.036 31.415C68.0968 31.1451 68.1648 30.8582 68.3225 30.6259C68.7987 29.9255 69.2651 29.2111 69.8346 28.5684C71.5415 26.6415 73.6363 25.0528 75.8301 23.5588C77.8656 22.1726 80.0557 20.9862 82.2704 19.8317C82.3719 19.7794 82.4814 19.7381 82.6495 19.6637ZM60.1346 11.1745C60.7594 10.7791 61.027 10.8144 61.4585 11.3469C62.0705 12.102 62.8904 12.6492 63.8001 13.1066C63.9367 13.1754 64.0725 13.2455 64.2765 13.3495C64.1188 13.5202 64.0182 13.6484 63.8964 13.7588C61.3099 16.1069 58.781 18.5058 56.111 20.7804C54.3868 22.2494 52.4719 23.5528 50.6059 24.8918C50.058 25.2847 49.3983 25.5689 48.7628 25.8587C48.2301 26.1016 47.8626 25.9922 47.5278 25.5664C47.2948 25.2705 47.1469 24.9367 47.2368 24.5822C47.3777 24.0258 47.4865 23.4463 47.7561 22.9352C48.2292 22.0378 48.764 21.1575 49.3611 20.3174C51.3595 17.5063 53.9035 15.1226 56.9791 13.1699C58.0297 12.5031 59.0829 11.8399 60.1346 11.1745ZM35.4918 12.9291C35.6874 12.7349 35.882 12.5402 36.1374 12.2856C37.0181 12.8575 38.0034 13.0007 39.0428 13.0917C38.9492 13.276 38.9033 13.3895 38.8366 13.4932C37.2364 15.9938 35.3263 18.2989 32.9979 20.3289C32.4233 20.8299 31.7594 21.256 31.1161 21.6936C30.901 21.8402 30.6309 21.939 30.3689 22.018C29.8862 22.1637 29.4909 21.9677 29.3675 21.535C29.2417 21.0944 29.3348 20.6616 29.5586 20.268C29.9649 19.5532 30.3848 18.8424 30.8469 18.1541C32.1322 16.2388 33.8207 14.589 35.4918 12.9291ZM11.4422 36.7992C11.4462 36.7647 11.4496 36.7298 11.4581 36.6961C11.725 35.5978 12.303 34.6193 12.9904 33.6125C13.755 34.3191 14.471 34.9806 15.2251 35.6778C14.4511 36.6531 14.2883 37.7853 14.1628 38.9712C13.5286 38.7435 12.9892 38.5627 12.4621 38.3576C11.7575 38.0833 11.3651 37.4672 11.4422 36.7992ZM87.3945 56.6164C87.4266 56.8714 87.3831 57.1376 87.3439 57.3952C86.8889 60.3756 85.419 62.9223 82.9673 65.0431C81.0461 66.7048 78.8033 67.949 76.3719 68.9863C72.4503 70.6599 68.3078 71.6935 64.0193 72.2959C60.4313 72.8 56.8192 72.9026 53.1802 72.6966C50.1394 72.5243 47.1112 72.2892 44.0921 71.9469C43.3578 71.8636 42.6239 71.7619 41.8997 71.6286C38.2168 70.9503 34.5124 70.3503 30.9209 69.3398C27.6398 68.4169 24.4133 67.3731 21.3485 65.9945C18.8812 64.8846 16.6295 63.4978 14.7157 61.736C13.7286 60.827 12.7363 59.913 11.859 58.9258C10.2775 57.1462 9.16281 55.1447 8.53154 52.9621C8.08678 51.4244 7.97464 49.879 8.65089 48.3487C8.95146 47.6686 9.14504 46.9529 9.45016 46.2747C10.1791 44.6535 11.3787 43.3266 12.931 42.232C13.2415 42.0131 13.535 41.7758 13.8412 41.5517C13.9574 41.4666 14.0868 41.3954 14.262 41.2855C14.3231 41.4845 14.3716 41.6297 14.4127 41.7763C14.8569 43.3787 15.7913 44.69 17.4296 45.5785C18.4463 46.13 19.4174 46.7486 20.5642 47.1057C22.1032 47.5845 23.6911 47.8508 25.315 47.9578C25.7084 47.9837 25.9739 48.0727 26.1801 48.3914C26.6867 49.1755 27.4987 49.6291 28.486 49.8655C28.988 49.9857 29.4834 50.1254 29.9857 50.2444C31.0901 50.5063 31.8909 51.1009 32.4768 51.9343C32.8 52.3941 33.086 52.877 33.4482 53.3117C33.9155 53.8726 34.3841 54.4495 34.9572 54.9239C36.0275 55.8099 37.3114 56.2988 38.8363 56.1293C39.8024 56.0218 40.7027 55.741 41.5318 55.2932C42.0925 54.99 42.6538 54.6875 43.2185 54.3896C43.9246 54.017 44.5719 53.5847 45.1089 53.0342C45.2361 52.9039 45.3831 52.7884 45.5504 52.6402C45.9437 52.88 46.3201 53.1019 46.6873 53.3346C50.6143 55.822 54.9004 56.234 59.4719 55.0017C59.6441 54.9553 59.8129 54.9005 59.9839 54.8504C60.4365 54.718 60.9055 54.4448 61.3393 54.4816C62.4464 54.5757 63.5925 54.6209 64.6061 55.0911C65.174 55.3542 65.6978 55.7281 65.9576 56.2372C66.9198 58.1238 68.6321 59.1394 70.8999 59.5012C71.9408 59.6673 73.0022 59.7547 74.0591 59.8226C74.9637 59.8807 75.8054 59.6632 76.5367 59.1747C77.0585 58.8261 77.4339 58.384 77.6557 57.8475C77.7706 57.5698 77.8766 57.2888 77.9722 57.0056C78.2097 56.3013 78.7638 55.9433 79.5904 55.8872C79.9695 55.8615 80.3516 55.8685 80.7304 55.84C81.3088 55.7964 81.8866 55.7451 82.4621 55.679C84.0048 55.5023 85.1917 54.8309 86.0481 53.7106C86.2566 53.4378 86.4632 53.1644 86.729 52.8136C86.8204 53.0186 86.9045 53.1355 86.923 53.2596C87.0891 54.3774 87.2537 55.4957 87.3945 56.6164ZM22.5554 43.9288C24.5965 44.5548 26.6454 45.1591 28.8521 45.1439C28.8889 45.1437 28.9262 45.1656 29.0244 45.1968C28.9182 45.2448 28.853 45.2898 28.7794 45.3059C27.2433 45.6456 25.6917 45.7214 24.1379 45.434C23.2203 45.2642 22.2996 45.0766 21.4144 44.8112C20.2878 44.4734 19.3379 43.8386 18.4023 43.218C18.0358 42.9752 17.7353 42.6056 17.5307 42.2408C16.6606 40.6895 16.8442 39.0801 17.2326 37.353C17.4758 37.4944 17.6324 37.5811 17.7835 37.6742C19.4984 38.7277 21.1963 39.8024 22.9311 40.8306C24.657 41.8533 26.5153 42.6648 28.4907 43.2682C28.658 43.3192 28.817 43.3906 28.9771 43.4993C27.7299 43.6995 26.4792 43.7738 25.2184 43.6486C23.9665 43.5244 22.7162 43.3882 21.3523 43.2454C21.7215 43.6199 22.1298 43.7982 22.5554 43.9288ZM29.3236 47.7823C31.6199 47.129 33.9665 46.6775 36.1316 45.5344C36.446 45.6221 36.8621 45.7422 37.2809 45.8545C38.3902 46.1519 39.498 46.4539 40.6126 46.7362C40.9576 46.8238 41.1537 46.9609 41.1999 47.2931C41.2981 47.9988 41.676 48.6174 42.1248 49.1964C42.5702 49.7708 43.0565 50.3211 43.5518 50.9138C43.159 51.3798 42.7188 51.8226 42.1422 52.1439C41.4014 52.5567 40.6587 52.9698 39.8946 53.3485C38.4916 54.0439 37.4048 53.8788 36.4039 52.7841C35.9213 52.2562 35.5474 51.6542 35.1098 51.0946C34.7397 50.6213 34.3715 50.1449 33.9618 49.6975C33.0319 48.6824 31.7692 48.1588 30.3268 47.9236C29.994 47.8696 29.6581 47.8292 29.3236 47.7823ZM47.586 48.3497C50.0426 48.7806 52.492 49.2444 54.9574 49.633C57.4159 50.0206 59.8905 50.3327 62.4017 50.6839C62.3071 51.0359 62.0342 51.2397 61.7499 51.4063C61.2866 51.6781 60.8133 51.9483 60.3086 52.1533C58.2603 52.9856 56.1029 53.3809 53.8366 53.2608C52.2673 53.1777 50.7978 52.7435 49.4673 52.0574C48.4426 51.5292 47.5272 50.8378 46.5831 50.197C46.3078 50.0103 46.1006 49.7483 45.8623 49.5206C45.8936 49.4795 45.9249 49.4387 45.9562 49.3976C46.5484 49.6409 47.138 49.8884 47.7333 50.1263C48.7504 50.5329 49.7582 50.959 50.7932 51.328C51.7493 51.6692 52.7702 51.7542 53.7997 51.7326C53.9238 51.73 54.0468 51.6817 54.1866 51.5976C51.8073 50.7787 49.4407 49.9683 47.586 48.3497ZM72.0316 53.4979C72.656 54.4252 73.467 54.7217 74.6629 54.4033C75.9352 54.0643 76.9613 53.4127 77.6242 52.4053C77.9588 51.8971 78.2151 51.3411 78.4237 50.7832C78.5458 50.4567 78.6998 50.3079 79.096 50.244C80.0789 50.0849 81.0642 49.9149 82.023 49.6727C83.3665 49.3332 84.6862 48.9246 86.0162 48.5451C86.1637 48.503 86.3108 48.4596 86.5181 48.3994C86.4642 48.9109 86.2022 49.2918 85.9246 49.6579C85.5403 50.1654 85.1245 50.6549 84.7248 51.1536C84.4055 51.5527 84.0792 51.9481 83.7762 52.3561C83.359 52.918 82.7818 53.2543 82.0156 53.324C81.3195 53.3874 80.6207 53.429 79.9232 53.481C79.5648 53.5078 79.2011 53.5117 78.8486 53.5674C77.0935 53.8461 75.9488 54.7417 75.3753 56.1979C75.2849 56.4277 75.2048 56.6606 75.1203 56.8924C74.9881 57.2538 74.691 57.4245 74.266 57.4336C74.0466 57.4383 73.8253 57.4359 73.6075 57.4156C73.0503 57.3632 72.4945 57.2993 71.9386 57.2389C70.4001 57.0715 69.1234 56.4952 68.1437 55.437C67.607 54.8572 67.0809 54.2651 66.4856 53.7324C66.0891 53.3775 65.5857 53.1101 65.1172 52.819C64.9268 52.7006 64.7035 52.6226 64.4717 52.5156C64.8336 51.9637 65.1565 51.4706 65.5191 50.9176C65.566 50.914 65.7001 50.8926 65.8341 50.8946C67.1343 50.9141 68.4349 50.9491 69.7354 50.9522C70.1207 50.953 70.3768 51.0585 70.568 51.3459C71.0479 52.0672 71.5473 52.7789 72.0316 53.4979ZM72.471 50.9457C73.5328 50.8773 74.4594 50.8177 75.3915 50.7576C75.2976 51.3733 74.7563 51.841 73.7806 52.1248C73.3621 51.7482 72.9552 51.3821 72.471 50.9457ZM89.4248 44.2748C87.2428 45.6183 84.8195 46.5207 82.2597 47.1451C78.0502 48.1713 73.7582 48.6525 69.3783 48.5636C67.2359 48.52 65.0913 48.5265 62.9622 48.2931C61.3341 48.1144 59.7128 47.8858 58.0905 47.6686C56.8636 47.5046 55.6342 47.3476 54.4156 47.1447C53.0197 46.9121 51.6293 46.6502 50.2456 46.3688C47.8084 45.8733 45.3606 45.4073 42.9495 44.8288C40.4805 44.2366 38.0439 43.5411 35.6045 42.8592C33.7377 42.3375 31.8918 41.7598 30.0313 41.2204C27.5775 40.5092 25.3462 39.4314 23.2344 38.1538C22.3312 37.6073 21.4413 37.0451 20.5431 36.4927C18.7017 35.3603 17.0951 33.9997 15.6198 32.5336C14.3256 31.2473 13.3766 29.7892 13.2314 28.021C13.1437 26.9557 13.3585 25.9462 13.8478 24.9755C14.1443 24.3871 14.4465 23.8005 14.7657 23.221C15.1222 22.5741 15.5882 21.9855 16.1765 21.4824C17.2455 20.5686 18.263 19.5937 19.4354 18.7908C20.6708 17.9445 22.0493 17.2516 23.3906 16.5264C24.1712 16.1044 25.0051 15.757 25.8082 15.3659C27.4211 14.5801 29.1284 13.986 30.8779 13.4764C30.9871 13.4448 31.1019 13.428 31.3474 13.3762C31.1651 13.5927 31.0573 13.7267 30.9426 13.856C29.5104 15.4691 28.2039 17.1506 27.1934 18.9956C26.6735 19.9445 26.4344 20.9216 26.6454 21.9773C26.9683 23.5924 29.0338 25.0092 31.258 24.2922C32.3087 23.9535 33.2142 23.4187 34.0383 22.7763C35.759 21.4347 37.2271 19.8974 38.5871 18.2816C40.2803 16.2702 41.7006 14.1119 42.9352 11.8706C43.2885 11.2292 43.7 10.9907 44.4761 10.917C48.2661 10.5571 52.061 10.4214 55.8694 10.5864C55.9632 10.5905 56.0557 10.6199 56.2362 10.6539C56.0286 10.7979 55.8834 10.9091 55.7264 11.006C54.1221 11.9953 52.6292 13.1006 51.2669 14.3297C48.6926 16.652 46.5854 19.2556 45.0974 22.2192C44.7343 22.9422 44.5192 23.7039 44.4713 24.4888C44.3906 25.8074 44.9387 26.9114 46.1376 27.7326C47.1988 28.4597 48.3842 28.6001 49.6422 28.1431C50.589 27.7994 51.4762 27.3634 52.2795 26.8062C55.1124 24.8413 57.8667 22.8012 60.3499 20.4995C61.8682 19.092 63.4013 17.6965 64.9286 16.2959C66.2363 15.0967 67.5172 13.8779 68.6323 12.5364C68.6788 12.4805 68.7376 12.4325 68.8395 12.3332C73.4018 13.5176 77.7386 15.1528 81.7392 17.5628C81.5553 17.6546 81.4294 17.7274 81.2943 17.7839C76.1296 19.9446 71.7434 22.9771 68.0105 26.7317C67.0406 27.7072 66.2065 28.7714 65.6535 29.9807C65.3853 30.5669 65.2118 31.1713 65.254 31.8086C65.3246 32.8694 66.0391 33.6847 67.1954 34.0311C67.8499 34.2274 68.5259 34.2687 69.2113 34.2364C70.301 34.185 71.3461 33.9513 72.3741 33.651C74.204 33.1165 75.9325 32.389 77.5974 31.5484C81.6899 29.4815 85.4133 27.0088 88.6153 23.9679C88.8849 23.7119 89.1494 23.4518 89.4175 23.1946C89.4297 23.183 89.454 23.1814 89.5561 23.1468C89.7538 23.3532 89.9423 23.5529 90.1341 23.7499C91.6539 25.3115 92.9175 27.0049 93.8634 28.8884C95.0036 31.1582 95.4242 33.4954 95.1165 35.9551C94.9344 37.4106 94.4359 38.7696 93.7293 40.0836C92.7777 41.853 91.2298 43.1637 89.4248 44.2748Z" fill="white"/>
<path d="M42.4936 41.003C41.4868 40.7744 40.474 40.5617 39.4805 40.2948C37.5508 39.7767 35.6242 39.2477 33.713 38.6814C32.4452 38.306 31.2112 37.8459 29.953 37.445C27.5971 36.6948 25.3447 35.772 23.251 34.5602C21.9028 33.7799 20.5071 33.0522 19.326 32.0835C18.077 31.0593 16.8873 29.9807 15.6708 28.9268C15.5984 28.864 15.5183 28.808 15.4414 28.749C15.5813 29.076 15.7669 29.3633 15.9758 29.6371C17.1979 31.2395 18.6768 32.6388 20.3525 33.8971C23 35.8852 25.8359 37.6097 29.0676 38.8162C30.7211 39.4332 32.3592 40.0813 34.0143 40.6949C35.7835 41.351 37.6146 41.8567 39.4704 42.2898C40.3964 42.506 41.3377 42.678 42.2794 42.8374C42.8032 42.9262 43.3111 42.858 43.7533 42.5463C43.9158 42.4319 44.1326 42.375 44.37 42.2719C44.2395 42.1434 44.0824 42.0303 43.9861 41.8866C43.6475 41.383 43.1155 41.1443 42.4936 41.003Z" fill="white"/>
<path d="M48.5117 41.7082C48.2431 41.6768 47.9482 41.6838 47.6895 41.7479C47.0792 41.8992 46.8905 42.5042 47.3333 42.8978C47.534 43.0763 47.818 43.1842 48.064 43.324C48.7019 43.4289 49.305 43.1683 49.4339 42.7068C49.5648 42.2384 49.1658 41.7851 48.5117 41.7082Z" fill="white"/>
<path d="M76.5832 63.8182C76.2716 63.8133 75.9407 63.8571 75.6489 63.9512C75.068 64.1384 74.5247 64.418 73.9374 64.5838C71.4257 65.2937 68.9139 66.006 66.3816 66.6572C64.8479 67.0515 63.2774 67.3377 61.7222 67.6682C59.4405 68.1533 57.1308 68.4475 54.7767 68.4887C52.9001 68.5215 51.0246 68.6074 49.1489 68.6697C49.1515 68.716 49.1538 68.7625 49.1565 68.8088C50.4496 68.9064 51.7418 69.0118 53.036 69.0997C55.2939 69.2529 57.5533 69.3308 59.8092 69.0806C60.9403 68.955 62.0706 68.8187 63.1972 68.6657C64.6402 68.4696 66.0851 68.2776 67.5188 68.0364C69.0511 67.7785 70.5699 67.4612 72.0967 67.1785C73.5494 66.9097 74.9879 66.5993 76.3204 66.0131C76.688 65.8513 77.0418 65.6349 77.3351 65.3843C77.6559 65.1101 77.7165 64.7387 77.5283 64.368C77.3501 64.0162 77.0098 63.8253 76.5832 63.8182Z" fill="white"/>
<path d="M80.053 62.1085C79.5798 62.0283 79.1417 62.286 79.0283 62.7115C78.9075 63.1653 79.1878 63.5827 79.6739 63.6728C80.1562 63.7621 80.6439 63.4797 80.751 63.0493C80.858 62.6195 80.5401 62.1913 80.053 62.1085Z" fill="white"/>
</g>
<defs>
<clipPath id="clip0_792_19471">
<rect width="87.8766" height="68.2519" fill="white" transform="matrix(0.982719 0.185102 -0.243036 0.970017 16.5859 0)"/>
</clipPath>
</defs>
</svg>
