<svg width="139" height="123" viewBox="0 0 139 123" fill="none" xmlns="http://www.w3.org/2000/svg">
<g clip-path="url(#clip0_792_19465)">
<path d="M123.829 84.0285C124.112 82.0504 124.01 80.1058 123.027 78.2547C122.322 76.9263 121.511 75.648 120.505 74.475C117.834 71.3567 114.143 69.8941 109.76 69.7178C107.693 69.6349 105.621 69.8211 103.612 70.3313C103.501 70.3593 103.382 70.3606 103.276 70.373C103.24 70.3055 103.199 70.2668 103.203 70.2335C103.228 70.0664 103.257 69.8991 103.297 69.7344C103.968 67.0029 104.426 64.2446 104.728 61.4648C104.822 60.5935 104.897 59.7348 104.296 58.9551C104.217 58.8524 104.192 58.7193 104.139 58.6012C103.713 57.6504 103.145 56.7714 102.437 55.953C99.9529 53.0812 96.8313 50.7885 93.5327 48.677C91.8706 47.6134 90.0914 46.6803 88.3192 45.7548C83.947 43.4718 79.3664 41.5535 74.5837 40.004C73.1484 39.5388 71.7053 39.0914 70.1536 38.5999C70.3531 38.4326 70.4636 38.326 70.5898 38.2362C71.3827 37.6749 72.1733 37.1116 72.9748 36.5599C75.464 34.8464 77.7459 32.9499 79.7639 30.8169C82.4446 27.9831 84.3295 24.8419 84.8315 21.1473C84.99 19.9793 84.9681 18.8246 84.6318 17.6874C83.8529 15.0556 82.0954 12.9856 79.5628 11.4473C75.4454 8.9467 70.7989 7.97751 65.8385 8.36677C60.9724 8.74896 56.7718 10.5439 53.1816 13.4069C50.2334 15.7578 48.5996 18.6688 48.2766 22.1334C48.0495 24.5657 48.599 26.8521 50.0573 28.9411C51.5921 31.139 53.9469 32.3229 56.7984 32.7956C58.1145 33.014 59.4148 32.7984 60.6975 32.4952C63.3949 31.8578 66.8109 29.3375 66.8876 26.2698C66.93 24.5829 66.3054 23.2196 65.008 22.0326C64.2224 21.3139 63.2136 21.1506 62.1327 21.2164C61.9983 21.2246 61.8744 21.3664 61.7456 21.4464C61.8379 21.5576 61.909 21.6924 62.0284 21.7733C62.1373 21.8469 62.2972 21.8677 62.4372 21.9023C62.998 22.0409 63.4163 22.343 63.7866 22.725C65.0332 24.0102 65.3191 25.9725 64.3142 27.3522C63.6604 28.2498 62.7423 28.9861 61.6226 29.446C58.1004 30.8934 53.5491 29.6222 52.2352 26.2128C50.8007 22.4893 51.712 19.1663 54.651 16.2526C56.243 14.674 58.2349 13.5465 60.4295 12.6569C62.9506 11.6351 65.5612 11.091 68.3513 11.2007C70.0188 11.2662 71.6512 11.5131 73.2351 11.9392C75.2298 12.4758 77.0948 13.2696 78.6285 14.5242C80.4691 16.0299 81.6989 17.826 81.5669 20.1046C81.4858 21.4993 81.1761 22.8753 80.5429 24.1737C79.7612 25.7768 78.8099 27.3039 77.4872 28.6208C76.2566 29.8459 75.0486 31.1096 73.6534 32.1834C71.3783 33.9346 68.9511 35.5364 66.6074 37.2211C66.1027 37.5839 65.6188 37.6333 64.9963 37.5039C60.2398 36.5148 55.4155 36.006 50.5203 35.9497C45.5636 35.8929 40.6394 36.1695 35.733 36.7816C31.0088 37.371 26.4057 38.3419 21.9928 39.9284C19.2349 40.9197 16.5627 42.0478 14.5686 44.0773C14.5217 44.1253 14.4647 44.1678 14.4056 44.2044C13.9032 44.514 13.6222 44.9527 13.4644 45.4528C12.9114 47.2045 12.3045 48.9461 11.8321 50.7143C10.4245 55.9846 9.76653 61.3333 9.75996 66.7414C9.75151 73.6717 10.8026 80.469 13.0908 87.1214C14.3656 90.8272 16.2315 94.3042 18.3046 97.7075C19.1276 99.0586 20.246 100.233 21.3351 101.428C22.1642 102.338 23.1204 103.097 24.2215 103.735C26.4364 105.018 28.7805 106.099 31.225 107.007C36.2631 108.878 41.5233 110.121 46.8803 111.07C47.8567 111.244 48.8555 111.322 49.8458 111.434C52.4305 111.727 55.0144 112.005 57.6255 112.096C61.5604 112.233 65.4666 112.091 69.3386 111.438C70.4903 111.244 71.6399 111.024 72.6734 110.53C74.4866 109.665 76.3139 108.815 77.9254 107.666C78.1333 107.517 78.4401 107.421 78.7113 107.4C80.6508 107.248 82.5963 107.149 84.5336 106.98C85.8892 106.862 87.232 106.64 88.5854 106.498C94.0726 105.925 99.3176 104.591 104.369 102.68C108.517 101.11 112.172 98.8774 115.542 96.2734C117.814 94.5175 119.78 92.5649 121.306 90.2602C122.602 88.3061 123.509 86.2611 123.829 84.0285ZM98.6378 82.677C99.4734 82.5005 100.219 82.305 100.981 82.1915C101.938 82.0488 102.905 81.9176 103.873 81.8779C107.347 81.7357 109.129 84.9368 107.71 87.2366C106.733 88.8195 105.352 90.0311 103.626 90.9434C102.319 91.6339 100.945 92.2386 99.5605 92.8074C96.8315 93.929 94.0568 94.9628 91.1841 95.7848C90.9604 95.8488 90.7338 95.9046 90.5085 95.9639C90.479 95.9238 90.4496 95.8833 90.4201 95.8432C93.7181 91.689 96.4362 87.263 98.6378 82.677ZM66.2974 41.0193C66.6132 40.8055 66.9101 40.8431 67.2546 40.9273C70.5917 41.741 73.8128 42.8277 77.0064 43.9878C80.8154 45.3712 84.4296 47.0793 87.9472 48.9364C91.9174 51.0327 95.5635 53.4947 98.6588 56.5274C99.4499 57.3029 100.183 58.1158 100.724 59.0532C101.362 60.1585 101.168 61.13 100.221 62.0197C99.4713 62.7232 98.5618 63.2418 97.63 63.7968C97.535 63.6162 97.4677 63.5054 97.4167 63.389C96.996 62.4294 96.3636 61.5827 95.6021 60.8024C94.0045 59.165 92.1845 57.7354 90.2014 56.4589C84.87 53.0275 79.1054 50.2633 72.9545 48.11C69.1748 46.7869 65.2941 45.7322 61.2865 45.0518C61.1042 45.0209 60.9268 44.9699 60.6614 44.9087C60.823 44.7549 60.9159 44.6363 61.0398 44.553C62.7914 43.3733 64.5509 42.2032 66.2974 41.0193ZM66.6677 54.9645C69.3467 55.8049 72.0563 56.5778 74.7053 57.4832C77.997 58.608 80.9709 60.2087 83.5234 62.355C84.0117 62.7654 84.4481 63.2251 84.8804 63.6818C85.4391 64.2728 85.6886 64.975 85.7643 65.7283C85.8023 66.1054 85.8384 66.4829 85.8841 66.9477C84.2261 67.1346 82.5473 67.1589 80.8678 67.1239C80.8356 67.0081 80.798 66.946 80.8057 66.8881C80.992 65.4245 80.234 64.3056 79.045 63.3711C77.7505 62.3539 76.2132 61.6616 74.6456 61.0203C74.258 60.8619 73.8595 60.7235 73.4665 60.5758C73.4251 60.6108 73.3837 60.6455 73.3422 60.6805C73.3794 60.8005 73.3803 60.9463 73.4624 61.0353C73.5968 61.181 73.7835 61.2908 73.949 61.4147C75.001 62.2 76.0697 62.9699 77.0976 63.7781C77.4895 64.0863 77.8383 64.4561 78.1193 64.8453C78.6681 65.6035 78.5359 66.3771 77.785 66.9713C77.6514 67.0767 77.3849 67.0984 77.1837 67.0903C75.1148 67.006 73.0463 66.9183 70.9791 66.8107C66.6208 66.5835 62.2881 66.1457 57.9897 65.4874C55.8318 65.1568 53.6876 64.745 51.5538 64.3095C47.6849 63.52 43.8869 62.5125 40.1236 61.4052C36.7544 60.4138 33.4012 59.3848 30.156 58.1131C29.7603 57.9583 29.2529 57.9192 29.1284 57.4086C28.9693 56.7545 28.8274 56.1242 29.3203 55.5231C29.9514 54.7528 30.7416 54.1412 31.6802 53.6625C33.3576 52.8075 35.1828 52.2898 37.0502 51.866C38.5815 51.5183 40.1167 51.1847 41.6485 50.8389C41.859 50.7913 42.0752 50.7316 42.2566 50.6327C42.3573 50.5776 42.4541 50.4219 42.4371 50.3273C42.4204 50.2354 42.2701 50.1249 42.1525 50.0925C41.9965 50.05 41.814 50.0588 41.6465 50.0743C39.4196 50.2774 37.1895 50.4619 34.9677 50.7003C33.4613 50.862 32.0274 51.29 30.6198 51.7727C29.4502 52.1737 28.4205 52.7749 27.4905 53.5002C26.7387 54.0868 26.1195 54.7607 25.8431 55.6296C25.8117 55.7281 25.7513 55.8191 25.6651 55.9931C23.7218 54.9921 22.0774 53.7947 20.457 52.4407C20.7591 52.2823 20.9573 52.1697 21.164 52.071C24.9046 50.2804 28.8701 49.0476 33.0635 48.3092C39.62 47.1547 46.2241 46.6839 52.9034 47.0409C53.1155 47.0524 53.3262 47.0891 53.6119 47.123C53.4717 47.3459 53.3798 47.5144 53.2656 47.671C51.9133 49.5236 51.2163 51.5871 50.7095 53.706C50.5158 54.5173 50.5182 55.3478 50.7192 56.1633C50.9684 57.1732 51.5528 57.6277 52.738 57.7902C52.9459 57.8185 53.148 57.8789 53.3114 57.9152C53.4294 57.6968 53.5146 57.4807 53.6536 57.2942C53.9433 56.906 54.1189 56.4834 54.0299 56.0327C53.701 54.3721 54.3433 52.8562 54.9289 51.3346C55.4041 50.1001 56.1922 49.0103 57.0785 47.9662C57.4084 47.5776 57.7522 47.4647 58.3142 47.5204C61.0425 47.7916 63.6635 48.4617 66.2724 49.1436C71.8747 50.6076 77.1718 52.6969 82.1745 55.32C84.3188 56.4444 86.3831 57.6898 88.4282 58.9478C90.9729 60.5131 93.0002 62.5507 95.0143 64.5913C95.094 64.6721 95.1935 64.7374 95.2752 64.8031C94.485 65.3817 90.6303 66.4208 89.1471 66.48C89.1341 66.3887 89.1058 66.2926 89.1092 66.1977C89.1705 64.4997 88.5462 63.0182 87.3443 61.6776C86.1618 60.3586 84.6806 59.4195 82.9525 58.7114C79.5018 57.2976 75.9489 56.1666 72.1923 55.5266C70.2329 55.1928 68.2926 54.7765 66.3419 54.4034C66.122 54.3614 65.885 54.2462 65.6273 54.4361C65.8866 54.7756 66.2995 54.849 66.6677 54.9645ZM17.8007 45.346C18.615 44.6568 19.5831 44.17 20.5697 43.7103C22.2905 42.9086 24.0996 42.2863 25.9498 41.7436C32.4747 39.83 39.2263 39.1211 46.0656 38.896C49.6708 38.7775 53.2778 38.8215 56.8635 39.1986C58.5992 39.3811 60.318 39.6822 62.2018 39.952C61.9542 40.1682 61.8372 40.2869 61.7015 40.3862C60.0095 41.626 58.3044 42.8528 56.6296 44.11C56.3004 44.3572 55.9826 44.3337 55.6173 44.318C53.0884 44.2088 50.5583 44.0059 48.0302 44.0216C40.8576 44.0656 33.8026 44.8826 26.92 46.6937C25.1628 47.1561 23.501 47.8071 21.8764 48.5354C20.8739 48.985 19.9717 49.5566 19.2005 50.277C19.0882 50.3818 18.9591 50.4733 18.777 50.6203C18.0964 49.6971 17.3796 48.8516 17.0259 47.8216C16.6932 46.8509 16.972 46.0471 17.8007 45.346ZM75.5745 105.774C73.63 107.223 71.296 108.12 68.7707 108.568C65.2181 109.198 61.6237 109.338 58.0066 109.196C52.5829 108.982 47.2519 108.285 41.9952 107.09C38.7098 106.343 35.4991 105.429 32.382 104.273C30.1614 103.449 28.005 102.498 26.0371 101.279C23.9721 99.9995 22.2672 98.4037 21.0944 96.4347C15.7245 87.4177 13.2229 77.7985 13.1117 67.6815C13.0538 62.4004 13.6279 57.1747 14.9227 52.0114C14.9783 51.7901 15.0468 51.5712 15.1486 51.2123C15.3432 51.4249 15.4416 51.5148 15.5168 51.6176C17.5407 54.3892 20.3316 56.4638 23.4631 58.241C26.4175 59.9179 29.6091 61.1607 32.896 62.2446C37.5675 63.7853 42.3266 65.0889 47.1109 66.3395C52.0528 67.6314 57.0942 68.4752 62.195 69.0538C64.9945 69.3714 67.8208 69.5238 70.6393 69.7001C74.6251 69.9496 78.6172 70.1033 82.6157 70.0378C86.6601 69.9714 90.6178 69.4577 94.4647 68.3334C96.4224 67.7615 98.2308 66.9542 99.9348 65.9542C100.152 65.8265 100.375 65.7061 100.742 65.5004C100.697 65.8546 100.69 66.0939 100.635 66.3239C100.191 68.1643 99.8097 70.0185 99.2751 71.8392C97.4189 78.1601 94.5935 84.1438 90.8621 89.8106C86.8449 95.9123 81.7045 101.207 75.5745 105.774ZM118.463 88.7352C116.737 91.4454 114.219 93.5001 111.519 95.4308C107.595 98.2362 103.184 100.247 98.3405 101.581C95.6425 102.324 92.9317 103.01 90.1283 103.374C88.0337 103.646 85.9317 103.878 83.8315 104.116C83.4531 104.159 83.0662 104.143 82.6832 104.154C82.6721 104.109 82.6604 104.065 82.6492 104.02C82.7429 103.926 82.8349 103.831 82.9305 103.739C84.1709 102.548 85.4153 101.359 86.6495 100.163C86.8662 99.9532 87.0842 99.7964 87.4207 99.7279C90.7739 99.0469 94.0334 98.1109 97.1803 96.9005C99.4069 96.0439 101.617 95.1525 103.802 94.2197C105.765 93.3821 107.513 92.2617 108.943 90.8174C110.313 89.4336 111.333 87.8786 111.544 86.0185C111.94 82.5408 108.884 79.3358 104.876 79.0031C103.53 78.8913 102.2 79.0222 100.876 79.2214C100.686 79.2497 100.498 79.2815 100.242 79.3223C100.26 79.1634 100.25 79.0446 100.288 78.9386C100.886 77.2861 101.498 75.6371 102.084 73.9815C102.183 73.7015 102.345 73.5671 102.666 73.4992C104.846 73.0392 107.025 72.5679 109.291 72.6154C112.943 72.6922 115.98 73.8451 118.075 76.5362C118.66 77.2873 119.147 78.0965 119.661 78.8872C120.615 80.3511 120.746 81.937 120.522 83.5622C120.267 85.4131 119.505 87.0993 118.463 88.7352Z" fill="white"/>
<path d="M28.8199 96.2609C27.9278 94.8792 26.9814 93.5217 26.1458 92.1146C24.1826 88.809 23.0518 85.2366 21.8212 81.6992C21.4275 80.5677 21.0821 79.423 20.7382 78.2789C19.8498 75.3259 19.4575 72.3067 19.1299 69.2767C19.0075 68.1449 18.7738 67.0218 18.5654 65.8981C18.5179 65.6434 18.4559 65.3548 17.9922 65.1602C17.9658 65.5508 17.9466 65.8625 17.9232 66.1739C17.8034 67.7523 17.5979 69.33 17.5795 70.9093C17.5364 74.5383 18.0981 78.1104 19.174 81.6193C19.5931 82.9864 20.0062 84.3552 20.4472 85.7169C21.4962 88.9578 22.7365 92.1329 24.7334 95.0479C25.3796 95.9917 25.9882 96.9549 26.6466 97.8921C26.8451 98.1746 27.1231 98.4315 27.4185 98.6434C27.9463 99.0221 28.7799 99.072 29.1987 98.7986C29.5765 98.552 29.7277 97.864 29.4688 97.3227C29.292 96.9543 29.0454 96.6105 28.8199 96.2609Z" fill="white"/>
<path d="M33.1903 99.3365C32.4239 99.1942 31.6978 99.5638 31.5519 100.17C31.4053 100.779 31.9405 101.439 32.6933 101.576C33.4336 101.712 34.1549 101.31 34.2891 100.686C34.4231 100.064 33.9448 99.4764 33.1903 99.3365Z" fill="white"/>
</g>
<defs>
<clipPath id="clip0_792_19465">
<rect width="116.811" height="106.216" fill="white" transform="matrix(0.986327 0.164799 -0.216957 0.976181 23.0469 0)"/>
</clipPath>
</defs>
</svg>
