<svg width="62" height="63" viewBox="0 0 62 63" fill="none" xmlns="http://www.w3.org/2000/svg">
<path d="M21.8352 33.441L36.3898 47.8325C36.6288 48.0712 36.9132 48.2607 37.2266 48.39C37.54 48.5194 37.8761 48.5859 38.2155 48.5859C38.555 48.5859 38.8911 48.5194 39.2045 48.39C39.5178 48.2607 39.8022 48.0712 40.0413 47.8325C40.5202 47.3552 40.7891 46.7097 40.7891 46.0367C40.7891 45.3638 40.5202 44.7182 40.0413 44.241L27.3125 31.5052L40.0413 18.8967C40.5202 18.4194 40.7891 17.7739 40.7891 17.1009C40.7891 16.428 40.5202 15.7824 40.0413 15.3052C39.8031 15.0645 39.5191 14.873 39.2057 14.7419C38.8923 14.6107 38.5558 14.5424 38.2155 14.541C37.8753 14.5424 37.5388 14.6107 37.2254 14.7419C36.912 14.873 36.6279 15.0645 36.3898 15.3052L21.8352 29.6967C21.5742 29.9352 21.3659 30.2247 21.2234 30.5469C21.0809 30.8691 21.0073 31.2171 21.0073 31.5688C21.0073 31.9206 21.0809 32.2686 21.2234 32.5908C21.3659 32.913 21.5742 33.2025 21.8352 33.441Z" fill="#42A2C4"/>
</svg>
