<svg width="62" height="62" viewBox="0 0 62 62" fill="none" xmlns="http://www.w3.org/2000/svg">
<path d="M21.8352 32.9691L36.3898 47.565C36.6288 47.8071 36.9132 47.9993 37.2266 48.1304C37.54 48.2616 37.8761 48.3291 38.2155 48.3291C38.555 48.3291 38.8911 48.2616 39.2045 48.1304C39.5178 47.9993 39.8022 47.8071 40.0413 47.565C40.5202 47.0809 40.7891 46.4262 40.7891 45.7437C40.7891 45.0612 40.5202 44.4065 40.0413 43.9225L27.3125 31.0058L40.0413 18.2183C40.5202 17.7343 40.7891 17.0795 40.7891 16.3971C40.7891 15.7146 40.5202 15.0598 40.0413 14.5758C39.8031 14.3317 39.5191 14.1375 39.2057 14.0045C38.8923 13.8715 38.5558 13.8022 38.2155 13.8008C37.8753 13.8022 37.5388 13.8715 37.2254 14.0045C36.912 14.1375 36.6279 14.3317 36.3898 14.5758L21.8352 29.1716C21.5742 29.4135 21.3659 29.7071 21.2234 30.0339C21.0809 30.3607 21.0073 30.7136 21.0073 31.0704C21.0073 31.4271 21.0809 31.78 21.2234 32.1068C21.3659 32.4336 21.5742 32.7272 21.8352 32.9691Z" fill="#34B6A2"/>
</svg>
