<svg width="24" height="24" viewBox="0 0 24 24" fill="none" xmlns="http://www.w3.org/2000/svg">
<path d="M8.49249 12.7637L14.1525 18.4137C14.2455 18.5074 14.3561 18.5818 14.4779 18.6326C14.5998 18.6833 14.7305 18.7095 14.8625 18.7095C14.9945 18.7095 15.1252 18.6833 15.2471 18.6326C15.3689 18.5818 15.4795 18.5074 15.5725 18.4137C15.7587 18.2263 15.8633 17.9729 15.8633 17.7087C15.8633 17.4445 15.7587 17.191 15.5725 17.0037L10.6225 12.0037L15.5725 7.05367C15.7587 6.86631 15.8633 6.61286 15.8633 6.34867C15.8633 6.08449 15.7587 5.83104 15.5725 5.64367C15.4799 5.54919 15.3694 5.47402 15.2476 5.42252C15.1257 5.37102 14.9948 5.34422 14.8625 5.34368C14.7302 5.34422 14.5993 5.37102 14.4774 5.42252C14.3555 5.47402 14.2451 5.54919 14.1525 5.64367L8.49249 11.2937C8.39098 11.3873 8.30998 11.501 8.25457 11.6275C8.19916 11.754 8.17056 11.8906 8.17056 12.0287C8.17056 12.1668 8.19916 12.3034 8.25457 12.4299C8.30998 12.5564 8.39098 12.67 8.49249 12.7637Z" fill="#9367CC"/>
</svg>
