<svg width="62" height="62" viewBox="0 0 62 62" fill="none" xmlns="http://www.w3.org/2000/svg">
<path d="M21.8357 32.9691L36.3903 47.565C36.6293 47.8071 36.9137 47.9993 37.2271 48.1304C37.5405 48.2616 37.8766 48.3291 38.216 48.3291C38.5555 48.3291 38.8916 48.2616 39.205 48.1304C39.5183 47.9993 39.8027 47.8071 40.0418 47.565C40.5207 47.0809 40.7896 46.4262 40.7896 45.7437C40.7896 45.0612 40.5207 44.4065 40.0418 43.9225L27.313 31.0058L40.0418 18.2183C40.5207 17.7343 40.7896 17.0795 40.7896 16.3971C40.7896 15.7146 40.5207 15.0598 40.0418 14.5758C39.8036 14.3317 39.5196 14.1375 39.2062 14.0045C38.8928 13.8715 38.5563 13.8022 38.216 13.8008C37.8758 13.8022 37.5393 13.8715 37.2259 14.0045C36.9125 14.1375 36.6284 14.3317 36.3903 14.5758L21.8357 29.1716C21.5747 29.4135 21.3664 29.7071 21.2239 30.0339C21.0814 30.3607 21.0078 30.7136 21.0078 31.0704C21.0078 31.4271 21.0814 31.78 21.2239 32.1068C21.3664 32.4336 21.5747 32.7272 21.8357 32.9691Z" fill="#9367CC"/>
</svg>
