<svg width="24" height="24" viewBox="0 0 24 24" fill="none" xmlns="http://www.w3.org/2000/svg">
<path d="M15.5388 11.29L9.87876 5.64004C9.7858 5.54631 9.6752 5.47191 9.55334 5.42115C9.43148 5.37038 9.30077 5.34424 9.16876 5.34424C9.03675 5.34424 8.90604 5.37038 8.78418 5.42115C8.66233 5.47191 8.55172 5.54631 8.45876 5.64004C8.27251 5.8274 8.16797 6.08085 8.16797 6.34504C8.16797 6.60922 8.27251 6.86267 8.45876 7.05004L13.4088 12.05L8.45876 17C8.27251 17.1874 8.16797 17.4409 8.16797 17.705C8.16797 17.9692 8.27251 18.2227 8.45876 18.41C8.55138 18.5045 8.66182 18.5797 8.7837 18.6312C8.90557 18.6827 9.03645 18.7095 9.16876 18.71C9.30107 18.7095 9.43195 18.6827 9.55383 18.6312C9.6757 18.5797 9.78615 18.5045 9.87876 18.41L15.5388 12.76C15.6403 12.6664 15.7213 12.5527 15.7767 12.4262C15.8321 12.2997 15.8607 12.1631 15.8607 12.025C15.8607 11.8869 15.8321 11.7503 15.7767 11.6238C15.7213 11.4973 15.6403 11.3837 15.5388 11.29Z" fill="#34B6A2"/>
</svg>
