<svg width="62" height="62" viewBox="0 0 62 62" fill="none" xmlns="http://www.w3.org/2000/svg">
<path d="M39.8796 32.9691L25.3251 47.565C25.086 47.8071 24.8016 47.9993 24.4882 48.1304C24.1749 48.2616 23.8388 48.3291 23.4993 48.3291C23.1598 48.3291 22.8237 48.2616 22.5104 48.1304C22.197 47.9993 21.9126 47.8071 21.6735 47.565C21.1946 47.0809 20.9258 46.4262 20.9258 45.7437C20.9258 45.0612 21.1946 44.4065 21.6735 43.9225L34.4024 31.0058L21.6735 18.2183C21.1946 17.7343 20.9258 17.0795 20.9258 16.3971C20.9258 15.7146 21.1946 15.0598 21.6735 14.5758C21.9117 14.3317 22.1957 14.1375 22.5091 14.0045C22.8225 13.8715 23.1591 13.8022 23.4993 13.8008C23.8395 13.8022 24.1761 13.8715 24.4895 14.0045C24.8029 14.1375 25.0869 14.3317 25.3251 14.5758L39.8796 29.1716C40.1407 29.4135 40.349 29.7071 40.4915 30.0339C40.6339 30.3607 40.7075 30.7136 40.7075 31.0704C40.7075 31.4271 40.6339 31.78 40.4915 32.1068C40.349 32.4336 40.1407 32.7272 39.8796 32.9691Z" fill="#FF7388"/>
</svg>
