<svg width="62" height="63" viewBox="0 0 62 63" fill="none" xmlns="http://www.w3.org/2000/svg">
<path d="M39.8797 33.441L25.3251 47.8325C25.086 48.0712 24.8016 48.2607 24.4882 48.39C24.1749 48.5194 23.8388 48.5859 23.4993 48.5859C23.1598 48.5859 22.8237 48.5194 22.5104 48.39C22.197 48.2607 21.9126 48.0712 21.6735 47.8325C21.1946 47.3552 20.9258 46.7097 20.9258 46.0367C20.9258 45.3638 21.1946 44.7182 21.6735 44.241L34.4024 31.5052L21.6735 18.8967C21.1946 18.4194 20.9258 17.7739 20.9258 17.1009C20.9258 16.428 21.1946 15.7824 21.6735 15.3052C21.9117 15.0645 22.1957 14.873 22.5091 14.7419C22.8225 14.6107 23.1591 14.5424 23.4993 14.541C23.8395 14.5424 24.1761 14.6107 24.4895 14.7419C24.8029 14.873 25.0869 15.0645 25.3251 15.3052L39.8797 29.6967C40.1407 29.9352 40.349 30.2247 40.4915 30.5469C40.6339 30.8691 40.7075 31.2171 40.7075 31.5688C40.7075 31.9206 40.6339 32.2686 40.4915 32.5908C40.349 32.913 40.1407 33.2025 39.8797 33.441Z" fill="#42A2C4"/>
</svg>
