<svg width="120" height="111" viewBox="0 0 120 111" fill="none" xmlns="http://www.w3.org/2000/svg">
<path d="M16.508 49.839C18.656 50.6417 20.9121 51.2137 23.2314 51.5435C26.0758 51.99 26.4866 52.0113 26.978 51.7378C28.0503 51.1415 27.919 49.2984 26.7882 49.1145C23.8509 48.6533 20.9636 48.0041 18.148 47.1718L15.1862 46.2572L15.4343 45.2285C16.3182 42.2634 17.3674 39.3335 18.5777 36.4501C19.7276 33.953 21.0442 31.5146 22.5201 29.1488C23.5984 27.4164 27.0622 23.0488 27.3235 23.091C27.9761 23.7615 28.5863 24.465 29.1514 25.1984C29.7893 26.0566 30.5496 26.8334 31.4143 27.51C31.6166 27.5762 31.8343 27.6026 32.0531 27.5875C32.2719 27.5723 32.4869 27.516 32.6841 27.4221C32.8813 27.3282 33.0562 27.1988 33.1975 27.0425C33.3388 26.8862 33.4432 26.7065 33.504 26.5149C33.7023 25.9608 33.5952 25.7033 32.6458 24.441C32.0484 23.6486 31.1256 22.5098 30.5934 21.9098L29.6245 20.8206L31.0854 19.6897C34.0234 17.4144 37.8817 15.6109 44.2599 13.5385C47.2617 12.5618 50.3226 11.7615 53.4224 11.143C53.9723 11.1045 54.0079 11.1516 53.8749 11.703C53.072 15.0318 54.8 21.5678 56.8651 23.0181C57.0229 23.1448 57.2121 23.2366 57.4187 23.2867C57.6253 23.3368 57.8441 23.3438 58.0588 23.3074C58.2735 23.271 58.4786 23.192 58.6591 23.0762C58.8396 22.9604 58.9907 22.8109 59.1014 22.6386C59.5102 21.9183 59.4601 21.6632 58.7382 20.5242C57.3824 18.0352 56.8545 15.2183 57.2154 12.3973L57.3765 11.0619L58.193 11.3065C58.524 11.387 58.8345 11.5186 59.1109 11.6957C59.1925 12.1362 59.2164 12.5863 59.1823 13.0368C59.0462 17.8833 63.2498 21.9953 68.347 22.0084C70.6173 21.9547 72.8535 21.3106 74.785 20.154C76.7165 18.9973 78.2604 17.3777 79.23 15.4912C79.7024 14.5704 79.7875 14.5099 80.6387 14.4451L81.5431 14.3789L81.3622 15.1288C80.6359 16.9884 79.5638 18.7367 78.193 20.2967C77.5666 20.9468 76.8844 21.5522 76.1534 22.1069C74.4293 23.2357 72.4791 24.0392 70.4277 24.466C68.4275 24.7291 67.7223 24.9634 67.3203 25.4949C66.5822 26.4795 67.163 27.5498 68.5502 27.7624C70.1957 28.0145 73.9439 27.0038 76.4508 25.6289C80.1412 23.4012 82.9227 20.131 84.3246 16.3721L84.9455 14.8501L88.6617 17.5871C95.6348 22.7241 99.7081 26.3969 102.07 29.6763L103.331 31.4258L101.667 32.6684C98.8268 34.8008 96.7461 36.7765 96.5689 37.511C96.4932 37.7356 96.4834 37.9713 96.5406 38.1946C96.5978 38.4179 96.7199 38.621 96.8948 38.7835C97.0697 38.946 97.2913 39.0623 97.5373 39.1207C97.7833 39.1792 98.0453 39.1778 98.2969 39.1166C99.2135 38.6803 100.032 38.0872 100.705 37.3724C101.836 36.2007 103.136 35.1685 104.567 34.3055C104.846 34.3482 106.233 38.484 106.602 40.3775C106.796 41.3672 107.029 42.9347 107.12 43.8596C107.468 47.3755 107.138 54.2009 106.524 56.1891C106.2 57.2382 106.177 57.2623 105.392 57.2957C102.04 57.3172 98.702 57.1159 95.4062 56.6935L91.3932 56.2055L92.4498 51.5769L93.5049 46.949L93.0303 46.4806C92.9015 46.3385 92.7364 46.2266 92.548 46.1537C92.3596 46.0807 92.1529 46.0487 91.944 46.06C91.735 46.0713 91.5295 46.1257 91.3433 46.2189C91.1571 46.3122 90.9953 46.4417 90.8703 46.5976C90.3457 47.1892 87.5115 57.2289 85.3952 66.0026C84.0892 71.4165 84.0669 71.5529 84.4223 72.0724C84.5396 72.2452 84.6975 72.392 84.8857 72.5029C85.0739 72.6139 85.2881 72.6866 85.5141 72.7162C85.7401 72.7457 85.9729 72.7316 86.197 72.6746C86.4212 72.6177 86.6316 72.5192 86.8146 72.3856L87.4679 71.9524L89.0601 65.634L90.6565 59.313L92.0165 59.5214C95.3382 59.9416 98.6945 60.1813 102.067 60.2392C105.686 60.2688 107.807 60.0007 108.796 59.3875L109.588 58.8986L110.097 56.2651C111.411 49.3223 111.023 42.2782 108.961 35.6316C106.111 27.6063 102.098 23.0894 90.9388 15.3429C88.698 13.7877 86.157 12.1567 85.2936 11.7119L83.7244 10.9093L81.6943 11.1454C78.8437 11.5088 75.97 11.5221 73.153 11.1849C68.5156 10.6452 63.9523 9.76762 59.5076 8.5606C58.526 8.24714 57.5231 7.98379 56.5037 7.77176C54.619 7.54163 42.7643 10.5455 37.5212 12.5796C31.8897 14.7916 26.9411 18.2821 23.1815 22.6942C18.5256 27.9746 14.185 36.513 11.799 45.0842C11.053 47.7679 11.36 48.0784 16.508 49.839ZM69.207 13.7708L75.7325 14.7707L75.4066 15.2349C74.2449 16.8486 72.4822 18.0487 70.4558 18.6055C69.0957 18.8619 67.7018 18.7922 66.416 18.4036C65.3239 17.9292 64.4057 17.196 63.7555 16.279C63.1053 15.3619 62.7464 14.294 62.7157 13.1846C62.6804 12.7707 62.7541 12.7766 69.207 13.7708Z" fill="white"/>
<path d="M33.0478 28.7372C32.8474 28.81 32.6659 28.9222 32.5171 29.0651C32.3683 29.2081 32.2562 29.3781 32.1892 29.5622C32.1222 29.7463 32.1022 29.9397 32.1306 30.1277C32.159 30.3156 32.2351 30.4932 32.3531 30.647C32.5389 30.945 32.8501 31.1609 33.2208 31.249C33.5916 31.3372 33.993 31.2907 34.3404 31.1194C35.9475 30.1207 34.7824 27.9602 33.0478 28.7372Z" fill="white"/>
<path d="M35.5159 45.1727L37.422 37.901L36.9831 37.3054C36.9114 37.1436 36.7968 37.0013 36.649 36.8905C36.5011 36.7797 36.3242 36.7035 36.1329 36.6682C35.9416 36.6329 35.7415 36.6396 35.5492 36.6877C35.3569 36.7358 35.178 36.8239 35.0272 36.9447C34.4535 37.2986 34.3599 37.5221 33.44 40.7239C32.9029 42.5957 31.9964 45.66 31.4253 47.533C27.8414 59.3012 24.5871 72.9143 21.5173 88.9969C20.5239 94.1922 20.4334 94.9339 20.6554 95.6992C20.785 96.1584 21.0549 96.5704 21.4353 96.8902C22.1435 97.3357 25.3517 98.1185 30.6558 99.1407C36.6037 100.286 62.3593 104.1 66.8715 104.506C74.1884 105.161 77.8576 105.376 78.7073 105.202C80.3242 104.867 80.2481 105.095 83.2497 92.326C85.8831 81.1351 85.92 80.9484 85.6032 80.3346C85.5407 80.1453 85.4266 79.975 85.2708 79.8387C85.1151 79.7023 84.9225 79.6041 84.7101 79.5527C84.4977 79.5013 84.272 79.4983 84.0527 79.5439C83.8335 79.5894 83.6275 79.6822 83.4528 79.8141C82.9326 80.2216 82.7854 80.7201 80.0803 91.2765C78.5241 97.3452 77.2164 102.332 77.1716 102.358C76.9851 102.474 70.3118 101.76 62.6001 100.8C48.5991 99.0564 24.4532 94.9522 24.1811 94.269C24.0693 93.9888 26.1549 83.4496 28.1875 74.0224C29.2281 69.1916 30.6101 63.4777 31.7445 59.291C32.7708 55.5232 34.4662 49.1726 35.5159 45.1727Z" fill="white"/>
<path d="M63.2551 26.3689C63.4207 26.3008 63.5691 26.2013 63.6898 26.0776C63.8106 25.9539 63.9005 25.809 63.9533 25.6534C64.0061 25.4977 64.0204 25.3351 63.9951 25.1773C63.9699 25.0195 63.9058 24.8704 63.8073 24.7406C63.7288 24.5778 63.6123 24.4331 63.4653 24.3162C63.3182 24.1992 63.144 24.1124 62.9538 24.0614C62.7636 24.0104 62.5617 23.9964 62.3611 24.0203C62.1605 24.0441 61.9656 24.1053 61.7891 24.1998C61.5591 24.2873 61.3565 24.4277 61.2025 24.6062C61.0486 24.7847 60.9489 24.9949 60.914 25.2146C60.8791 25.4343 60.9102 25.6556 61.004 25.8553C61.0979 26.055 61.251 26.2257 61.4475 26.3497C61.6741 26.5659 61.9907 26.6891 62.329 26.6927C62.6673 26.6963 63 26.58 63.2551 26.3689Z" fill="white"/>
<path d="M78.1248 46.2158C79.581 46.3873 81.0634 46.3947 82.539 46.2378C82.8417 46.0881 83.0896 45.8579 83.2478 45.5796C83.4059 45.3014 83.4663 44.9892 83.4204 44.6871C83.288 43.688 82.7773 43.5404 78.1763 43.1643C72.9967 42.7421 72.6758 42.7467 72.0642 43.1661C71.748 43.4133 71.5283 43.7469 71.4412 44.1122C71.354 44.4776 71.4046 44.853 71.5846 45.1771C71.969 45.7651 72.7585 45.8907 78.1248 46.2158Z" fill="white"/>
<path d="M86.8116 77.4009C87.1214 77.1977 87.35 76.9091 87.4598 76.5826C87.5213 76.369 87.5227 76.1476 87.464 75.9387C87.4053 75.7297 87.2883 75.5399 87.1238 75.3866C86.9592 75.2334 86.7524 75.1216 86.5224 75.0615C86.2923 75.0015 86.0463 74.9951 85.8069 75.0429C85.5675 75.0907 85.3425 75.1913 85.1524 75.3353C84.9623 75.4793 84.8133 75.6622 84.719 75.8671C84.6247 76.0721 84.5882 76.2926 84.6128 76.5084C84.6373 76.7242 84.7222 76.9283 84.8596 77.1021C84.9531 77.2447 85.0799 77.3666 85.2316 77.4599C85.3834 77.5533 85.5568 77.6161 85.7407 77.6442C85.9247 77.6724 86.115 77.6653 86.2994 77.6234C86.4839 77.5814 86.6583 77.5056 86.8116 77.4009Z" fill="white"/>
</svg>
