<svg width="152" height="132" viewBox="0 0 152 132" fill="none" xmlns="http://www.w3.org/2000/svg">
<path d="M49.8963 81.8029C50.3227 87.0655 51.4274 95.7836 51.8466 97.1954C52.1017 98.0545 52.7293 98.5652 54.6295 99.454C57.3845 100.745 62.331 101.551 67.3272 101.524C73.1311 101.411 78.9132 100.867 84.6104 99.8974C89.6277 98.9686 94.528 97.6141 99.2411 95.8536C101.29 95.0621 108.284 91.7161 110.481 90.4786C112.225 89.55 113.772 88.3661 115.053 86.9792C115.176 86.8292 115.263 86.6589 115.309 86.4788C115.354 86.2987 115.357 86.1124 115.318 85.9312C115.009 84.8933 103.991 65.6335 101.172 61.2065C100.559 60.2439 99.7658 59.9376 99.0692 60.3927C98.2188 60.9502 98.3161 61.396 99.8996 64.2016C100.674 65.5747 102.954 69.6131 104.97 73.1795C106.986 76.7459 109.432 81.0878 110.413 82.8351L112.19 86.0075L111.397 86.6784C110.271 87.6323 107.741 89.0184 103.164 91.1908C97.8483 93.8628 92.0736 95.7759 86.0603 96.8572C81.5181 97.8626 76.8773 98.4956 72.1991 98.7478C64.9791 99.2484 59.5365 98.8443 56.2898 97.5677C55.0409 97.0736 54.9821 97.0311 54.696 96.2496C54.5318 95.8047 54.4535 95.433 54.5249 95.417C54.5963 95.4009 56.6579 95.5341 59.1121 95.7108C62.9304 96.0587 66.7738 96.1506 70.6084 95.9857C80.1123 95.5675 86.0018 94.3889 95.2174 91.0593C99.5208 89.5032 103.751 87.4899 104.31 86.7232C104.417 86.5836 104.486 86.4252 104.513 86.2595C104.541 86.0938 104.526 85.9249 104.469 85.7649C104.413 85.6049 104.316 85.4577 104.186 85.3341C104.056 85.2104 103.896 85.1133 103.718 85.0497C102.989 84.7708 102.695 84.8638 99.6146 86.3571C97.9751 87.1526 97.2891 87.4171 97.1703 87.3035C96.9211 86.9103 96.7156 86.4974 96.5566 86.0703C95.6352 83.8548 91.2549 75.1836 90.8374 74.7495C90.6841 74.5534 90.4645 74.4034 90.2091 74.3203C89.9536 74.2372 89.6747 74.2251 89.411 74.2855C89.1472 74.3459 88.9115 74.476 88.7363 74.6577C88.5611 74.8395 88.4551 75.064 88.4329 75.3003C88.3261 75.771 88.5716 76.3143 91.1176 81.2408C92.6582 84.2223 94.0892 87.0541 94.2961 87.5347C94.6549 88.3618 94.652 88.4129 94.2676 88.5862C91.7838 89.527 89.237 90.3369 86.6412 91.0115L83.8032 91.7493L83.7056 91.0326C83.5707 90.0351 81.6899 81.3962 80.9493 78.3755C80.2679 75.5914 79.9879 75.0872 79.0603 74.9731C78.7315 74.9329 78.3975 75.0044 78.1278 75.1728C77.8581 75.3412 77.6735 75.5935 77.6123 75.8772C77.481 76.525 77.6589 77.4345 79.0222 83.0347C79.7364 85.9665 80.5267 89.2557 80.78 90.3416L81.238 92.3161L79.5595 92.5786C78.6365 92.723 76.8688 92.9384 75.6319 93.0583L73.3823 93.2738L73.2266 92.5571C73.1405 92.1627 72.8171 90.2973 72.509 88.4128C72.3364 87.1437 72.0786 85.8844 71.7369 84.6414C71.5834 84.3841 71.3451 84.1725 71.0523 84.0338C70.7596 83.8951 70.4258 83.8356 70.0939 83.8629C69.5105 83.9938 69.1724 84.5052 69.1617 85.2688C69.1565 85.6767 70.3779 92.6144 70.568 93.2546C70.6148 93.4122 69.7303 93.4705 66.8606 93.4976C62.6639 93.5369 62.6943 93.5414 62.6243 92.8803C62.5951 92.5864 62.4124 90.9081 62.2184 89.1513C62.0244 87.3945 61.7008 83.2202 61.494 79.875C61.2873 76.5297 61.0544 73.5789 60.9768 73.3175C60.5609 71.9171 58.4304 72.3211 58.2376 73.845C58.1608 74.4467 58.555 81.0317 58.8697 84.3762C59.0691 86.5089 59.8524 92.9431 59.9537 93.2844C59.9724 93.3473 56.0013 93.1338 55.0741 93.0213L54.2001 92.9161L54.0343 91.929C52.9451 85.4668 52.2107 74.2975 52.0866 62.3014C51.9998 53.9812 52.1767 45.7325 52.4448 45.3092C52.618 45.0387 56.1586 43.8663 59.987 42.8061C66.0906 41.1206 79.7364 38.3151 83.0589 38.0652C83.7446 38.0124 83.1914 37.2324 89.2144 46.7553C91.6173 50.5554 93.7929 53.9275 94.0449 54.2498C94.2176 54.5059 94.4772 54.7092 94.7881 54.8318C95.099 54.9545 95.446 54.9906 95.7814 54.935C96.3225 54.8136 96.7889 53.9617 96.6195 53.3978C96.3916 52.6302 92.4641 46.4356 88.9849 41.3492L86.0468 37.056L85.492 34.9987C84.5135 31.3659 83.5065 29.6617 82.2357 29.4652C79.982 29.4178 77.7284 29.566 75.5085 29.9075C74.1039 30.1007 70.6463 30.7798 67.636 31.4535C62.6111 32.5809 62.2495 32.6794 61.976 33.0404C61.7983 33.3071 61.7476 33.6237 61.8348 33.9224C61.9221 34.2212 62.1402 34.4785 62.4427 34.6393C62.859 34.8298 63.3789 34.755 67.8594 33.8595C72.0243 32.9933 76.2522 32.3747 80.5139 32.008L81.5052 31.972L81.8538 32.7648C82.0451 33.2 82.348 33.9769 82.5238 34.4914L82.844 35.4247L82.2891 35.5065C81.9839 35.5515 80.8158 35.7143 79.6914 35.869C76.4127 36.3206 64.4102 38.9064 60.6993 39.9611C57.6077 40.8402 53.8566 42.0494 52.6522 42.5556L52.1052 42.7855L51.7739 41.6222C51.5944 40.9937 51.4548 40.3571 51.3559 39.7153L51.2676 38.9791L52.4548 38.4253C53.108 38.1211 54.2573 37.6455 55.0079 37.3691C56.5816 36.7905 57.166 36.2413 56.9572 35.5382C56.8464 35.2532 56.627 35.0096 56.3353 34.8477C55.6548 34.4995 54.5137 34.8069 51.7592 36.0825C48.9757 37.3716 48.6762 37.5677 48.5065 38.2111C48.4922 39.8981 48.7761 41.5769 49.3483 43.1889C49.7112 44.08 49.8226 45.0339 49.6732 45.9702C48.8404 53.0866 48.9483 70.1032 49.8963 81.8029Z" fill="white"/>
<path d="M60.258 35.5137C60.5119 35.3025 60.6803 35.0255 60.738 34.7241C60.7981 34.5634 60.7905 34.3895 60.7166 34.2332C60.6426 34.077 60.5072 33.9487 60.3345 33.8713C60.1866 33.7618 60.0133 33.6812 59.8264 33.6351C59.6394 33.589 59.4433 33.5785 59.2513 33.6042C59.0592 33.63 58.8758 33.6913 58.7135 33.7842C58.5512 33.8771 58.4139 33.9993 58.3108 34.1425C58.1902 34.2911 58.1164 34.4646 58.0969 34.6457C58.0774 34.8268 58.1127 35.0092 58.1995 35.1747C58.2862 35.3402 58.4213 35.4831 58.5913 35.5891C58.7613 35.6952 58.9603 35.7607 59.1685 35.7791C59.3598 35.8347 59.5659 35.8391 59.7602 35.7918C59.9544 35.7445 60.1278 35.6477 60.258 35.5137Z" fill="white"/>
<path d="M96.81 58.4555C97.0318 58.7244 97.3498 58.9219 97.7142 59.0173C99.0401 59.1632 99.6584 57.8843 98.7081 56.9653C97.4391 55.7284 95.655 57.1303 96.81 58.4555Z" fill="white"/>
<path d="M92.6429 62.6827C92.4571 62.7155 92.2817 62.7829 92.1288 62.8804C91.9759 62.9779 91.8492 63.1031 91.7575 63.2474C91.6658 63.3916 91.6112 63.5515 91.5975 63.7159C91.5839 63.8803 91.6115 64.0453 91.6785 64.1995C91.8846 64.8936 95.0428 71.0823 98.1147 76.8148C100.097 80.5124 100.332 80.8821 100.857 81.1102C101.068 81.2517 101.334 81.318 101.6 81.2954C101.865 81.2729 102.111 81.1632 102.287 80.9888C103.028 80.3958 103.37 81.1813 95.885 66.3329C94.0717 62.7332 93.7965 62.4239 92.6429 62.6827Z" fill="white"/>
<path d="M108.628 82.8941C108.6 82.749 108.536 82.611 108.44 82.4897C108.345 82.3683 108.22 82.2665 108.074 82.1914C107.929 82.1162 107.766 82.0695 107.598 82.0546C107.43 82.0396 107.26 82.0567 107.1 82.1046C106.836 82.1537 106.593 82.266 106.399 82.4288C106.205 82.5917 106.067 82.7985 106.001 83.0259C105.935 83.2534 105.943 83.4924 106.025 83.7158C106.107 83.9393 106.26 84.1383 106.465 84.2903C106.716 84.384 106.99 84.4189 107.261 84.3914C107.532 84.3638 107.79 84.2749 108.009 84.1335C108.228 83.9922 108.401 83.8032 108.509 83.5857C108.618 83.3682 108.659 83.1297 108.628 82.8941Z" fill="white"/>
<path d="M69.1386 78.03C68.8313 78.1427 68.574 78.3384 68.4047 78.5882C68.2355 78.8379 68.1632 79.1284 68.1987 79.4167C68.3288 79.6576 68.5285 79.8652 68.7783 80.0191C68.916 80.122 69.0796 80.1951 69.256 80.2325C69.4324 80.2698 69.6164 80.2703 69.793 80.2339C70.1294 80.1585 70.4174 79.9699 70.5939 79.7099C70.7703 79.4498 70.8207 79.1394 70.7339 78.847C70.6471 78.5546 70.4302 78.3042 70.131 78.1508C69.8318 77.9975 69.4749 77.9545 69.1386 78.03Z" fill="white"/>
</svg>
