<svg width="84" height="83" viewBox="0 0 84 83" fill="none" xmlns="http://www.w3.org/2000/svg">
<path d="M15.8963 57.8029C16.3227 63.0655 17.4274 71.7836 17.8466 73.1954C18.1017 74.0545 18.7293 74.5652 20.6295 75.454C23.3845 76.7451 28.331 77.5506 33.3272 77.5244C39.1311 77.411 44.9132 76.8667 50.6104 75.8974C55.6277 74.9686 60.528 73.6141 65.2411 71.8536C67.2896 71.0621 74.2839 67.7161 76.4806 66.4786C78.2254 65.55 79.7722 64.3661 81.0526 62.9792C81.1761 62.8292 81.2632 62.6589 81.3088 62.4788C81.3543 62.2987 81.3573 62.1124 81.3176 61.9312C81.0094 60.8933 69.9911 41.6335 67.1716 37.2065C66.5591 36.2439 65.7658 35.9376 65.0692 36.3927C64.2188 36.9502 64.3161 37.396 65.8996 40.2016C66.6741 41.5747 68.9543 45.6131 70.9702 49.1795C72.9861 52.7459 75.4316 57.0878 76.4134 58.8351L78.19 62.0075L77.3972 62.6784C76.2707 63.6323 73.7414 65.0184 69.1641 67.1908C63.8483 69.8628 58.0736 71.7759 52.0603 72.8572C47.5181 73.8626 42.8773 74.4956 38.1991 74.7478C30.9791 75.2484 25.5365 74.8443 22.2898 73.5677C21.0409 73.0736 20.9821 73.0311 20.696 72.2496C20.5318 71.8047 20.4535 71.433 20.5249 71.417C20.5963 71.4009 22.6579 71.5341 25.1121 71.7108C28.9304 72.0587 32.7738 72.1506 36.6084 71.9857C46.1123 71.5675 52.0018 70.3889 61.2174 67.0593C65.5208 65.5032 69.7506 63.4899 70.3105 62.7232C70.4167 62.5836 70.486 62.4252 70.5134 62.2595C70.5409 62.0938 70.5257 61.9249 70.4691 61.7649C70.4125 61.6049 70.3158 61.4577 70.186 61.3341C70.0562 61.2104 69.8965 61.1133 69.7183 61.0497C68.9893 60.7708 68.6952 60.8638 65.6146 62.3571C63.9751 63.1526 63.2891 63.4171 63.1703 63.3035C62.9211 62.9103 62.7156 62.4974 62.5566 62.0703C61.6352 59.8548 57.2549 51.1836 56.8374 50.7495C56.6841 50.5534 56.4645 50.4034 56.2091 50.3203C55.9536 50.2372 55.6747 50.2251 55.411 50.2855C55.1472 50.3459 54.9115 50.476 54.7363 50.6577C54.5611 50.8395 54.4551 51.064 54.4329 51.3003C54.3261 51.771 54.5716 52.3143 57.1176 57.2408C58.6582 60.2223 60.0892 63.0541 60.2961 63.5347C60.6549 64.3618 60.652 64.4129 60.2676 64.5862C57.7838 65.527 55.237 66.3369 52.6412 67.0115L49.8032 67.7493L49.7056 67.0326C49.5707 66.0351 47.6899 57.3962 46.9493 54.3755C46.2679 51.5914 45.9879 51.0872 45.0603 50.9731C44.7315 50.9329 44.3975 51.0044 44.1278 51.1728C43.8581 51.3412 43.6735 51.5935 43.6123 51.8772C43.481 52.525 43.6589 53.4345 45.0222 59.0347C45.7364 61.9665 46.5267 65.2557 46.78 66.3416L47.238 68.3161L45.5595 68.5786C44.6365 68.723 42.8688 68.9384 41.6319 69.0583L39.3823 69.2738L39.2266 68.5571C39.1405 68.1627 38.8171 66.2973 38.509 64.4128C38.3364 63.1437 38.0786 61.8844 37.7369 60.6414C37.5834 60.3841 37.3451 60.1725 37.0523 60.0338C36.7596 59.8951 36.4258 59.8356 36.0939 59.8629C35.5105 59.9938 35.1724 60.5052 35.1617 61.2688C35.1565 61.6767 36.3779 68.6144 36.568 69.2546C36.6148 69.4122 35.7303 69.4705 32.8606 69.4976C28.6639 69.5369 28.6943 69.5414 28.6243 68.8803C28.5951 68.5864 28.4124 66.9081 28.2184 65.1513C28.0244 63.3945 27.7008 59.2202 27.494 55.875C27.2873 52.5297 27.0544 49.5789 26.9768 49.3175C26.5609 47.9171 24.4304 48.3211 24.2376 49.845C24.1608 50.4467 24.555 57.0317 24.8697 60.3762C25.0691 62.5089 25.8524 68.9431 25.9537 69.2844C25.9724 69.3473 22.0013 69.1338 21.0741 69.0213L20.2001 68.9161L20.0343 67.929C18.9451 61.4668 18.2107 50.2975 18.0866 38.3014C17.9998 29.9812 18.1767 21.7325 18.4448 21.3092C18.618 21.0387 22.1586 19.8663 25.987 18.8061C32.0906 17.1206 45.7364 14.3151 49.0589 14.0652C49.7446 14.0124 49.1914 13.2324 55.2144 22.7553C57.6173 26.5554 59.7929 29.9275 60.0449 30.2498C60.2176 30.5059 60.4772 30.7092 60.7881 30.8318C61.099 30.9545 61.446 30.9906 61.7814 30.935C62.3225 30.8136 62.7889 29.9617 62.6195 29.3978C62.3916 28.6302 58.4641 22.4356 54.9849 17.3492L52.0468 13.056L51.492 10.9987C50.5135 7.36586 49.5065 5.6617 48.2357 5.46516C45.982 5.41776 43.7284 5.56596 41.5085 5.90754C40.1039 6.10073 36.6463 6.7798 33.636 7.45346C28.6111 8.58085 28.2495 8.67938 27.976 9.04038C27.7983 9.30711 27.7476 9.62368 27.8348 9.92244C27.9221 10.2212 28.1402 10.4785 28.4427 10.6393C28.859 10.8298 29.3789 10.755 33.8594 9.8595C38.0243 8.9933 42.2522 8.37471 46.5139 8.00803L47.5052 7.97201L47.8538 8.76478C48.0451 9.20001 48.348 9.97692 48.5238 10.4914L48.844 11.4247L48.2891 11.5065C47.9839 11.5515 46.8158 11.7143 45.6914 11.869C42.4127 12.3206 30.4102 14.9064 26.6993 15.9611C23.6077 16.8402 19.8566 18.0494 18.6522 18.5556L18.1052 18.7855L17.7739 17.6222C17.5944 16.9937 17.4548 16.3571 17.3559 15.7153L17.2676 14.9791L18.4548 14.4253C19.108 14.1211 20.2573 13.6455 21.0079 13.3691C22.5816 12.7905 23.166 12.2413 22.9572 11.5382C22.8464 11.2532 22.627 11.0096 22.3353 10.8477C21.6548 10.4995 20.5137 10.8069 17.7592 12.0825C14.9757 13.3716 14.6762 13.5677 14.5065 14.2111C14.4922 15.8981 14.7761 17.5769 15.3483 19.1889C15.7112 20.08 15.8226 21.0339 15.6732 21.9702C14.8404 29.0866 14.9483 46.1032 15.8963 57.8029Z" fill="white"/>
<path d="M26.258 11.5137C26.5119 11.3025 26.6803 11.0255 26.738 10.7241C26.7981 10.5634 26.7905 10.3895 26.7166 10.2332C26.6426 10.077 26.5072 9.94874 26.3345 9.87134C26.1866 9.76179 26.0133 9.68122 25.8264 9.63513C25.6394 9.58904 25.4433 9.5785 25.2513 9.60422C25.0592 9.62995 24.8758 9.69135 24.7135 9.78423C24.5512 9.87711 24.4139 9.99929 24.3108 10.1425C24.1902 10.2911 24.1164 10.4646 24.0969 10.6457C24.0774 10.8268 24.1127 11.0092 24.1995 11.1747C24.2862 11.3402 24.4213 11.4831 24.5913 11.5891C24.7613 11.6952 24.9603 11.7607 25.1685 11.7791C25.3598 11.8347 25.5659 11.8391 25.7602 11.7918C25.9544 11.7445 26.1278 11.6477 26.258 11.5137Z" fill="white"/>
<path d="M62.81 34.4555C63.0318 34.7244 63.3498 34.9219 63.7142 35.0173C65.0401 35.1632 65.6584 33.8843 64.7081 32.9653C63.4391 31.7284 61.655 33.1303 62.81 34.4555Z" fill="white"/>
<path d="M58.6429 38.6827C58.4571 38.7155 58.2817 38.7829 58.1288 38.8804C57.9759 38.9779 57.8492 39.1031 57.7575 39.2474C57.6658 39.3916 57.6112 39.5515 57.5975 39.7159C57.5839 39.8803 57.6115 40.0453 57.6785 40.1995C57.8846 40.8936 61.0428 47.0823 64.1147 52.8148C66.0974 56.5124 66.3324 56.8821 66.857 57.1102C67.0685 57.2517 67.334 57.318 67.5996 57.2954C67.8652 57.2729 68.111 57.1632 68.2869 56.9888C69.0277 56.3958 69.3701 57.1813 61.885 42.3329C60.0717 38.7332 59.7965 38.4239 58.6429 38.6827Z" fill="white"/>
<path d="M74.6278 58.8941C74.5999 58.749 74.5359 58.611 74.4403 58.4897C74.3447 58.3683 74.2199 58.2665 74.0744 58.1914C73.929 58.1162 73.7665 58.0695 73.5981 58.0546C73.4298 58.0396 73.2598 58.0567 73.0998 58.1046C72.8359 58.1537 72.5931 58.266 72.3988 58.4288C72.2046 58.5917 72.0666 58.7985 72.0006 59.0259C71.9346 59.2534 71.9431 59.4924 72.0252 59.7158C72.1073 59.9393 72.2598 60.1383 72.4653 60.2903C72.7159 60.384 72.9904 60.4189 73.2613 60.3914C73.5322 60.3638 73.7901 60.2749 74.0091 60.1335C74.2281 59.9922 74.4005 59.8032 74.5091 59.5857C74.6177 59.3682 74.6586 59.1297 74.6278 58.8941Z" fill="white"/>
<path d="M35.1386 54.03C34.8313 54.1427 34.574 54.3384 34.4047 54.5882C34.2355 54.8379 34.1632 55.1284 34.1987 55.4167C34.3288 55.6576 34.5285 55.8652 34.7783 56.0191C34.916 56.122 35.0796 56.1951 35.256 56.2325C35.4324 56.2698 35.6164 56.2703 35.793 56.2339C36.1294 56.1585 36.4174 55.9699 36.5939 55.7099C36.7703 55.4498 36.8207 55.1394 36.7339 54.847C36.6471 54.5546 36.4302 54.3042 36.131 54.1508C35.8318 53.9975 35.4749 53.9545 35.1386 54.03Z" fill="white"/>
</svg>
