<svg width="139" height="121" viewBox="0 0 139 121" fill="none" xmlns="http://www.w3.org/2000/svg">
<path d="M43.9925 47.1359C44.1698 46.9361 44.2919 46.7034 44.3492 46.456C44.2513 46.1924 44.0726 45.957 43.8323 45.7751C43.592 45.5931 43.2992 45.4715 42.9854 45.4234C42.7414 45.4458 42.51 45.529 42.3191 45.6629C42.1282 45.7969 41.9858 45.976 41.9091 46.1786C41.8325 46.3812 41.8248 46.5988 41.887 46.8051C41.9491 47.0114 42.0786 47.1978 42.2597 47.3417C42.3793 47.446 42.5251 47.5248 42.6856 47.5719C42.8461 47.619 43.017 47.6331 43.1849 47.6132C43.3528 47.5932 43.513 47.5398 43.6532 47.4569C43.7933 47.3741 43.9094 47.2643 43.9925 47.1359Z" fill="white"/>
<path d="M64.167 77.8552C64.2495 78.1471 64.438 78.4081 64.7045 78.5997C64.9408 78.7804 65.2309 78.8995 65.5415 78.9433C65.8522 78.9871 66.1707 78.9539 66.4606 78.8475C66.7505 78.7411 67 78.5658 67.1805 78.3417C67.361 78.1176 67.4651 77.8538 67.4809 77.5805C67.4275 76.8663 66.8284 76.5104 65.7825 76.5694C65.3816 76.5826 64.9991 76.719 64.7032 76.9545C64.4074 77.19 64.2173 77.5092 64.167 77.8552Z" fill="white"/>
<path d="M69.386 76.7052C69.2357 76.8581 69.1335 77.0421 69.0894 77.2395C69.0453 77.4369 69.0608 77.6408 69.1343 77.8314C69.2078 78.022 69.3369 78.1929 69.509 78.3272C69.6811 78.4616 69.8903 78.5549 70.1162 78.5981C70.4386 78.6501 70.7711 78.63 71.0821 78.5394C71.3932 78.4489 71.6725 78.291 71.894 78.0807C72.3082 77.5844 72.2623 77.2009 71.7264 76.6821C71.4089 76.4215 70.9874 76.2783 70.5508 76.2826C70.1142 76.287 69.6966 76.4385 69.386 76.7052Z" fill="white"/>
<path d="M74.4541 76.249C74.2431 76.3449 74.0663 76.4892 73.943 76.6663C73.8197 76.8434 73.7546 77.0465 73.7548 77.2535C73.7549 77.4605 73.8202 77.6635 73.9437 77.8404C74.0673 78.0174 74.2442 78.1616 74.4553 78.2573C75.7997 78.7296 76.9472 77.875 76.4213 76.7942C76.3358 76.6441 76.2165 76.5104 76.0703 76.4013C75.9242 76.2921 75.7543 76.2096 75.5707 76.1587C75.3872 76.1079 75.1937 76.0896 75.0019 76.1051C74.81 76.1206 74.6237 76.1695 74.4541 76.249Z" fill="white"/>
<path d="M79.5119 95.2506C79.2393 95.2628 78.9768 95.3443 78.7569 95.485C78.5371 95.6257 78.3695 95.8194 78.2751 96.042C78.1807 96.2646 78.1635 96.5065 78.2256 96.7375C78.2878 96.9686 78.4266 97.1787 78.6248 97.3419C78.9173 97.5317 79.2728 97.6338 79.6378 97.6327C80.0135 97.5792 80.3579 97.4183 80.6166 97.1755C80.8752 96.9326 81.0333 96.6217 81.0658 96.292C80.968 95.9973 80.7646 95.7374 80.4851 95.5501C80.2056 95.3628 79.8647 95.2579 79.5119 95.2506Z" fill="white"/>
<path d="M56.2 91.2729C56.8121 91.4483 68.0191 90.8151 74.7143 90.2283C81.2607 89.6535 87.0226 88.914 87.8933 88.5408C88.1388 88.4445 88.349 88.2911 88.5005 88.0975C88.6521 87.9039 88.7392 87.6777 88.7522 87.4438C88.7652 87.2099 88.7036 86.9774 88.5742 86.7721C88.4448 86.5667 88.2526 86.3964 88.0189 86.2799C87.563 86.0551 87.2521 86.0655 84.9593 86.3853C80.0471 87.0707 58.7141 88.9509 58.6954 88.7004C58.6916 88.6493 59.161 87.3228 59.7365 85.753C60.7297 83.05 62.3432 77.8493 62.674 76.2889C62.7079 75.9759 62.8634 75.6822 63.1151 75.4564C66.4912 74.9079 69.9111 74.5876 73.3442 74.4985C77.9542 74.3774 77.9758 74.3806 78.2029 75.1568C78.8535 77.3756 82.0867 83.2239 83.1365 84.0767C83.3439 84.2436 83.6028 84.3542 83.8814 84.395C84.1601 84.4358 84.4463 84.4051 84.7052 84.3065C84.964 84.2079 85.1841 84.0459 85.3385 83.8401C85.4929 83.6344 85.5749 83.394 85.5744 83.1484C85.3503 82.4867 85.0117 81.8584 84.5703 81.2852C83.0577 79.0653 81.8232 76.7109 80.8878 74.2623C80.6602 73.5219 80.32 72.8112 79.8762 72.1489C79.3411 71.7222 77.2042 71.6603 72.3691 71.9322C68.8015 72.0736 65.2568 72.5048 61.7816 73.2203C60.7787 73.5009 59.9774 74.2847 60.0262 74.9382C60.0965 75.8791 57.9763 82.2764 56.1664 86.5796C55.7113 87.583 55.3513 88.6171 55.0902 89.6716C55.0481 90.0073 55.1339 90.3457 55.3343 90.635C55.5348 90.9243 55.8389 91.1484 56.2 91.2729Z" fill="white"/>
<path d="M70.6242 31.5298C73.1782 29.8401 75.3476 27.7516 77.0216 25.3711C78.0199 23.7332 78.1692 22.8268 77.521 22.332C77.2129 22.1135 76.8198 22.0066 76.4233 22.0335C76.0269 22.0605 75.6576 22.2193 75.3924 22.4769C75.0204 22.8699 74.9398 22.8824 73.2179 22.8245C71.1518 22.756 70.4673 22.9346 70.2529 23.5967C70.066 24.1766 70.321 24.8636 70.7745 25.0018C71.3013 25.1106 71.8364 25.1867 72.3756 25.2294L73.6244 25.3485L72.977 26.0934C71.8866 27.3576 67.5951 30.7204 67.031 30.7522C65.0891 29.8955 63.2445 28.8815 61.5216 27.7236C60.0162 26.7459 59.9222 26.6467 60.3093 26.4964C60.543 26.4053 62.2846 26.0999 64.1799 25.8176C65.4857 25.6566 66.7757 25.4104 68.0389 25.0809C68.2372 24.9451 68.3903 24.7659 68.4826 24.5616C68.5749 24.3574 68.603 24.1355 68.5641 23.9186C68.5253 23.7018 68.4207 23.4979 68.2613 23.3278C68.1018 23.1577 67.8932 23.0275 67.6567 22.9506C67.0993 22.7845 66.6338 22.8126 64.5848 23.1363C62.2281 23.4946 59.8969 23.9694 57.6025 24.5584C57.5158 24.612 57.2376 24.393 56.9843 24.0699C56.2489 23.1302 55.2212 22.9296 54.4199 23.5761C53.8499 24.0333 53.9501 24.9655 54.669 25.8893C55.8454 27.4001 62.6763 31.7675 65.592 32.8728C67.5012 33.5975 67.8161 33.5169 70.6242 31.5298Z" fill="white"/>
<path d="M75.4742 30.2503C73.9118 31.3746 73.5803 31.5465 73.235 31.4101C73.0292 31.342 72.8074 31.3184 72.5887 31.3412C72.3701 31.3641 72.1611 31.4328 71.9797 31.5413C71.7983 31.6499 71.65 31.7952 71.5474 31.9646C71.4449 32.134 71.3912 32.3225 71.3909 32.5139C71.3805 32.8273 71.2536 33.1292 71.0294 33.3747C70.7973 33.6239 70.6753 33.9368 70.6852 34.2573C70.6951 34.5777 70.8363 34.8845 71.0835 35.1224C71.4228 35.3465 71.842 35.4595 72.2677 35.4417L73.0831 35.4471L73.4983 36.5324C74.3514 38.8922 74.8464 41.3388 74.9708 43.81C75.1334 45.9882 75.116 46.6693 74.9101 46.9395C74.6913 47.2982 74.6447 47.7177 74.7804 48.1062C74.9161 48.4947 75.2231 48.8208 75.6344 49.0133C75.9229 49.1231 76.2396 49.1652 76.5527 49.1354C76.8658 49.1056 77.1644 49.005 77.4188 48.8436C78.5161 48.3123 78.5707 47.8974 78.1126 43.7824C77.9044 40.6928 77.118 37.6533 75.7842 34.7837L75.2226 33.7031L76.9996 32.3826C79.845 30.2685 80.6532 29.4675 80.6031 28.7973C80.5799 28.4888 80.4204 28.2 80.1581 27.9912C79.8957 27.7824 79.5507 27.6698 79.1951 27.6768C78.7524 27.7993 78.3537 28.0192 78.0376 28.3151C77.6339 28.6531 76.4815 29.524 75.4742 30.2503Z" fill="white"/>
<path d="M31.6807 90.4867C32.354 90.8259 32.5567 91.0306 32.584 91.3965C32.8401 92.6987 33.3678 93.9492 34.1411 95.0865C35.2295 96.2781 36.9518 96.6273 40.6953 96.4161C43.2315 96.273 44.2044 96.041 44.4797 95.5127C44.6172 95.2464 44.6585 94.9501 44.5984 94.6629C44.5382 94.3757 44.3793 94.1112 44.1426 93.9041C43.7592 93.6397 43.3598 93.625 40.5496 93.7694C39.3223 93.8733 38.0864 93.8745 36.8589 93.7731C36.4868 93.6603 36.2183 93.3797 35.9538 92.8252C35.2965 91.4454 35.163 91.5264 38.5195 91.3034C40.1004 91.2035 41.6724 91.0163 43.2261 90.743C43.811 90.6041 44.4051 90.496 45.0051 90.4194C45.0343 90.4426 45.39 91.8226 45.7954 93.4858C46.6415 96.959 46.9362 97.8492 47.3435 98.1061C47.8333 98.3161 48.3465 98.482 48.8751 98.6015L50.121 98.9155L50.9579 100.573C51.3268 101.331 51.7483 102.07 52.2202 102.784C53.0182 103.811 54.5166 104.204 58.0003 104.294C64.5136 104.464 86.9185 102.503 90.5003 101.451C92.234 100.943 93.0797 99.8259 93.3805 97.6464C93.396 97.2144 93.5175 96.7903 93.7369 96.4025C96.9909 95.3811 97.3365 95.1801 97.5067 94.2123L97.5931 93.7186L101.245 93.5125C106.285 93.2282 108.292 92.6934 109.437 91.3456C109.982 90.703 110.167 89.985 110.222 88.2905L110.262 87.0732L111.012 86.8308C111.476 86.7238 111.881 86.4767 112.154 86.1338C112.427 85.7909 112.551 85.3746 112.503 84.9596C112.533 84.2335 112.529 78.4936 112.493 74.3574C112.475 72.3809 111.016 58.2297 110.421 54.2721C108.5 41.5098 106.905 37.3535 102.094 32.5702C99.2603 29.7511 94.6199 27.2951 86.8428 24.499L84.3764 23.6126L84.168 22.5414C84.0373 21.9074 83.8129 21.2908 83.5003 20.707C82.5568 19.1361 80.0416 17.7743 76.6684 17.0082C72.893 16.1497 68.8428 16.1285 62.1882 16.9326C57.5439 17.4939 55.6415 17.8713 53.775 18.6054C49.4638 20.3001 47.5603 22.2999 47.7566 24.9287C47.7856 25.4753 47.8742 26.0182 48.0213 26.5502C48.1887 26.9632 48.1126 27.0224 46.2583 27.9205C41.1801 30.3802 36.1129 33.5742 34.004 35.6468C29.5594 40.003 27.4387 45.3695 26.914 53.5959C26.4998 60.0687 28.0427 77.661 29.7887 86.364C30.4271 89.5789 30.5913 89.9362 31.6807 90.4867ZM107.312 88.762C107.229 89.8461 107.078 90.0512 106.166 90.3276C104.09 90.7143 101.973 90.9106 99.8501 90.9133L97.7432 90.9667L97.525 88.0442L98.2666 88.1122C100.56 88.3109 102.871 88.3046 105.163 88.0933L107.382 87.8583L107.312 88.762ZM29.9882 54.4355C30.4207 46.1754 32.3346 41.1499 36.5384 37.2403C39.9878 34.4078 43.8156 31.945 47.9397 29.9049L49.6543 29.0315L51.8235 30.6449C53.3295 31.7351 54.9243 32.7292 56.5953 33.6194C58.0286 34.3683 59.2014 34.9982 59.203 35.0194C59.2045 35.0405 58.9147 35.8928 58.557 36.9155C57.5423 39.8074 57.3411 42.0787 57.7215 46.2999C57.8719 47.5267 57.933 48.7604 57.9046 49.9939C57.7233 50.2946 58.346 51.3212 58.8331 51.5142C59.2065 51.6747 59.6362 51.7057 60.0349 51.601C60.4336 51.4963 60.7716 51.2637 60.9803 50.9503C61.4999 50.3631 61.5373 50.2229 61.376 49.605C60.8613 47.3076 60.5919 44.9737 60.5712 42.6332C60.6065 39.7089 61.4591 36.1186 62.1797 35.8512C62.4517 35.7217 62.6992 35.5566 62.9134 35.3617C63.2956 35.0231 63.3142 34.891 63.128 33.9664C63.0659 33.5348 62.9192 33.1157 62.6942 32.7272C62.483 32.5298 62.1996 32.4021 61.8923 32.3659C61.585 32.3296 61.2727 32.387 61.0086 32.5283C60.5037 32.7923 60.4292 32.7637 57.8521 31.3222C52.417 28.2797 50.05 25.6946 50.9905 23.8279C51.6246 22.5656 54.1181 21.1542 56.9109 20.4777C61.0925 19.7387 65.3315 19.2713 69.5929 19.0794C74.5516 19.0298 78.206 19.8234 80.1554 21.3721C81.1745 22.1816 81.3556 23.3243 80.7493 25.1226C80.369 26.2519 80.3422 26.4925 80.5821 26.9084C80.7623 27.1958 81.0594 27.4143 81.4153 27.521C81.7712 27.6277 82.1601 27.615 82.5058 27.4853C82.8651 27.2884 83.1546 27.0088 83.342 26.6775C83.4515 26.4498 83.6018 26.2387 83.7873 26.0519C87.0415 27.222 90.2149 28.5547 93.2919 30.0435C96.6044 31.5298 99.4521 33.6934 101.59 36.3481C102.875 37.9079 103.84 39.6493 104.442 41.4952C106.114 45.9535 107.468 53.9392 108.618 66.1261C109.178 71.3003 109.43 76.4963 109.373 81.6932L109.354 84.7609L108.68 84.9256C105.412 85.6489 102.016 85.8243 98.6734 85.4423L97.5525 85.3161L97.2334 79.678C96.9092 73.8897 96.1539 66.8851 95.1522 60.4017C94.1716 54.0899 92.8837 46.9116 92.6378 46.4429C92.5416 46.1916 92.3551 45.9738 92.1059 45.8215C91.8566 45.6692 91.5577 45.5904 91.2531 45.5968C90.9485 45.6032 90.6543 45.6943 90.4138 45.8569C90.1733 46.0195 89.9991 46.2448 89.9169 46.4999C89.7568 46.9065 89.888 47.9821 90.5968 52.0573C92.5372 62.4063 93.786 72.8444 94.3369 83.319C94.6254 88.137 94.8318 92.361 94.7954 92.7057C94.7327 93.2982 94.6703 93.3504 93.6444 93.6633C91.122 94.2351 88.5417 94.5928 85.9398 94.7312C83.385 94.8975 82.9773 95.0046 82.5104 95.6278C82.3658 95.7556 82.2791 95.9243 82.266 96.1032C82.253 96.282 82.3146 96.4589 82.4394 96.6015C82.8714 97.3653 83.6362 97.4567 87.2256 97.1745C89.2886 97.0121 90.3292 96.9897 90.338 97.1078C90.343 97.698 90.1247 98.2732 89.7165 98.7449C88.8478 99.1995 85.4047 99.6674 77.5567 100.397C70.2337 101.076 58.9128 101.752 56.5618 101.647C55.9538 101.636 55.3491 101.566 54.7592 101.437C54.12 100.789 53.6632 100.021 53.4252 99.1931C53.4602 99.1575 54.856 99.1177 56.528 99.1066C58.2 99.0955 63.0758 98.8514 67.3662 98.5695C75.1096 98.0627 75.1723 98.0565 75.6048 97.6548C75.7461 97.5186 75.8506 97.3566 75.9106 97.1807C75.9706 97.0048 75.9846 96.8195 75.9515 96.6383C75.9184 96.4572 75.8392 96.2847 75.7195 96.1336C75.5999 95.9825 75.4428 95.8566 75.2599 95.765C74.6878 95.4431 74.5424 95.4469 63.9898 96.0422C53.5406 96.6318 50.6983 96.6735 49.635 96.2535C49.005 96.003 47.546 88.1702 46.6986 80.4499C46.0872 74.8815 45.3732 62.7002 45.3072 56.645C45.283 54.9567 45.2233 52.902 45.1619 52.0801C45.0603 50.7195 45.0049 50.5499 44.5392 50.1945C44.4072 50.0779 44.2481 49.987 44.0726 49.9278C43.8971 49.8687 43.7091 49.8427 43.5211 49.8515C43.3331 49.8604 43.1494 49.9039 42.9823 49.9791C42.8151 50.0544 42.6683 50.1597 42.5515 50.288L42.0476 50.7167L42.1238 55.0517C42.2849 64.031 42.8862 74.7043 43.5748 80.5553C43.9326 83.5868 44.2611 86.4445 44.3058 86.9069L44.3889 87.7471L43.2321 88.0275C40.7038 88.585 38.1039 88.8596 35.4956 88.8448C34.8763 88.8262 34.2631 88.7314 33.6744 88.5632C33.3387 88.3643 32.7217 85.5724 31.9557 80.7849C31.2992 76.6731 29.8447 57.1941 29.9882 54.4355Z" fill="white"/>
</svg>
