<svg width="92" height="93" viewBox="0 0 92 93" fill="none" xmlns="http://www.w3.org/2000/svg">
<path d="M20.9925 33.1359C21.1698 32.9361 21.2919 32.7034 21.3492 32.456C21.2513 32.1924 21.0726 31.957 20.8323 31.7751C20.592 31.5931 20.2992 31.4715 19.9854 31.4234C19.7414 31.4458 19.51 31.529 19.3191 31.6629C19.1282 31.7969 18.9858 31.976 18.9091 32.1786C18.8325 32.3812 18.8248 32.5988 18.887 32.8051C18.9491 33.0114 19.0786 33.1978 19.2597 33.3417C19.3793 33.446 19.5251 33.5248 19.6856 33.5719C19.8461 33.619 20.017 33.6331 20.1849 33.6132C20.3528 33.5932 20.513 33.5398 20.6532 33.4569C20.7933 33.3741 20.9094 33.2643 20.9925 33.1359Z" fill="white"/>
<path d="M41.167 63.8552C41.2495 64.1471 41.438 64.4081 41.7045 64.5997C41.9408 64.7804 42.2309 64.8995 42.5415 64.9433C42.8522 64.9871 43.1707 64.9539 43.4606 64.8475C43.7505 64.7411 44 64.5658 44.1805 64.3417C44.361 64.1176 44.4651 63.8538 44.4809 63.5805C44.4275 62.8663 43.8284 62.5104 42.7825 62.5694C42.3816 62.5826 41.9991 62.719 41.7032 62.9545C41.4074 63.19 41.2173 63.5092 41.167 63.8552Z" fill="white"/>
<path d="M46.386 62.7052C46.2357 62.8581 46.1335 63.0421 46.0894 63.2395C46.0453 63.4369 46.0608 63.6408 46.1343 63.8314C46.2078 64.022 46.3369 64.1929 46.509 64.3272C46.6811 64.4616 46.8903 64.5549 47.1162 64.5981C47.4386 64.6501 47.7711 64.63 48.0821 64.5394C48.3932 64.4489 48.6725 64.291 48.894 64.0807C49.3082 63.5844 49.2623 63.2009 48.7264 62.6821C48.4089 62.4215 47.9874 62.2783 47.5508 62.2826C47.1142 62.287 46.6966 62.4385 46.386 62.7052Z" fill="white"/>
<path d="M51.4541 62.249C51.2431 62.3449 51.0663 62.4892 50.943 62.6663C50.8197 62.8434 50.7546 63.0465 50.7548 63.2535C50.7549 63.4605 50.8202 63.6635 50.9437 63.8404C51.0673 64.0174 51.2442 64.1616 51.4553 64.2573C52.7997 64.7296 53.9472 63.875 53.4213 62.7942C53.3358 62.6441 53.2165 62.5104 53.0703 62.4013C52.9242 62.2921 52.7543 62.2096 52.5707 62.1587C52.3872 62.1079 52.1937 62.0896 52.0019 62.1051C51.81 62.1206 51.6237 62.1695 51.4541 62.249Z" fill="white"/>
<path d="M56.5119 81.2506C56.2393 81.2628 55.9768 81.3443 55.7569 81.485C55.5371 81.6257 55.3695 81.8194 55.2751 82.042C55.1807 82.2646 55.1635 82.5065 55.2256 82.7375C55.2878 82.9686 55.4266 83.1787 55.6248 83.3419C55.9173 83.5317 56.2728 83.6338 56.6378 83.6327C57.0135 83.5792 57.3579 83.4183 57.6166 83.1755C57.8752 82.9326 58.0333 82.6217 58.0658 82.292C57.968 81.9973 57.7646 81.7374 57.4851 81.5501C57.2056 81.3628 56.8647 81.2579 56.5119 81.2506Z" fill="white"/>
<path d="M33.2 77.2729C33.8121 77.4483 45.0191 76.8151 51.7143 76.2283C58.2607 75.6535 64.0226 74.914 64.8933 74.5408C65.1388 74.4445 65.349 74.2911 65.5005 74.0975C65.6521 73.9039 65.7392 73.6777 65.7522 73.4438C65.7652 73.2099 65.7036 72.9774 65.5742 72.7721C65.4448 72.5667 65.2526 72.3964 65.0189 72.2799C64.563 72.0551 64.2521 72.0655 61.9593 72.3853C57.0471 73.0707 35.7141 74.9509 35.6954 74.7004C35.6916 74.6493 36.161 73.3228 36.7365 71.753C37.7297 69.05 39.3432 63.8493 39.674 62.2889C39.7079 61.9759 39.8634 61.6822 40.1151 61.4564C43.4912 60.9079 46.9111 60.5876 50.3442 60.4985C54.9542 60.3774 54.9758 60.3806 55.2029 61.1568C55.8535 63.3756 59.0867 69.2239 60.1365 70.0767C60.3439 70.2436 60.6028 70.3542 60.8814 70.395C61.1601 70.4358 61.4463 70.4051 61.7052 70.3065C61.964 70.2079 62.1841 70.0459 62.3385 69.8401C62.4929 69.6344 62.5749 69.394 62.5744 69.1484C62.3503 68.4867 62.0117 67.8584 61.5703 67.2852C60.0577 65.0653 58.8232 62.7109 57.8878 60.2623C57.6602 59.5219 57.32 58.8112 56.8762 58.1489C56.3411 57.7222 54.2042 57.6603 49.3691 57.9322C45.8015 58.0736 42.2568 58.5048 38.7816 59.2203C37.7787 59.5009 36.9774 60.2847 37.0262 60.9382C37.0965 61.8791 34.9763 68.2764 33.1664 72.5796C32.7113 73.583 32.3513 74.6171 32.0902 75.6716C32.0481 76.0073 32.1339 76.3457 32.3343 76.635C32.5348 76.9243 32.8389 77.1484 33.2 77.2729Z" fill="white"/>
<path d="M47.6242 17.5298C50.1782 15.8401 52.3476 13.7516 54.0216 11.3711C55.0199 9.73318 55.1692 8.8268 54.521 8.33204C54.2129 8.11347 53.8198 8.00655 53.4233 8.03354C53.0269 8.06053 52.6576 8.21933 52.3924 8.47693C52.0204 8.86985 51.9398 8.88237 50.2179 8.82455C48.1518 8.75603 47.4673 8.93457 47.2529 9.59667C47.066 10.1766 47.321 10.8636 47.7745 11.0018C48.3013 11.1106 48.8364 11.1867 49.3756 11.2294L50.6244 11.3485L49.977 12.0934C48.8866 13.3576 44.5951 16.7204 44.031 16.7522C42.0891 15.8955 40.2445 14.8815 38.5216 13.7236C37.0162 12.7459 36.9222 12.6467 37.3093 12.4964C37.543 12.4053 39.2846 12.0999 41.1799 11.8176C42.4857 11.6566 43.7757 11.4104 45.0389 11.0809C45.2372 10.9451 45.3903 10.7659 45.4826 10.5616C45.5749 10.3574 45.603 10.1355 45.5641 9.91864C45.5253 9.70183 45.4207 9.49791 45.2613 9.32779C45.1018 9.15767 44.8932 9.02748 44.6567 8.95057C44.0993 8.78454 43.6338 8.81258 41.5848 9.13629C39.2281 9.49461 36.8969 9.96941 34.6025 10.5584C34.5158 10.612 34.2376 10.393 33.9843 10.0699C33.2489 9.13018 32.2212 8.92957 31.4199 9.57608C30.8499 10.0333 30.9501 10.9655 31.669 11.8893C32.8454 13.4001 39.6763 17.7675 42.592 18.8728C44.5012 19.5975 44.8161 19.5169 47.6242 17.5298Z" fill="white"/>
<path d="M52.4742 16.2503C50.9118 17.3746 50.5803 17.5465 50.235 17.4101C50.0292 17.342 49.8074 17.3184 49.5887 17.3412C49.3701 17.3641 49.1611 17.4328 48.9797 17.5413C48.7983 17.6499 48.65 17.7952 48.5474 17.9646C48.4449 18.134 48.3912 18.3225 48.3909 18.5139C48.3805 18.8273 48.2536 19.1292 48.0294 19.3747C47.7973 19.6239 47.6753 19.9368 47.6852 20.2573C47.6951 20.5777 47.8363 20.8845 48.0835 21.1224C48.4228 21.3465 48.842 21.4595 49.2677 21.4417L50.0831 21.4471L50.4983 22.5324C51.3514 24.8922 51.8464 27.3388 51.9708 29.81C52.1334 31.9882 52.116 32.6693 51.9101 32.9395C51.6913 33.2982 51.6447 33.7177 51.7804 34.1062C51.9161 34.4947 52.2231 34.8208 52.6344 35.0133C52.9229 35.1231 53.2396 35.1652 53.5527 35.1354C53.8658 35.1056 54.1644 35.005 54.4188 34.8436C55.5161 34.3123 55.5707 33.8974 55.1126 29.7824C54.9044 26.6928 54.118 23.6533 52.7842 20.7837L52.2226 19.7031L53.9996 18.3826C56.845 16.2685 57.6532 15.4675 57.6031 14.7973C57.5799 14.4888 57.4204 14.2 57.1581 13.9912C56.8957 13.7824 56.5507 13.6698 56.1951 13.6768C55.7524 13.7993 55.3537 14.0192 55.0376 14.3151C54.6339 14.6531 53.4815 15.524 52.4742 16.2503Z" fill="white"/>
<path d="M8.6807 76.4867C9.35396 76.8259 9.5567 77.0306 9.58402 77.3965C9.84011 78.6987 10.3678 79.9492 11.1411 81.0865C12.2295 82.2781 13.9518 82.6273 17.6953 82.4161C20.2315 82.273 21.2044 82.041 21.4797 81.5127C21.6172 81.2464 21.6585 80.9501 21.5984 80.6629C21.5382 80.3757 21.3793 80.1112 21.1426 79.9041C20.7592 79.6397 20.3598 79.625 17.5496 79.7694C16.3223 79.8733 15.0864 79.8745 13.8589 79.7731C13.4868 79.6603 13.2183 79.3797 12.9538 78.8252C12.2965 77.4454 12.163 77.5264 15.5195 77.3034C17.1004 77.2035 18.6724 77.0163 20.2261 76.743C20.811 76.6041 21.4051 76.496 22.0051 76.4194C22.0343 76.4426 22.39 77.8226 22.7954 79.4858C23.6415 82.959 23.9362 83.8492 24.3435 84.1061C24.8333 84.3161 25.3465 84.482 25.8751 84.6015L27.121 84.9155L27.9579 86.573C28.3268 87.3315 28.7483 88.0698 29.2202 88.7839C30.0182 89.8113 31.5166 90.204 35.0003 90.2944C41.5136 90.4636 63.9185 88.5034 67.5003 87.4512C69.234 86.9434 70.0797 85.8259 70.3805 83.6464C70.396 83.2144 70.5175 82.7903 70.7369 82.4025C73.9909 81.3811 74.3365 81.1801 74.5067 80.2123L74.5931 79.7186L78.2453 79.5125C83.2852 79.2282 85.292 78.6934 86.4373 77.3456C86.9822 76.703 87.167 75.985 87.2218 74.2905L87.2623 73.0732L88.0124 72.8308C88.4761 72.7238 88.8809 72.4767 89.154 72.1338C89.4271 71.7909 89.5507 71.3746 89.5027 70.9596C89.533 70.2335 89.5292 64.4936 89.4934 60.3574C89.4752 58.3809 88.0161 44.2297 87.4211 40.2721C85.5003 27.5098 83.9053 23.3535 79.0941 18.5702C76.2603 15.7511 71.6199 13.2951 63.8428 10.499L61.3764 9.61264L61.168 8.54135C61.0373 7.90743 60.8129 7.29085 60.5003 6.70696C59.5568 5.13608 57.0416 3.77431 53.6684 3.00823C49.893 2.14972 45.8428 2.1285 39.1882 2.93256C34.5439 3.49392 32.6415 3.87135 30.775 4.60541C26.4638 6.30007 24.5603 8.2999 24.7566 10.9287C24.7856 11.4753 24.8742 12.0182 25.0213 12.5502C25.1887 12.9632 25.1126 13.0224 23.2583 13.9205C18.1801 16.3802 13.1129 19.5742 11.004 21.6468C6.55944 26.003 4.43874 31.3695 3.91403 39.5959C3.49983 46.0687 5.04266 63.661 6.7887 72.364C7.42708 75.5789 7.5913 75.9362 8.6807 76.4867ZM84.3118 74.762C84.2287 75.8461 84.078 76.0512 83.1664 76.3276C81.0903 76.7143 78.9733 76.9106 76.8501 76.9133L74.7432 76.9667L74.525 74.0442L75.2666 74.1122C77.5602 74.3109 79.8711 74.3046 82.1632 74.0933L84.3818 73.8583L84.3118 74.762ZM6.98817 40.4355C7.42071 32.1754 9.3346 27.1499 13.5384 23.2403C16.9878 20.4078 20.8156 17.945 24.9397 15.9049L26.6543 15.0315L28.8235 16.6449C30.3295 17.7351 31.9243 18.7292 33.5953 19.6194C35.0286 20.3683 36.2014 20.9982 36.203 21.0194C36.2045 21.0405 35.9147 21.8928 35.557 22.9155C34.5423 25.8074 34.3411 28.0787 34.7215 32.2999C34.8719 33.5267 34.933 34.7604 34.9046 35.9939C34.7233 36.2946 35.346 37.3212 35.8331 37.5142C36.2065 37.6747 36.6362 37.7057 37.0349 37.601C37.4336 37.4963 37.7716 37.2637 37.9803 36.9503C38.4999 36.3631 38.5373 36.2229 38.376 35.605C37.8613 33.3076 37.5919 30.9737 37.5712 28.6332C37.6065 25.7089 38.4591 22.1186 39.1797 21.8512C39.4517 21.7217 39.6992 21.5566 39.9134 21.3617C40.2956 21.0231 40.3142 20.891 40.128 19.9664C40.0659 19.5348 39.9192 19.1157 39.6942 18.7272C39.483 18.5298 39.1996 18.4021 38.8923 18.3659C38.585 18.3296 38.2727 18.387 38.0086 18.5283C37.5037 18.7923 37.4292 18.7637 34.8521 17.3222C29.417 14.2797 27.05 11.6946 27.9905 9.8279C28.6246 8.56562 31.1181 7.15416 33.9109 6.47765C38.0925 5.73873 42.3315 5.27134 46.5929 5.07936C51.5516 5.02984 55.206 5.82345 57.1554 7.37211C58.1745 8.18157 58.3556 9.32435 57.7493 11.1226C57.369 12.2519 57.3422 12.4925 57.5821 12.9084C57.7623 13.1958 58.0594 13.4143 58.4153 13.521C58.7712 13.6277 59.1601 13.615 59.5058 13.4853C59.8651 13.2884 60.1546 13.0088 60.342 12.6775C60.4515 12.4498 60.6018 12.2387 60.7873 12.0519C64.0415 13.222 67.2149 14.5547 70.2919 16.0435C73.6044 17.5298 76.4521 19.6934 78.5897 22.3481C79.8749 23.9079 80.8397 25.6493 81.4415 27.4952C83.1141 31.9535 84.4683 39.9392 85.6177 52.1261C86.1782 57.3003 86.4301 62.4963 86.3726 67.6932L86.3541 70.7609L85.6798 70.9256C82.4124 71.6489 79.0163 71.8243 75.6734 71.4423L74.5525 71.3161L74.2334 65.678C73.9092 59.8897 73.1539 52.8851 72.1522 46.4017C71.1716 40.0899 69.8837 32.9116 69.6378 32.4429C69.5416 32.1916 69.3551 31.9738 69.1059 31.8215C68.8566 31.6692 68.5577 31.5904 68.2531 31.5968C67.9485 31.6032 67.6543 31.6943 67.4138 31.8569C67.1733 32.0195 66.9991 32.2448 66.9169 32.4999C66.7568 32.9065 66.888 33.9821 67.5968 38.0573C69.5372 48.4063 70.786 58.8444 71.3369 69.319C71.6254 74.137 71.8318 78.361 71.7954 78.7057C71.7327 79.2982 71.6703 79.3504 70.6444 79.6633C68.122 80.2351 65.5417 80.5928 62.9398 80.7312C60.385 80.8975 59.9773 81.0046 59.5104 81.6278C59.3658 81.7556 59.2791 81.9243 59.266 82.1032C59.253 82.282 59.3146 82.4589 59.4394 82.6015C59.8714 83.3653 60.6362 83.4567 64.2256 83.1745C66.2886 83.0121 67.3292 82.9897 67.338 83.1078C67.343 83.698 67.1247 84.2732 66.7165 84.7449C65.8478 85.1995 62.4047 85.6674 54.5567 86.3971C47.2337 87.0759 35.9128 87.7518 33.5618 87.6472C32.9538 87.6362 32.3491 87.5657 31.7592 87.4371C31.12 86.7894 30.6632 86.0211 30.4252 85.1931C30.4602 85.1575 31.856 85.1177 33.528 85.1066C35.2 85.0955 40.0758 84.8514 44.3662 84.5695C52.1096 84.0627 52.1723 84.0565 52.6048 83.6548C52.7461 83.5186 52.8506 83.3566 52.9106 83.1807C52.9706 83.0048 52.9846 82.8195 52.9515 82.6383C52.9184 82.4572 52.8392 82.2847 52.7195 82.1336C52.5999 81.9825 52.4428 81.8566 52.2599 81.765C51.6878 81.4431 51.5424 81.4469 40.9898 82.0422C30.5406 82.6318 27.6983 82.6735 26.635 82.2535C26.005 82.003 24.546 74.1702 23.6986 66.4499C23.0872 60.8815 22.3732 48.7002 22.3072 42.645C22.283 40.9567 22.2233 38.902 22.1619 38.0801C22.0603 36.7195 22.0049 36.5499 21.5392 36.1945C21.4072 36.0779 21.2481 35.987 21.0726 35.9278C20.8971 35.8687 20.7091 35.8427 20.5211 35.8515C20.3331 35.8604 20.1494 35.9039 19.9823 35.9791C19.8151 36.0544 19.6683 36.1597 19.5515 36.288L19.0476 36.7167L19.1238 41.0517C19.2849 50.031 19.8862 60.7043 20.5748 66.5553C20.9326 69.5868 21.2611 72.4445 21.3058 72.9069L21.3889 73.7471L20.2321 74.0275C17.7038 74.585 15.1039 74.8596 12.4956 74.8448C11.8763 74.8262 11.2631 74.7314 10.6744 74.5632C10.3387 74.3643 9.72168 71.5724 8.95568 66.7849C8.29922 62.6731 6.84472 43.1941 6.98817 40.4355Z" fill="white"/>
</svg>
