<svg width="17" height="16" viewBox="0 0 17 16" fill="none" xmlns="http://www.w3.org/2000/svg">
<path d="M13 1.3335C12.8232 1.3335 12.6536 1.40373 12.5286 1.52876C12.4036 1.65378 12.3333 1.82335 12.3333 2.00016V5.64016L11.6667 6.08683V2.00016C11.6667 1.82335 11.5964 1.65378 11.4714 1.52876C11.3464 1.40373 11.1768 1.3335 11 1.3335C10.8232 1.3335 10.6536 1.40373 10.5286 1.52876C10.4036 1.65378 10.3333 1.82335 10.3333 2.00016V6.08683L9.66667 5.64016V2.00016C9.66667 1.82335 9.59643 1.65378 9.4714 1.52876C9.34638 1.40373 9.17681 1.3335 9 1.3335C8.82319 1.3335 8.65362 1.40373 8.5286 1.52876C8.40357 1.65378 8.33333 1.82335 8.33333 2.00016V6.00016C8.3339 6.10997 8.36158 6.21793 8.41392 6.31446C8.46626 6.411 8.54163 6.4931 8.63333 6.5535L10.3333 7.6935V14.0002C10.3333 14.177 10.4036 14.3465 10.5286 14.4716C10.6536 14.5966 10.8232 14.6668 11 14.6668C11.1768 14.6668 11.3464 14.5966 11.4714 14.4716C11.5964 14.3465 11.6667 14.177 11.6667 14.0002V7.6935L13.3667 6.5535C13.4584 6.4931 13.5337 6.411 13.5861 6.31446C13.6384 6.21793 13.6661 6.10997 13.6667 6.00016V2.00016C13.6667 1.82335 13.5964 1.65378 13.4714 1.52876C13.3464 1.40373 13.1768 1.3335 13 1.3335ZM6.33333 1.3335C5.44928 1.3335 4.60143 1.68469 3.97631 2.30981C3.35119 2.93493 3 3.78277 3 4.66683V8.66683C3 8.84364 3.07024 9.01321 3.19526 9.13823C3.32029 9.26326 3.48986 9.3335 3.66667 9.3335H5.66667V14.0002C5.66667 14.177 5.7369 14.3465 5.86193 14.4716C5.98695 14.5966 6.15652 14.6668 6.33333 14.6668C6.51014 14.6668 6.67971 14.5966 6.80474 14.4716C6.92976 14.3465 7 14.177 7 14.0002V2.00016C7 1.82335 6.92976 1.65378 6.80474 1.52876C6.67971 1.40373 6.51014 1.3335 6.33333 1.3335ZM5.66667 8.00016H4.33333V4.66683C4.33312 4.25306 4.46124 3.84941 4.70004 3.51151C4.93884 3.17361 5.27656 2.91809 5.66667 2.78016V8.00016Z" fill="#FEA623"/>
</svg>
