<svg width="17" height="16" viewBox="0 0 17 16" fill="none" xmlns="http://www.w3.org/2000/svg">
<path d="M7.55741 10.7392C7.66076 10.7392 7.76179 10.7085 7.84772 10.6511C7.93365 10.5937 8.00063 10.5121 8.04018 10.4166C8.07973 10.3211 8.09007 10.2161 8.06991 10.1147C8.04975 10.0133 7.99998 9.92023 7.9269 9.84715C7.85383 9.77408 7.76072 9.72431 7.65936 9.70415C7.55799 9.68399 7.45293 9.69433 7.35745 9.73388C7.26197 9.77343 7.18036 9.84041 7.12294 9.92634C7.06552 10.0123 7.03488 10.1133 7.03488 10.2166C7.03488 10.3552 7.08993 10.4881 7.18792 10.5861C7.28592 10.6841 7.41883 10.7392 7.55741 10.7392Z" fill="#42A2C4"/>
<path d="M7.55741 8.64903C7.66076 8.64903 7.76179 8.61838 7.84772 8.56097C7.93365 8.50355 8.00063 8.42194 8.04018 8.32646C8.07973 8.23098 8.09007 8.12591 8.06991 8.02455C8.04975 7.92319 7.99998 7.83008 7.9269 7.757C7.85383 7.68392 7.76072 7.63416 7.65936 7.61399C7.55799 7.59383 7.45293 7.60418 7.35745 7.64373C7.26197 7.68328 7.18036 7.75025 7.12294 7.83619C7.06552 7.92212 7.03488 8.02314 7.03488 8.12649C7.03488 8.26508 7.08993 8.39799 7.18792 8.49598C7.28592 8.59398 7.41883 8.64903 7.55741 8.64903Z" fill="#42A2C4"/>
<path d="M5.23503 8.56097C5.1491 8.61838 5.04807 8.64903 4.94472 8.64903C4.80614 8.64903 4.67323 8.59398 4.57523 8.49598C4.47724 8.39799 4.42218 8.26508 4.42218 8.12649C4.42218 8.02314 4.45283 7.92212 4.51025 7.83619C4.56766 7.75025 4.64927 7.68328 4.74476 7.64373C4.84024 7.60418 4.9453 7.59383 5.04666 7.61399C5.14803 7.63416 5.24113 7.68392 5.31421 7.757C5.38729 7.83008 5.43706 7.92319 5.45722 8.02455C5.47738 8.12591 5.46703 8.23098 5.42748 8.32646C5.38794 8.42194 5.32096 8.50355 5.23503 8.56097Z" fill="#42A2C4"/>
<path d="M4.94472 10.7392C5.04807 10.7392 5.1491 10.7085 5.23503 10.6511C5.32096 10.5937 5.38794 10.5121 5.42748 10.4166C5.46703 10.3211 5.47738 10.2161 5.45722 10.1147C5.43706 10.0133 5.38729 9.92023 5.31421 9.84715C5.24113 9.77408 5.14803 9.72431 5.04666 9.70415C4.9453 9.68399 4.84024 9.69433 4.74476 9.73388C4.64927 9.77343 4.56766 9.84041 4.51025 9.92634C4.45283 10.0123 4.42218 10.1133 4.42218 10.2166C4.42218 10.3552 4.47724 10.4881 4.57523 10.5861C4.67323 10.6841 4.80614 10.7392 4.94472 10.7392Z" fill="#42A2C4"/>
<path d="M11.598 9.23297C11.8189 9.23297 11.998 9.41206 11.998 9.63297V11.0395L12.6203 11.4128C12.8097 11.5265 12.8711 11.7722 12.7575 11.9616C12.6438 12.1511 12.3981 12.2125 12.2087 12.0988L11.5507 11.7041C11.3319 11.5728 11.198 11.3363 11.198 11.081V9.63297C11.198 9.41206 11.3771 9.23297 11.598 9.23297Z" fill="#42A2C4"/>
<path fill-rule="evenodd" clip-rule="evenodd" d="M8.72974 12.8293H3.89965C3.48389 12.8293 3.08516 12.6642 2.79117 12.3702C2.49719 12.0762 2.33203 11.6775 2.33203 11.2617V3.94619C2.33203 3.53043 2.49719 3.1317 2.79117 2.83772C3.08516 2.54373 3.48389 2.37857 3.89965 2.37857H4.42218V1.85603C4.42218 1.71745 4.47724 1.58454 4.57523 1.48654C4.67323 1.38855 4.80614 1.3335 4.94472 1.3335C5.08331 1.3335 5.21622 1.38855 5.31421 1.48654C5.41221 1.58454 5.46726 1.71745 5.46726 1.85603V2.37857H9.64757V1.85603C9.64757 1.71745 9.70262 1.58454 9.80061 1.48654C9.89861 1.38855 10.0315 1.3335 10.1701 1.3335C10.3087 1.3335 10.4416 1.38855 10.5396 1.48654C10.6376 1.58454 10.6926 1.71745 10.6926 1.85603V2.37857H11.2152C11.6309 2.37857 12.0297 2.54373 12.3237 2.83772C12.6176 3.1317 12.7828 3.53043 12.7828 3.94619V8.22171C14.0008 8.69608 14.8639 9.8803 14.8639 11.2661C14.8639 13.0698 13.4017 14.5321 11.598 14.5321C10.3605 14.5321 9.28385 13.8439 8.72974 12.8293ZM8.37291 11.7843H3.89965C3.76106 11.7843 3.62815 11.7292 3.53016 11.6312C3.43216 11.5332 3.37711 11.4003 3.37711 11.2617V6.55888H11.7377L11.7377 8.0031C11.6914 8.00115 11.6448 8.00016 11.598 8.00016C11.2839 8.00016 10.9801 8.04451 10.6926 8.12727C10.6927 8.09295 10.6894 8.05854 10.6826 8.02455C10.6624 7.92319 10.6127 7.83008 10.5396 7.757C10.4665 7.68392 10.3734 7.63416 10.272 7.61399C10.1707 7.59383 10.0656 7.60418 9.97014 7.64373C9.87466 7.68328 9.79305 7.75025 9.73563 7.83619C9.67821 7.92212 9.64757 8.02314 9.64757 8.12649C9.64757 8.26508 9.70262 8.39799 9.80061 8.49598C9.80935 8.50472 9.81836 8.51311 9.82762 8.52115C8.92769 9.10276 8.33203 10.1149 8.33203 11.2661C8.33203 11.4424 8.346 11.6155 8.37291 11.7843ZM3.37711 5.5138H11.7377V3.94619C11.7377 3.8076 11.6827 3.67469 11.5847 3.5767C11.4867 3.4787 11.3538 3.42365 11.2152 3.42365H10.6926V3.94619C10.6926 4.08477 10.6376 4.21768 10.5396 4.31568C10.4416 4.41367 10.3087 4.46873 10.1701 4.46873C10.0315 4.46873 9.89861 4.41367 9.80061 4.31568C9.70262 4.21768 9.64757 4.08477 9.64757 3.94619V3.42365H5.46726V3.94619C5.46726 4.08477 5.41221 4.21768 5.31421 4.31568C5.21622 4.41367 5.08331 4.46873 4.94472 4.46873C4.80614 4.46873 4.67323 4.41367 4.57523 4.31568C4.47724 4.21768 4.42218 4.08477 4.42218 3.94619V3.42365H3.89965C3.76106 3.42365 3.62815 3.4787 3.53016 3.5767C3.43216 3.67469 3.37711 3.8076 3.37711 3.94619V5.5138ZM11.598 13.7321C12.9599 13.7321 14.0639 12.628 14.0639 11.2661C14.0639 9.90421 12.9599 8.80016 11.598 8.80016C10.2361 8.80016 9.13203 9.90421 9.13203 11.2661C9.13203 12.628 10.2361 13.7321 11.598 13.7321Z" fill="#42A2C4"/>
</svg>
