<svg width="17" height="16" viewBox="0 0 17 16" fill="none" xmlns="http://www.w3.org/2000/svg">
<path d="M10.3109 7.04707C10.4133 6.77213 10.4871 6.48642 10.5304 6.19438C10.6302 6.18944 10.7533 6.19287 10.8649 6.19598C10.9278 6.19773 10.987 6.19938 11.0364 6.19938C11.5989 6.19938 12.1558 6.30916 12.6754 6.52246C13.1951 6.73576 13.6672 7.0484 14.0649 7.44252C14.8681 8.2385 15.3193 9.31807 15.3193 10.4437C15.3231 11.4238 14.9806 12.3743 14.3514 13.1304L15.208 13.9793C15.2674 14.039 15.3077 14.1148 15.3237 14.1971C15.3397 14.2795 15.3307 14.3646 15.2979 14.4419C15.2623 14.5183 15.2047 14.5825 15.1322 14.6263C15.0598 14.6701 14.9758 14.6917 14.891 14.6881H11.0364C9.90055 14.6881 8.81119 14.2409 8.00799 13.445C7.2048 12.649 6.75357 11.5694 6.75357 10.4437C6.75357 10.4162 6.75302 10.3654 6.75235 10.3036C6.7505 10.1321 6.74774 9.87594 6.75325 9.7972C7.05571 9.76481 7.35239 9.70072 7.63855 9.60686C7.58098 9.99256 7.60111 10.7183 7.67819 11.1037C7.83226 11.8743 8.25116 12.5681 8.86351 13.0669C9.47586 13.5657 10.2438 13.8386 11.0364 13.8392H13.8589L13.4606 13.4445C13.3808 13.365 13.336 13.2574 13.336 13.1453C13.336 13.0332 13.3808 12.9256 13.4606 12.8461C14.0214 12.2909 14.3706 11.5602 14.4487 10.7785C14.5269 9.99684 14.3291 9.21246 13.8892 8.55904C13.4492 7.90563 12.7942 7.42361 12.0358 7.1951C11.5033 7.03463 10.841 6.98047 10.3008 7.08167C10.3042 7.07015 10.3076 7.05862 10.3109 7.04707Z" fill="#FF7388"/>
<path d="M13.3966 10.9656H9.1137C9.00011 10.9656 8.89117 11.0103 8.81085 11.0899C8.73053 11.1695 8.68541 11.2774 8.68541 11.39C8.68541 11.5026 8.73053 11.6105 8.81085 11.6901C8.89117 11.7697 9.00011 11.8144 9.1137 11.8144H13.3966C13.5102 11.8144 13.6191 11.7697 13.6994 11.6901C13.7797 11.6105 13.8249 11.5026 13.8249 11.39C13.8249 11.2774 13.7797 11.1695 13.6994 11.0899C13.6191 11.0103 13.5102 10.9656 13.3966 10.9656Z" fill="#FF7388"/>
<path d="M10.4625 9.11069H13.0323C13.1459 9.11069 13.2548 9.1554 13.3351 9.235C13.4154 9.3146 13.4606 9.42255 13.4606 9.53512C13.4606 9.64769 13.4154 9.75565 13.3351 9.83524C13.2548 9.91484 13.1459 9.95956 13.0323 9.95956H10.4625C10.3489 9.95956 10.24 9.91484 10.1597 9.83524C10.0794 9.75565 10.0343 9.64769 10.0343 9.53512C10.0343 9.42255 10.0794 9.3146 10.1597 9.235C10.24 9.1554 10.3489 9.11069 10.4625 9.11069Z" fill="#FF7388"/>
<path d="M6.2865 3.76945C6.20179 3.76945 6.11899 3.79434 6.04856 3.84098C5.97812 3.88762 5.92323 3.9539 5.89081 4.03146C5.8584 4.10902 5.84992 4.19436 5.86644 4.27669C5.88297 4.35902 5.92376 4.43465 5.98365 4.49401C6.04355 4.55337 6.11986 4.59379 6.20294 4.61017C6.28602 4.62654 6.37214 4.61814 6.4504 4.58601C6.52866 4.55389 6.59555 4.49949 6.64261 4.42969C6.68967 4.35989 6.71479 4.27783 6.71479 4.19389C6.71479 4.08132 6.66966 3.97336 6.58934 3.89376C6.50902 3.81417 6.40009 3.76945 6.2865 3.76945ZM6.29104 1.3335C5.72861 1.3335 5.17168 1.44328 4.65206 1.65658C4.13243 1.86988 3.66029 2.18252 3.26259 2.57664C2.4594 3.37262 2.00817 4.45219 2.00817 5.57787C2.00442 6.55795 2.34685 7.50843 2.9761 8.26455L2.11952 9.11342C2.06009 9.17311 2.01983 9.2489 2.00383 9.33124C1.98782 9.41357 1.99678 9.49877 2.02958 9.57606C2.06515 9.65243 2.12282 9.7166 2.19526 9.76043C2.2677 9.80426 2.35165 9.82577 2.43645 9.82223H6.29104C7.42693 9.82223 8.5163 9.37506 9.31949 8.57909C10.1227 7.78311 10.5739 6.70354 10.5739 5.57787C10.5739 4.45219 10.1227 3.37262 9.31949 2.57664C8.5163 1.78067 7.42693 1.3335 6.29104 1.3335ZM6.29104 8.97336H3.46863L3.86693 8.57863C3.9074 8.53932 3.9396 8.49245 3.96165 8.44072C3.98371 8.38899 3.99519 8.33344 3.99542 8.27728C3.99381 8.16533 3.94763 8.05854 3.86693 7.98018C3.30613 7.42503 2.9569 6.69436 2.87874 5.91266C2.80059 5.13095 2.99834 4.34658 3.43832 3.69316C3.87829 3.03975 4.53326 2.55772 5.29164 2.32921C6.05002 2.1007 6.86489 2.13984 7.59741 2.43997C8.32994 2.74009 8.9348 3.28263 9.30895 3.97515C9.68309 4.66766 9.80337 5.46732 9.6493 6.23787C9.49523 7.00842 9.07633 7.70219 8.46398 8.20099C7.85162 8.69978 7.0837 8.97274 6.29104 8.97336ZM6.2865 5.04928C6.17291 5.04928 6.06397 5.094 5.98365 5.1736C5.90333 5.25319 5.85821 5.36115 5.85821 5.47372V6.74703C5.85821 6.8596 5.90333 6.96755 5.98365 7.04715C6.06397 7.12675 6.17291 7.17147 6.2865 7.17147C6.40009 7.17147 6.50902 7.12675 6.58934 7.04715C6.66966 6.96755 6.71479 6.8596 6.71479 6.74703V5.47372C6.71479 5.36115 6.66966 5.25319 6.58934 5.1736C6.50902 5.094 6.40009 5.04928 6.2865 5.04928Z" fill="#FF7388"/>
</svg>
