<svg width="24" height="24" viewBox="0 0 24 24" fill="none" xmlns="http://www.w3.org/2000/svg">
<path d="M21.6613 10.2502L12.6613 2.2502C12.4789 2.08988 12.2442 2.00146 12.0013 2.00146C11.7584 2.00146 11.5238 2.08988 11.3413 2.2502L2.34134 10.2502C2.18838 10.3855 2.08051 10.5644 2.03224 10.7629C1.98397 10.9613 1.99762 11.1697 2.07134 11.3602C2.14386 11.5481 2.27144 11.7098 2.43739 11.824C2.60333 11.9382 2.7999 11.9996 3.00134 12.0002H4.00134V21.0002C4.00134 21.2654 4.1067 21.5198 4.29423 21.7073C4.48177 21.8948 4.73612 22.0002 5.00134 22.0002H19.0013C19.2666 22.0002 19.5209 21.8948 19.7084 21.7073C19.896 21.5198 20.0013 21.2654 20.0013 21.0002V12.0002H21.0013C21.2028 11.9996 21.3993 11.9382 21.5653 11.824C21.7312 11.7098 21.8588 11.5481 21.9313 11.3602C22.0051 11.1697 22.0187 10.9613 21.9704 10.7629C21.9222 10.5644 21.8143 10.3855 21.6613 10.2502ZM13.0013 20.0002H11.0013V17.0002C11.0013 16.735 11.1067 16.4806 11.2942 16.2931C11.4818 16.1056 11.7361 16.0002 12.0013 16.0002C12.2666 16.0002 12.5209 16.1056 12.7084 16.2931C12.896 16.4806 13.0013 16.735 13.0013 17.0002V20.0002ZM18.0013 20.0002H15.0013V17.0002C15.0013 16.2045 14.6853 15.4415 14.1227 14.8789C13.5601 14.3163 12.797 14.0002 12.0013 14.0002C11.2057 14.0002 10.4426 14.3163 9.88002 14.8789C9.31741 15.4415 9.00134 16.2045 9.00134 17.0002V20.0002H6.00134V12.0002H18.0013V20.0002ZM5.63134 10.0002L12.0013 4.3402L18.3713 10.0002H5.63134Z" fill="#9367CC"/>
</svg>
