<svg width="16" height="16" viewBox="0 0 16 16" fill="none" xmlns="http://www.w3.org/2000/svg">
<path d="M11.5587 3.64016C11.4005 3.64016 11.2458 3.68708 11.1142 3.77499C10.9827 3.86289 10.8801 3.98783 10.8196 4.13402C10.759 4.2802 10.7432 4.44105 10.7741 4.59623C10.8049 4.75142 10.8811 4.89397 10.993 5.00585C11.1049 5.11773 11.2474 5.19392 11.4026 5.22479C11.5578 5.25566 11.7187 5.23982 11.8648 5.17927C12.011 5.11872 12.136 5.01618 12.2239 4.88462C12.3118 4.75306 12.3587 4.59839 12.3587 4.44016C12.3587 4.22799 12.2744 4.02451 12.1244 3.87448C11.9744 3.72445 11.7709 3.64016 11.5587 3.64016ZM14.6254 5.2535C14.6124 4.70036 14.5088 4.1531 14.3187 3.6335C14.1492 3.18892 13.8854 2.78635 13.5454 2.4535C13.2152 2.11178 12.8117 1.84961 12.3654 1.68683C11.8471 1.49094 11.2993 1.38497 10.7454 1.3735C10.0387 1.3335 9.81203 1.3335 7.9987 1.3335C6.18536 1.3335 5.9587 1.3335 5.25203 1.3735C4.69813 1.38497 4.15026 1.49094 3.63203 1.68683C3.18648 1.85126 2.78332 2.1132 2.45203 2.4535C2.11032 2.78361 1.84815 3.18712 1.68536 3.6335C1.48947 4.15172 1.3835 4.6996 1.37203 5.2535C1.33203 5.96016 1.33203 6.18683 1.33203 8.00016C1.33203 9.8135 1.33203 10.0402 1.37203 10.7468C1.3835 11.3007 1.48947 11.8486 1.68536 12.3668C1.84815 12.8132 2.11032 13.2167 2.45203 13.5468C2.78332 13.8871 3.18648 14.1491 3.63203 14.3135C4.15026 14.5094 4.69813 14.6154 5.25203 14.6268C5.9587 14.6668 6.18536 14.6668 7.9987 14.6668C9.81203 14.6668 10.0387 14.6668 10.7454 14.6268C11.2993 14.6154 11.8471 14.5094 12.3654 14.3135C12.8117 14.1507 13.2152 13.8885 13.5454 13.5468C13.8869 13.2152 14.1509 12.8123 14.3187 12.3668C14.5088 11.8472 14.6124 11.3 14.6254 10.7468C14.6254 10.0402 14.6654 9.8135 14.6654 8.00016C14.6654 6.18683 14.6654 5.96016 14.6254 5.2535ZM13.4254 10.6668C13.4205 11.09 13.3439 11.5093 13.1987 11.9068C13.0923 12.197 12.9213 12.4591 12.6987 12.6735C12.4825 12.8938 12.2208 13.0645 11.932 13.1735C11.5345 13.3187 11.1152 13.3953 10.692 13.4002C10.0254 13.4335 9.7787 13.4402 8.02536 13.4402C6.27203 13.4402 6.02536 13.4402 5.3587 13.4002C4.91929 13.4084 4.48176 13.3407 4.06536 13.2002C3.78922 13.0855 3.5396 12.9154 3.33203 12.7002C3.11076 12.486 2.94193 12.2236 2.8387 11.9335C2.67594 11.5303 2.58566 11.1015 2.57203 10.6668C2.57203 10.0002 2.53203 9.7535 2.53203 8.00016C2.53203 6.24683 2.53203 6.00016 2.57203 5.3335C2.57502 4.90087 2.654 4.47213 2.80536 4.06683C2.92273 3.78544 3.10287 3.5346 3.33203 3.3335C3.53457 3.10427 3.78489 2.92223 4.06536 2.80016C4.47173 2.65353 4.90003 2.57688 5.33203 2.5735C5.9987 2.5735 6.24536 2.5335 7.9987 2.5335C9.75203 2.5335 9.9987 2.5335 10.6654 2.5735C11.0885 2.57835 11.5078 2.65499 11.9054 2.80016C12.2083 2.9126 12.4802 3.09539 12.6987 3.3335C12.9172 3.53828 13.0879 3.78865 13.1987 4.06683C13.3469 4.47278 13.4236 4.90135 13.4254 5.3335C13.4587 6.00016 13.4654 6.24683 13.4654 8.00016C13.4654 9.7535 13.4587 10.0002 13.4254 10.6668ZM7.9987 4.58016C7.32257 4.58148 6.66201 4.78318 6.10047 5.15977C5.53893 5.53637 5.10162 6.07096 4.84379 6.696C4.58596 7.32104 4.51918 8.00847 4.65189 8.67145C4.78461 9.33442 5.11086 9.94319 5.58941 10.4208C6.06797 10.8984 6.67737 11.2235 7.3406 11.3549C8.00384 11.4863 8.69114 11.4182 9.31568 11.1592C9.94021 10.9001 10.4739 10.4618 10.8494 9.89952C11.225 9.33725 11.4254 8.67629 11.4254 8.00016C11.4262 7.55023 11.3382 7.10457 11.1662 6.6888C10.9942 6.27303 10.7417 5.89537 10.4233 5.57753C10.1048 5.25969 9.72666 5.00795 9.31056 4.83678C8.89446 4.66562 8.44863 4.5784 7.9987 4.58016ZM7.9987 10.2202C7.55962 10.2202 7.13041 10.09 6.76533 9.84602C6.40025 9.60209 6.11571 9.25537 5.94768 8.84972C5.77966 8.44407 5.7357 7.9977 5.82135 7.56706C5.90701 7.13642 6.11845 6.74086 6.42892 6.43039C6.73939 6.11991 7.13496 5.90848 7.5656 5.82282C7.99623 5.73716 8.4426 5.78112 8.84825 5.94915C9.25391 6.11718 9.60062 6.40172 9.84456 6.7668C10.0885 7.13187 10.2187 7.56109 10.2187 8.00016C10.2187 8.2917 10.1613 8.58038 10.0497 8.84972C9.93814 9.11906 9.77462 9.36379 9.56847 9.56994C9.36233 9.77609 9.1176 9.93961 8.84825 10.0512C8.57891 10.1627 8.29023 10.2202 7.9987 10.2202Z" fill="#42A2C4"/>
</svg>
