<svg width="17" height="16" viewBox="0 0 17 16" fill="none" xmlns="http://www.w3.org/2000/svg">
<path d="M11.8907 3.64016C11.7325 3.64016 11.5778 3.68708 11.4463 3.77499C11.3147 3.86289 11.2122 3.98783 11.1516 4.13402C11.0911 4.2802 11.0752 4.44105 11.1061 4.59623C11.137 4.75142 11.2132 4.89397 11.325 5.00585C11.4369 5.11773 11.5795 5.19392 11.7347 5.22479C11.8898 5.25566 12.0507 5.23982 12.1969 5.17927C12.3431 5.11872 12.468 5.01618 12.5559 4.88462C12.6438 4.75306 12.6907 4.59839 12.6907 4.44016C12.6907 4.22799 12.6064 4.02451 12.4564 3.87448C12.3064 3.72445 12.1029 3.64016 11.8907 3.64016ZM14.9574 5.2535C14.9444 4.70036 14.8408 4.1531 14.6507 3.6335C14.4812 3.18892 14.2174 2.78635 13.8774 2.4535C13.5473 2.11178 13.1438 1.84961 12.6974 1.68683C12.1792 1.49094 11.6313 1.38497 11.0774 1.3735C10.3707 1.3335 10.1441 1.3335 8.33073 1.3335C6.5174 1.3335 6.29073 1.3335 5.58406 1.3735C5.03016 1.38497 4.48229 1.49094 3.96406 1.68683C3.51851 1.85126 3.11535 2.1132 2.78406 2.4535C2.44235 2.78361 2.18018 3.18712 2.0174 3.6335C1.8215 4.15172 1.71554 4.6996 1.70406 5.2535C1.66406 5.96016 1.66406 6.18683 1.66406 8.00016C1.66406 9.8135 1.66406 10.0402 1.70406 10.7468C1.71554 11.3007 1.8215 11.8486 2.0174 12.3668C2.18018 12.8132 2.44235 13.2167 2.78406 13.5468C3.11535 13.8871 3.51851 14.1491 3.96406 14.3135C4.48229 14.5094 5.03016 14.6154 5.58406 14.6268C6.29073 14.6668 6.5174 14.6668 8.33073 14.6668C10.1441 14.6668 10.3707 14.6668 11.0774 14.6268C11.6313 14.6154 12.1792 14.5094 12.6974 14.3135C13.1438 14.1507 13.5473 13.8885 13.8774 13.5468C14.2189 13.2152 14.483 12.8123 14.6507 12.3668C14.8408 11.8472 14.9444 11.3 14.9574 10.7468C14.9574 10.0402 14.9974 9.8135 14.9974 8.00016C14.9974 6.18683 14.9974 5.96016 14.9574 5.2535ZM13.7574 10.6668C13.7525 11.09 13.6759 11.5093 13.5307 11.9068C13.4243 12.197 13.2533 12.4591 13.0307 12.6735C12.8145 12.8938 12.5529 13.0645 12.2641 13.1735C11.8665 13.3187 11.4472 13.3953 11.0241 13.4002C10.3574 13.4335 10.1107 13.4402 8.3574 13.4402C6.60406 13.4402 6.3574 13.4402 5.69073 13.4002C5.25132 13.4084 4.81379 13.3407 4.3974 13.2002C4.12125 13.0855 3.87163 12.9154 3.66406 12.7002C3.44279 12.486 3.27396 12.2236 3.17073 11.9335C3.00797 11.5303 2.91769 11.1015 2.90406 10.6668C2.90406 10.0002 2.86406 9.7535 2.86406 8.00016C2.86406 6.24683 2.86406 6.00016 2.90406 5.3335C2.90705 4.90087 2.98603 4.47213 3.1374 4.06683C3.25476 3.78544 3.43491 3.5346 3.66406 3.3335C3.8666 3.10427 4.11692 2.92223 4.3974 2.80016C4.80376 2.65353 5.23206 2.57688 5.66406 2.5735C6.33073 2.5735 6.5774 2.5335 8.33073 2.5335C10.0841 2.5335 10.3307 2.5335 10.9974 2.5735C11.4206 2.57835 11.8399 2.65499 12.2374 2.80016C12.5403 2.9126 12.8123 3.09539 13.0307 3.3335C13.2492 3.53828 13.4199 3.78865 13.5307 4.06683C13.6789 4.47278 13.7556 4.90135 13.7574 5.3335C13.7907 6.00016 13.7974 6.24683 13.7974 8.00016C13.7974 9.7535 13.7907 10.0002 13.7574 10.6668ZM8.33073 4.58016C7.6546 4.58148 6.99404 4.78318 6.4325 5.15977C5.87096 5.53637 5.43365 6.07096 5.17582 6.696C4.91799 7.32104 4.85121 8.00847 4.98392 8.67145C5.11664 9.33442 5.44289 9.94319 5.92145 10.4208C6.40001 10.8984 7.0094 11.2235 7.67264 11.3549C8.33587 11.4863 9.02317 11.4182 9.64771 11.1592C10.2722 10.9001 10.806 10.4618 11.1815 9.89952C11.557 9.33725 11.7574 8.67629 11.7574 8.00016C11.7583 7.55023 11.6702 7.10457 11.4982 6.6888C11.3262 6.27303 11.0738 5.89537 10.7553 5.57753C10.4368 5.25969 10.0587 5.00795 9.64259 4.83678C9.22649 4.66562 8.78066 4.5784 8.33073 4.58016ZM8.33073 10.2202C7.89165 10.2202 7.46244 10.09 7.09736 9.84602C6.73229 9.60209 6.44774 9.25537 6.27972 8.84972C6.11169 8.44407 6.06773 7.9977 6.15339 7.56706C6.23904 7.13642 6.45048 6.74086 6.76095 6.43039C7.07142 6.11991 7.46699 5.90848 7.89763 5.82282C8.32827 5.73716 8.77463 5.78112 9.18029 5.94915C9.58594 6.11718 9.93265 6.40172 10.1766 6.7668C10.4205 7.13187 10.5507 7.56109 10.5507 8.00016C10.5507 8.2917 10.4933 8.58038 10.3817 8.84972C10.2702 9.11906 10.1067 9.36379 9.90051 9.56994C9.69436 9.77609 9.44963 9.93961 9.18029 10.0512C8.91094 10.1627 8.62226 10.2202 8.33073 10.2202Z" fill="#9367CC"/>
</svg>
