<svg width="17" height="16" viewBox="0 0 17 16" fill="none" xmlns="http://www.w3.org/2000/svg">
<path d="M5.9895 2.3335H6.43971C6.62638 2.3335 6.7962 2.43918 6.86781 2.61156C7.14962 3.28998 7.53897 4.35379 8.66276 4.35379C9.75129 4.35379 10.2298 3.35569 10.4687 2.67652C10.54 2.4737 10.7274 2.3335 10.9424 2.3335H11.336C11.4378 2.3335 11.5371 2.36503 11.6203 2.42377L14.9 4.74035C15.1326 4.90459 15.1779 5.23111 14.999 5.45253L13.5298 7.27074C13.3584 7.48289 13.0472 7.51542 12.8356 7.34332L12.068 6.719V13.1668C12.068 13.443 11.8442 13.6668 11.568 13.6668H5.51768C5.24153 13.6668 5.01768 13.443 5.01768 13.1668V6.719L4.27305 7.32465C4.05272 7.50385 3.7269 7.46019 3.56153 7.22929L2.28491 5.44688C2.12571 5.22461 2.17791 4.91522 2.40123 4.75748L5.70522 2.42377C5.78838 2.36503 5.88769 2.3335 5.9895 2.3335Z" stroke="#34B6A2"/>
</svg>
