<svg width="24" height="24" viewBox="0 0 24 24" fill="none" xmlns="http://www.w3.org/2000/svg">
<path d="M4.2335 8.93909H3.59391C3.49298 8.93909 3.41117 8.85727 3.41117 8.75635V7.83154C3.41117 7.76475 3.44761 7.70328 3.50621 7.67122L11.9575 3.04823C12.0124 3.0182 12.0789 3.01835 12.1336 3.04862L20.4945 7.67106C20.5527 7.70324 20.5888 7.76449 20.5888 7.83099V8.75635C20.5888 8.85727 20.507 8.93909 20.4061 8.93909H19.8579M4.2335 8.93909V10.0812C4.2335 10.2328 4.39447 10.4649 5.01015 10.6039M4.2335 8.93909H8.43655M8.43655 8.93909V10.0812C8.43655 10.2328 8.27558 10.4649 7.6599 10.6039M8.43655 8.93909H9.94416M5.01015 10.6039C5.32221 10.6743 5.75109 10.7208 6.33503 10.7208C6.91896 10.7208 7.34784 10.6743 7.6599 10.6039M5.01015 10.6039V18.7157M5.01015 18.7157H3.45685C3.20454 18.7157 3 18.9203 3 19.1726V20.365C3 20.6155 3.20174 20.8193 3.45224 20.8218L20.6299 20.9953C20.884 20.9979 21.0914 20.7926 21.0914 20.5385V19.1726C21.0914 18.9203 20.8868 18.7157 20.6345 18.7157H7.6599M5.01015 18.7157H7.6599M7.6599 10.6039V18.7157M9.94416 8.93909V10.0812C9.94416 10.2328 10.1051 10.4649 10.7208 10.6039M9.94416 8.93909H14.1472M14.1472 8.93909V10.0812C14.1472 10.2328 13.9862 10.4649 13.3706 10.6039M14.1472 8.93909H15.6548M10.7208 10.6039C11.0329 10.6743 11.4617 10.7208 12.0457 10.7208C12.6296 10.7208 13.0585 10.6743 13.3706 10.6039M10.7208 10.6039V18.7157H13.3706V10.6039M15.6548 8.93909V10.0812C15.6548 10.2328 15.8158 10.4649 16.4315 10.6039M15.6548 8.93909H19.8579M19.8579 8.93909V10.0812C19.8579 10.2328 19.6969 10.4649 19.0812 10.6039M16.4315 10.6039C16.7435 10.6743 17.1724 10.7208 17.7563 10.7208C18.3403 10.7208 18.7692 10.6743 19.0812 10.6039M16.4315 10.6039V18.7157H19.0812V10.6039" stroke="#42A2C4" stroke-width="1.42105" stroke-linecap="round"/>
</svg>
