<svg width="16" height="16" viewBox="0 0 16 16" fill="none" xmlns="http://www.w3.org/2000/svg">
<path d="M5.21468 8.34107C4.10522 8.23283 3.62491 8.92737 3.52344 9.28817C3.35431 9.00628 3.25289 8.34108 3.92944 8.00276C4.60598 7.66444 5.09066 8.08174 5.21468 8.34107Z" fill="#42A2C4"/>
<path d="M6.22408 8.04113C7.06893 7.31391 7.8615 7.6053 8.15219 7.8419C8.1282 7.51404 7.82818 6.91174 7.08022 7.02459C6.33226 7.13744 6.17619 7.75768 6.22408 8.04113Z" fill="#42A2C4"/>
<path d="M6.4322 10.5723C6.10328 10.66 5.41061 10.672 5.00038 10.6531C4.93656 10.6501 4.90491 10.7249 4.95574 10.7636C5.24195 10.9816 5.91511 11.3897 6.7028 11.1473C7.41564 10.928 7.64163 10.2593 7.70141 9.84758C7.70991 9.78904 7.64415 9.75528 7.59981 9.79444C7.31924 10.0422 6.87149 10.4552 6.4322 10.5723Z" fill="#42A2C4"/>
<path d="M8.87201 6.19746C9.1106 6.17636 9.5171 6.13219 9.59708 5.91206C9.24774 5.88099 8.87739 5.76629 8.72265 5.69558C8.78007 5.86338 8.82968 6.03079 8.87201 6.19746Z" fill="#42A2C4"/>
<path d="M11.6496 6.5702C11.1914 6.49465 10.9548 6.30458 10.8952 6.17145C10.8952 6.17145 10.7619 6.94998 11.627 7.06656C12.4108 7.1722 12.4267 6.47259 12.4267 6.47259C12.3375 6.54181 12.0801 6.64118 11.6496 6.5702Z" fill="#42A2C4"/>
<path d="M8.87103 8.6546C9.26059 8.77591 10.179 9.18123 10.3987 9.35844C10.4218 8.64193 9.44365 8.1749 8.88813 8.05029C8.89132 8.25535 8.88523 8.4571 8.87103 8.6546Z" fill="#42A2C4"/>
<path d="M6.85603 5.43512C6.85603 4.56464 7.24644 3.58492 7.42371 3.18494C7.46634 3.08874 7.58736 3.06233 7.67149 3.12553C9.96932 4.85148 12.9178 4.82517 13.7129 4.78248C13.819 4.77678 13.905 4.87209 13.8902 4.97738C13.1227 10.4416 9.53764 10.5577 8.47616 10.2733M7.14868 12.0469C8.08708 11.7955 10.2017 8.15853 7.97317 5.04696C7.91922 4.97163 7.8122 4.95766 7.73814 5.01335C5.70377 6.54302 2.93929 6.66991 2.19252 6.67501C2.09055 6.6757 2.01191 6.76804 2.02654 6.86896C2.72813 11.7089 6.20715 12.2991 7.14868 12.0469Z" stroke="#42A2C4" stroke-width="0.612161"/>
</svg>
