<svg width="16" height="16" viewBox="0 0 16 16" fill="none" xmlns="http://www.w3.org/2000/svg">
<path d="M13.7274 4.60014C13.7135 4.57684 13.6979 4.55456 13.6807 4.53348C12.8185 3.11433 11.4576 2.06808 9.86446 1.59952C8.27135 1.13096 6.56073 1.27382 5.06741 2.00014H5.02075C3.99046 2.53071 3.11626 3.32068 2.48439 4.29214C1.85253 5.2636 1.48481 6.383 1.4175 7.53992C1.3502 8.69684 1.58564 9.85133 2.1006 10.8895C2.61557 11.9277 3.39226 12.8137 4.35408 13.4601L4.57408 13.5935L4.64075 13.6401C5.64783 14.2787 6.80872 14.6335 8.00075 14.6668H8.14075C9.30496 14.6412 10.4422 14.311 11.4391 13.7092C12.436 13.1074 13.258 12.255 13.823 11.2368C14.3881 10.2185 14.6766 9.07008 14.6599 7.9057C14.6431 6.74132 14.3216 5.60165 13.7274 4.60014ZM12.6674 5.37348C12.8455 5.68188 12.9907 6.00811 13.1007 6.34681C12.4546 6.13664 11.7802 6.02648 11.1007 6.02014C11.0325 6.00684 10.9623 6.00684 10.8941 6.02014C10.075 6.031 9.26533 6.1961 8.50741 6.50681C8.04546 6.21732 7.63158 5.85742 7.28075 5.44014C8.09556 4.96233 9.02074 4.70491 9.96525 4.69322C10.9098 4.68153 11.841 4.91597 12.6674 5.37348ZM8.00075 2.66681C8.93741 2.66197 9.85826 2.9083 10.6674 3.38014C10.4464 3.35025 10.2237 3.33467 10.0007 3.33348C8.77715 3.33582 7.5778 3.67486 6.53408 4.31348C6.33717 3.90237 6.19378 3.46772 6.10741 3.02014C6.71152 2.78728 7.35331 2.66751 8.00075 2.66681ZM4.00075 4.47348C4.26678 4.17778 4.56407 3.91179 4.88741 3.68014C5.11001 4.53003 5.50005 5.32692 6.03467 6.02409C6.56928 6.72127 7.2377 7.30468 8.00075 7.74014C7.9532 8.40695 7.77898 9.05858 7.48741 9.66014C6.46607 9.28319 5.58455 8.6027 4.96127 7.71008C4.33799 6.81747 4.00281 5.75549 4.00075 4.66681C4.00075 4.60014 4.00075 4.54014 4.00075 4.47348ZM2.66741 8.00014C2.66861 7.46449 2.74949 6.93199 2.90741 6.42014C3.17097 7.38803 3.64956 8.28396 4.30751 9.04118C4.96545 9.7984 5.7858 10.3974 6.70741 10.7935C6.17681 11.4152 5.50779 11.9039 4.75408 12.2201C4.10655 11.7233 3.5817 11.0845 3.21993 10.3528C2.85816 9.62121 2.66914 8.81632 2.66741 8.00014ZM7.90741 13.3335C7.313 13.3248 6.72448 13.2144 6.16741 13.0068C7.04187 12.4678 7.77905 11.7329 8.32075 10.8601C8.93464 9.88179 9.28383 8.76072 9.33408 7.60681C9.7188 7.48034 10.1171 7.39978 10.5207 7.36681C10.8056 8.51034 10.7036 9.716 10.2308 10.7955C9.75801 11.8749 8.94101 12.7674 7.90741 13.3335ZM10.7207 12.5868C11.5535 11.4495 12.0018 10.0764 12.0007 8.66681C11.9978 8.24631 11.9576 7.8269 11.8807 7.41348C12.3821 7.50207 12.8688 7.65909 13.3274 7.88014C13.3274 7.92014 13.3274 7.96014 13.3274 8.00014C13.3268 8.92393 13.0862 9.83172 12.6293 10.6346C12.1723 11.4374 11.5147 12.1079 10.7207 12.5801V12.5868Z" fill="#42A2C4"/>
</svg>
