<svg width="16" height="16" viewBox="0 0 16 16" fill="none" xmlns="http://www.w3.org/2000/svg">
<path d="M12.3333 1.99984H11.6667V1.33317C11.6667 1.15636 11.5964 0.98679 11.4714 0.861766C11.3464 0.736742 11.1768 0.666504 11 0.666504C10.8232 0.666504 10.6536 0.736742 10.5286 0.861766C10.4036 0.98679 10.3333 1.15636 10.3333 1.33317V1.99984H5V1.33317C5 1.15636 4.92976 0.98679 4.80474 0.861766C4.67971 0.736742 4.51014 0.666504 4.33333 0.666504C4.15652 0.666504 3.98695 0.736742 3.86193 0.861766C3.7369 0.98679 3.66667 1.15636 3.66667 1.33317V1.99984H3C2.46957 1.99984 1.96086 2.21055 1.58579 2.58562C1.21071 2.9607 1 3.4694 1 3.99984V13.3332C1 13.8636 1.21071 14.3723 1.58579 14.7474C1.96086 15.1225 2.46957 15.3332 3 15.3332H12.3333C12.8638 15.3332 13.3725 15.1225 13.7475 14.7474C14.1226 14.3723 14.3333 13.8636 14.3333 13.3332V3.99984C14.3333 3.4694 14.1226 2.9607 13.7475 2.58562C13.3725 2.21055 12.8638 1.99984 12.3333 1.99984ZM13 13.3332C13 13.51 12.9298 13.6796 12.8047 13.8046C12.6797 13.9296 12.5101 13.9998 12.3333 13.9998H3C2.82319 13.9998 2.65362 13.9296 2.5286 13.8046C2.40357 13.6796 2.33333 13.51 2.33333 13.3332V7.33317H13V13.3332ZM13 5.99984H2.33333V3.99984C2.33333 3.82303 2.40357 3.65346 2.5286 3.52843C2.65362 3.40341 2.82319 3.33317 3 3.33317H3.66667V3.99984C3.66667 4.17665 3.7369 4.34622 3.86193 4.47124C3.98695 4.59627 4.15652 4.6665 4.33333 4.6665C4.51014 4.6665 4.67971 4.59627 4.80474 4.47124C4.92976 4.34622 5 4.17665 5 3.99984V3.33317H10.3333V3.99984C10.3333 4.17665 10.4036 4.34622 10.5286 4.47124C10.6536 4.59627 10.8232 4.6665 11 4.6665C11.1768 4.6665 11.3464 4.59627 11.4714 4.47124C11.5964 4.34622 11.6667 4.17665 11.6667 3.99984V3.33317H12.3333C12.5101 3.33317 12.6797 3.40341 12.8047 3.52843C12.9298 3.65346 13 3.82303 13 3.99984V5.99984Z" fill="#42A2C4"/>
<g clip-path="url(#clip0_1185_3493)">
<path d="M10.2015 10.1176C10.1857 10.0719 10.157 10.0317 10.1189 10.002C10.0807 9.97225 10.0347 9.95423 9.98653 9.95011L8.56403 9.74261L7.92653 8.45011C7.90606 8.40784 7.8741 8.3722 7.83431 8.34725C7.79451 8.32231 7.7485 8.30908 7.70153 8.30908C7.65457 8.30908 7.60855 8.32231 7.56876 8.34725C7.52897 8.3722 7.497 8.40784 7.47653 8.45011L6.83903 9.74011L5.41653 9.95011C5.37026 9.95669 5.32676 9.9761 5.29097 10.0061C5.25518 10.0362 5.22852 10.0757 5.21403 10.1201C5.20077 10.1635 5.19958 10.2097 5.21059 10.2538C5.2216 10.2978 5.2444 10.338 5.27653 10.3701L6.30903 11.3701L6.05903 12.7901C6.05011 12.837 6.05478 12.8854 6.0725 12.9297C6.09022 12.974 6.12025 13.0123 6.15903 13.0401C6.19684 13.0671 6.24143 13.0831 6.28779 13.0862C6.33416 13.0893 6.38048 13.0794 6.42153 13.0576L7.70153 12.3901L8.97653 13.0601C9.01162 13.0799 9.05125 13.0902 9.09153 13.0901C9.14449 13.0903 9.19614 13.0737 9.23903 13.0426C9.27782 13.0148 9.30785 12.9765 9.32557 12.9322C9.34328 12.8879 9.34796 12.8395 9.33903 12.7926L9.08903 11.3726L10.1215 10.3726C10.1576 10.342 10.1843 10.3018 10.1985 10.2567C10.2126 10.2116 10.2137 10.1633 10.2015 10.1176Z" fill="#42A2C4"/>
</g>
<defs>
<clipPath id="clip0_1185_3493">
<rect width="6" height="6" fill="white" transform="translate(4.69922 7.7002)"/>
</clipPath>
</defs>
</svg>
